<svg width="1380" height="1380" viewBox="0 0 1380 1380" fill="none" xmlns="http://www.w3.org/2000/svg">
<path d="M567.55 743.416V769.171H554.928V791.234H567.55V822.112C567.55 829.075 568.345 834.09 569.954 837.159C571.564 840.228 574.321 842.571 578.231 844.175C580.99 845.274 584.121 846.071 587.617 846.575C591.112 847.124 595.037 847.406 599.407 847.406C602.121 847.406 604.924 847.265 607.822 846.99C610.72 846.761 613.71 846.386 616.792 845.882V824.235H611.752C608.302 824.235 606.013 823.392 604.863 821.743C603.713 820.094 603.152 815.406 603.152 807.619V791.234H615.821V769.171H603.152V743.416H567.55ZM792.303 743.416V769.171H779.681V791.234H792.303V822.112C792.303 829.075 793.098 834.09 794.708 837.159C796.318 840.228 799.074 842.571 802.984 844.175C805.744 845.274 808.874 846.071 812.37 846.575C815.865 847.124 819.79 847.406 824.16 847.406C826.874 847.406 829.677 847.265 832.575 846.99C835.473 846.761 838.463 846.386 841.545 845.882V824.235H836.505C833.055 824.235 830.766 823.392 829.616 821.743C828.466 820.094 827.905 815.406 827.905 807.619V791.234H840.574V769.171H827.905V743.416H792.303ZM0.188721 743.554V846.021H33.8486L34.1261 838.267C38.4036 841.519 43.1228 843.956 48.3205 845.605C53.518 847.209 59.2182 848.006 65.4278 848.006C78.6288 848.006 89.1876 844.256 97.0531 836.744C104.918 829.185 108.843 819.155 108.843 806.65C108.843 793.961 104.872 783.884 96.9145 776.417C89.003 768.951 78.3503 765.202 64.9192 765.201C59.2157 765.202 53.9362 765.905 49.1066 767.325C44.3227 768.699 39.7906 770.808 35.513 773.648V743.554H0.188721ZM332.995 764.509C315.057 764.509 301.18 768.165 291.383 775.494C281.586 782.824 276.68 793.228 276.68 806.65C276.68 820.026 281.586 830.383 291.383 837.713C301.18 845.042 315.057 848.698 332.995 848.698C349.14 848.698 362.036 846.402 371.741 841.867C381.446 837.332 387.66 830.723 390.328 821.973H351.906C350.664 823.989 348.608 825.489 345.757 826.543C342.905 827.597 339.307 828.158 335.03 828.158C328.544 828.158 323.545 826.987 319.957 824.651C316.369 822.314 314.547 818.987 314.547 814.727H391.021V813.388C391.021 797.356 386.069 785.217 376.226 776.971C366.428 768.68 352.038 764.509 332.995 764.509ZM1064.08 764.509C1046.14 764.509 1032.31 768.165 1022.51 775.494C1012.72 782.824 1007.81 793.228 1007.81 806.65C1007.81 820.026 1012.72 830.383 1022.51 837.713C1032.31 845.042 1046.14 848.698 1064.08 848.698C1080.22 848.698 1093.17 846.402 1102.87 841.867C1112.58 837.332 1118.79 830.723 1121.46 821.973H1082.99C1081.75 823.989 1079.74 825.489 1076.89 826.543C1074.03 827.597 1070.44 828.158 1066.16 828.158C1059.67 828.158 1054.63 826.987 1051.04 824.651C1047.45 822.314 1045.68 818.987 1045.68 814.727H1122.1V813.388C1122.1 797.356 1117.2 785.217 1107.36 776.971C1097.56 768.68 1083.12 764.509 1064.08 764.509ZM1352.31 765.201C1347.71 765.202 1343.6 765.904 1339.92 767.278C1336.24 768.607 1333.07 770.576 1330.4 773.233L1329.98 767.186H1294.93V846.021H1330.86V805.311C1330.86 799.86 1331.51 796.017 1332.76 793.772C1334.04 791.528 1336.15 790.403 1339.14 790.403C1341.94 790.403 1344.04 791.387 1345.42 793.357C1346.8 795.281 1347.51 798.233 1347.51 802.219V802.772H1378.76V795.895C1378.76 785.268 1376.61 777.534 1372.33 772.633C1368.1 767.685 1361.42 765.202 1352.31 765.201ZM334.891 784.218C340.686 784.218 345.312 785.436 348.762 787.818C352.211 790.2 354.22 793.574 354.726 797.926H312.744C313.664 793.483 316.046 790.062 319.818 787.726C323.636 785.389 328.635 784.218 334.891 784.218ZM1066.02 784.218C1071.82 784.218 1076.44 785.436 1079.89 787.818C1083.34 790.2 1085.35 793.574 1085.86 797.926H1043.87C1044.79 793.483 1047.13 790.062 1050.9 787.726C1054.72 785.389 1059.76 784.218 1066.02 784.218ZM53.5914 789.202C59.1109 789.203 63.5028 790.75 66.7685 793.91C70.0804 797.071 71.7156 801.336 71.7157 806.65C71.7156 811.918 70.0804 816.136 66.7685 819.343C63.5028 822.503 59.1109 824.097 53.5914 824.097C48.1637 824.097 43.7721 822.503 40.4604 819.343C37.1486 816.136 35.513 811.918 35.513 806.65C35.513 801.336 37.1486 797.071 40.4604 793.91C43.7721 790.75 48.1637 789.203 53.5914 789.202ZM1012.29 871.027V887.136H1032.68V871.027H1012.29ZM208.204 873.196V895.213C204.862 891.297 200.64 889.351 195.49 889.351C189.316 889.351 184.354 891.787 180.602 896.69C176.85 901.593 174.961 908.241 174.961 916.583C174.961 925.504 176.791 932.285 180.509 936.984C184.261 941.649 189.163 944 195.166 944C201.681 944 206.344 941.327 209.175 936.015V942.938H228.317V873.196H208.204ZM883.804 873.75L864.431 874.073L864.108 890.967H856.34V904.213H864.108V920.599L864.062 926.691C864.062 932.582 865.521 936.879 868.455 939.569C871.422 942.259 876.049 943.585 882.326 943.585C886.214 943.585 890.183 943.214 894.208 942.431V927.891C891.957 928.47 890.02 928.768 888.383 928.768C887.325 928.768 886.274 928.553 885.285 928.076C884.295 927.565 883.805 925.99 883.805 923.368V904.213H894.208V890.967H883.805L883.804 873.75ZM30.3809 889.905C21.7854 889.905 14.9103 892.59 9.75977 897.936C4.60927 903.282 2.03822 909.835 2.03822 917.599C2.03822 925.09 4.63344 931.357 9.85205 936.43C15.0708 941.47 22.0772 944 30.8433 944C38.7223 944 44.964 942.221 49.5687 938.646C54.2075 935.037 57.0893 930.645 58.2149 925.538L39.1658 924.291C38.3811 928.548 35.786 930.661 31.3519 930.661C28.2821 930.661 26.2014 929.873 25.1099 928.307C24.0186 926.707 23.4213 924.283 23.353 921.014H58.2149C58.2482 919.754 58.2608 918.775 58.2608 918.06C58.2608 909.378 55.6896 902.514 50.5394 897.475C45.4229 892.435 38.7034 889.905 30.3809 889.905ZM547.022 889.905C539.142 889.905 532.733 892.484 527.787 897.659C522.876 902.801 520.39 909.354 520.39 917.322C520.39 925.119 522.888 931.518 527.833 936.523C532.813 941.494 539.259 944 547.206 944C554.301 944 560.004 942.09 564.268 938.277C568.565 934.463 571.124 929.521 571.943 923.461L554.512 921.984C553.83 927.125 551.689 929.692 548.039 929.692C545.549 929.692 543.791 928.688 542.768 926.645C541.779 924.602 541.288 921.44 541.288 917.183C541.288 912.246 541.779 908.773 542.768 906.798C543.791 904.789 545.393 903.798 547.576 903.798C550.987 903.798 553.068 906.532 553.818 912.014L571.665 910.537C571.017 904.578 568.483 899.649 564.083 895.767C559.683 891.851 554.014 889.905 547.022 889.905ZM715.135 889.905C699.684 889.905 690.61 895.336 687.949 906.198L706.582 907.952C707.128 904.173 709.735 902.275 714.442 902.275C716.454 902.275 717.996 902.634 719.019 903.383C720.077 904.132 720.591 905.671 720.591 907.952V909.106C707.869 909.787 699.02 911.84 694.006 915.245C689.026 918.616 686.515 923.056 686.515 928.538C686.515 932.59 688.057 936.16 691.093 939.292C694.163 942.425 698.778 944 704.918 944C712.387 944 717.925 941.242 721.609 935.692C721.609 938.314 721.871 940.725 722.348 942.938H741.767C740.71 940.146 740.195 936.78 740.195 932.83V912.06C740.195 906.442 739.848 902.68 739.132 900.706C738.45 898.731 737.063 896.845 735.017 895.075C732.97 893.304 730.208 892.015 726.694 891.197C723.181 890.346 719.331 889.905 715.135 889.905ZM1180.59 889.905C1172.1 889.905 1165.2 892.484 1159.88 897.659C1154.59 902.835 1151.97 909.328 1151.97 917.091C1151.97 924.31 1154.52 930.589 1159.6 935.969C1164.68 941.315 1171.5 944 1180.13 944C1188.86 944 1195.87 941.421 1201.12 936.246C1206.41 931.036 1209.07 924.531 1209.07 916.768C1209.07 909.073 1206.43 902.675 1201.21 897.567C1196.03 892.46 1189.15 889.905 1180.59 889.905ZM1362.16 889.905C1354.96 889.905 1349.98 892.733 1347.18 898.352V890.967H1328.27V942.938H1348.66V911.737C1348.66 906.561 1350.54 903.937 1354.26 903.937C1355.52 903.937 1356.53 904.341 1357.35 905.09C1358.21 905.839 1358.65 907.524 1358.65 910.214V942.938H1379.08V909.66C1379.08 903.974 1378.5 899.987 1377.37 897.705C1376.25 895.39 1374.36 893.551 1371.73 892.121C1369.14 890.656 1365.95 889.905 1362.16 889.905ZM350.426 890.967V928.122C350.426 933.23 351.8 937.134 354.495 939.892C357.224 942.616 361.062 944 366.008 944C374.023 944 379.381 940.801 382.144 934.4V942.938H401.055V890.967H380.896V922.122C380.896 924.369 380.323 926.124 379.231 927.384C378.14 928.61 376.717 929.23 374.978 929.23C373.34 929.23 372.275 928.847 371.695 928.03C371.149 927.179 370.863 925.688 370.863 923.645V890.967H350.426ZM1012.29 890.967V942.938H1032.68V890.967H1012.29ZM30.566 901.906C32.6125 901.906 34.3337 902.526 35.6979 903.752C37.0964 904.944 37.7908 907.307 37.8251 910.814H23.3068C23.3068 904.889 25.7224 901.906 30.566 901.906ZM202.425 902.506C206.279 902.506 208.204 904.857 208.204 909.521V922.399C208.204 925.123 207.607 927.164 206.447 928.492C205.322 929.82 203.97 930.476 202.332 930.476C198.035 930.476 195.859 926.24 195.859 917.83C195.859 913.539 196.289 909.945 197.108 906.983C197.96 904.021 199.73 902.506 202.425 902.506ZM1180.5 902.69C1183.06 902.69 1184.83 903.73 1185.82 905.875C1186.81 908.02 1187.3 911.53 1187.3 916.399C1187.3 919.974 1186.95 923.435 1186.23 926.738C1185.55 930.006 1183.63 931.63 1180.45 931.63C1178.2 931.63 1176.49 930.675 1175.37 928.768C1174.24 926.828 1173.7 922.865 1173.7 916.906C1173.7 911.833 1174.23 908.227 1175.32 906.014C1176.41 903.8 1178.15 902.69 1180.5 902.69ZM720.591 918.614V921.107C720.591 925.533 719.815 928.398 718.28 929.692C716.745 930.985 714.914 931.63 712.731 931.63C709.287 931.63 707.553 930.055 707.553 926.922C707.553 922.291 711.894 919.534 720.591 918.614Z" fill="#808080"/>
<path d="M0.327637 435V524.636H33.2938C33.2938 506.453 34.0652 493 35.6518 484.341C37.2422 475.539 41.2236 467.169 47.5808 459.232C53.9378 451.151 62.4577 445.047 73.1493 440.862C80.5618 437.861 89.7934 435.925 100.752 435H0.327637ZM137.741 435C149.474 435.717 160.895 437.029 172.002 438.924V495.419C158.277 493.542 147.998 492.603 141.209 492.603C134.418 492.604 128.21 493.969 122.575 496.711C116.941 499.452 114.114 506.157 114.114 516.835V524.636H170.476V580.669H114.762V743.277H254.533C237 737.749 221.983 728.445 209.499 715.307C187.972 692.506 177.226 665.819 177.226 635.226C177.226 602.324 188.4 574.91 210.794 552.976C233.332 531.041 262.621 520.067 298.596 520.066C334.859 520.067 363.975 530.914 385.936 552.56C408.04 574.206 419.087 601.32 419.087 633.933C419.087 666.836 407.867 694.336 385.473 716.414C372.726 728.982 357.564 737.908 339.977 743.277H489.273C457.039 733.918 435.935 713.664 426.022 682.444L494.313 673.12C498.213 688.994 513.67 696.937 540.687 696.937C563.081 696.937 574.255 692.579 574.255 683.921C574.255 680.169 572.116 677.31 567.781 675.289C563.447 673.124 553.169 670.946 536.988 668.781C492.2 662.576 464.241 652.927 453.116 639.795C441.992 626.519 436.425 611.787 436.425 595.624C436.425 573.112 445.847 554.921 464.629 541.067C483.411 527.07 508.029 520.067 538.514 520.066C591.971 520.067 626.052 539.324 640.788 577.854L575.364 590.224C569.297 577.236 556.492 570.746 536.988 570.746C527.741 570.746 520.806 572.027 516.182 574.623C511.704 577.076 509.478 579.509 509.478 581.962C509.478 589.177 516.414 593.621 530.284 595.208C566.403 599.249 590.894 603.347 603.753 607.532C616.611 611.717 627.571 619.36 636.673 630.472C639.584 634.026 642.04 637.802 644.025 641.826C597.041 656.665 568.521 671.735 568.521 671.735C568.521 671.735 604.024 658.144 645.874 646.072C648.849 653.542 650.359 661.742 650.359 670.72C650.358 694.819 640.209 713.95 619.982 728.092C610.586 734.709 599.524 739.752 586.785 743.277H717.309C685.079 733.92 663.973 713.669 654.058 682.444L722.348 673.12C726.249 688.994 741.705 696.937 768.723 696.937C791.117 696.937 802.29 692.579 802.29 683.921C802.29 680.169 800.105 677.31 795.771 675.289C791.437 673.124 781.205 670.946 765.024 668.781C720.236 662.576 692.277 652.927 681.152 639.795C680.457 638.965 679.77 638.144 679.118 637.303C689.62 634.811 700.059 632.559 710.003 630.933C760.119 622.74 796.579 621.209 854.999 620.502C858.451 623.437 861.672 626.765 864.709 630.472C873.811 641.584 878.349 654.99 878.349 670.72C878.349 694.819 868.244 713.95 848.018 728.092C838.627 734.705 827.561 739.752 814.82 743.277H967.815C950.501 738.032 935.57 729.38 923.059 717.292C900.954 695.79 889.861 669.143 889.861 637.395C889.861 631.485 890.22 625.757 890.925 620.179C893.552 620.155 895.837 620.111 898.554 620.086C979.039 619.367 1058.88 624.224 1127.98 633.702C1128.03 635.557 1128.07 637.437 1128.07 639.333C1128.07 642.363 1127.99 646.548 1127.84 651.888H980.253C980.549 665.741 982.981 676.076 987.604 682.858C992.228 689.497 1001.05 692.828 1014.05 692.828C1032.83 692.828 1043.88 683.773 1047.2 665.734L1127.84 671.181C1123.07 692.827 1110.87 711.271 1091.22 726.568C1081.73 733.937 1070.61 739.485 1057.84 743.277H1220.96C1203.63 738.032 1188.71 729.379 1176.2 717.291C1154.1 695.789 1143.05 669.143 1143.05 637.395C1143.05 636.88 1143.09 636.383 1143.1 635.872C1176.43 640.891 1206.98 647.054 1233.49 654.195C1234 666.874 1236.43 676.465 1240.79 682.858C1245.41 689.497 1254.19 692.828 1267.19 692.828C1285.2 692.828 1296.13 684.483 1299.93 667.904C1346.39 674.844 1379.31 674.458 1379.31 674.458V671.089V651.888V651.565C1379.31 651.565 1316.93 652.483 1227.52 639.425C1199.37 635.314 1171.4 632.031 1143.33 629.271C1145 599.911 1155.79 574.844 1175.78 554.083C1197.6 531.427 1226.72 520.066 1263.12 520.066C1298.38 520.066 1326.8 530.741 1348.48 552.098C1365.05 568.323 1375.33 588.997 1379.31 614.132V435H1244.81C1218.83 436.979 1120.57 444.439 1031.76 450.462C934.971 456.975 898.568 462.751 831.974 473.448C760.825 484.877 698.757 502.911 670.564 511.758L680.32 517.481L658.681 521.543L653.873 542.959L643.331 523.712L621.461 525.743L636.534 509.819L627.842 489.649L647.677 499.065L664.183 484.525L662.288 499.249C691.271 491.615 762.17 473.772 827.859 463.894C912.676 451.139 958.172 447.965 1040.78 443.262C1112.94 439.153 1179.46 436.482 1220.82 435L137.741 435ZM766.55 520.066C820.006 520.067 854.087 539.324 868.824 577.854L803.4 590.224C797.332 577.236 784.529 570.746 765.024 570.746C755.777 570.746 748.841 572.027 744.218 574.623C739.739 577.076 737.514 579.509 737.514 581.962C737.514 589.177 744.45 593.621 758.32 595.208C794.439 599.249 818.93 603.347 831.789 607.532C835.608 608.775 839.262 610.341 842.747 612.194C795.69 612.502 751.305 616.136 704.548 625.948C694.544 628.048 684.957 630.323 675.835 632.687C668.261 621.314 664.461 608.959 664.461 595.624C664.461 573.112 673.837 554.921 692.619 541.067C711.401 527.07 736.065 520.067 766.55 520.066ZM1009.94 520.066C1045.19 520.067 1073.66 530.741 1095.33 552.099C1114.81 571.169 1125.56 596.413 1127.65 627.795C1071.72 622.682 1015.22 619.456 955.979 615.979C933.671 614.669 912.496 613.617 892.034 612.932C896.216 590.494 906.412 570.891 922.596 554.083C944.412 531.427 973.528 520.067 1009.94 520.066ZM1285.5 570.376C1266.06 574.635 1240.74 584.021 1233.21 608.594H1294.75C1293.7 588.434 1285.5 570.376 1285.5 570.376ZM1032.87 570.93C1012.35 576.838 994.546 584.558 980.021 608.594H1041.56C1040.52 588.432 1032.87 570.93 1032.87 570.93ZM298.133 574.207C288.164 574.207 280.887 578.859 276.264 588.239C271.641 597.619 269.328 613.078 269.328 634.58C269.328 659.834 271.725 676.572 276.495 684.797C281.263 692.879 288.413 696.937 297.949 696.937C311.385 696.937 319.518 690.02 322.407 676.166C325.44 662.169 326.985 647.563 326.985 632.41C326.985 611.774 324.888 596.915 320.696 587.824C316.507 578.732 308.969 574.207 298.133 574.207ZM0.327637 580.669V743.277H33.2938V580.669H0.327637ZM1379.31 677.551C1373.69 696.457 1362.04 712.802 1344.36 726.569C1334.87 733.939 1323.74 739.486 1310.98 743.277H1379.31V677.551Z" fill="#FF6600"/>
<path d="M1379.5 852.138H0V864.485H1379.5V852.138Z" fill="#FF6600"/>
</svg>
