<svg width="1587" height="1587" viewBox="0 0 1587 1587" fill="none" xmlns="http://www.w3.org/2000/svg">
<path d="M671.55 847.416V873.171H658.928V895.234H671.55V926.112C671.55 933.075 672.345 938.09 673.954 941.159C675.564 944.228 678.321 946.571 682.231 948.175C684.99 949.274 688.121 950.071 691.617 950.575C695.112 951.124 699.037 951.406 703.407 951.406C706.121 951.406 708.924 951.265 711.822 950.99C714.72 950.761 717.71 950.386 720.792 949.882V928.235H715.752C712.302 928.235 710.013 927.392 708.863 925.743C707.713 924.094 707.152 919.406 707.152 911.619V895.234H719.821V873.171H707.152V847.416H671.55ZM896.303 847.416V873.171H883.681V895.234H896.303V926.112C896.303 933.075 897.098 938.09 898.708 941.159C900.318 944.228 903.074 946.571 906.984 948.175C909.744 949.274 912.874 950.071 916.37 950.575C919.865 951.124 923.79 951.406 928.16 951.406C930.874 951.406 933.677 951.265 936.575 950.99C939.473 950.761 942.463 950.386 945.545 949.882V928.235H940.505C937.055 928.235 934.766 927.392 933.616 925.743C932.466 924.094 931.905 919.406 931.905 911.619V895.234H944.574V873.171H931.905V847.416H896.303ZM104.189 847.554V950.021H137.849L138.126 942.267C142.404 945.519 147.123 947.956 152.32 949.605C157.518 951.209 163.218 952.006 169.428 952.006C182.629 952.006 193.188 948.256 201.053 940.744C208.918 933.185 212.843 923.155 212.843 910.65C212.843 897.961 208.872 887.884 200.914 880.417C193.003 872.951 182.35 869.202 168.919 869.201C163.216 869.202 157.936 869.905 153.107 871.325C148.323 872.699 143.791 874.808 139.513 877.648V847.554H104.189ZM436.995 868.509C419.057 868.509 405.18 872.165 395.383 879.494C385.586 886.824 380.68 897.228 380.68 910.65C380.68 924.026 385.586 934.383 395.383 941.713C405.18 949.042 419.057 952.698 436.995 952.698C453.14 952.698 466.036 950.402 475.741 945.867C485.446 941.332 491.66 934.723 494.328 925.973H455.906C454.664 927.989 452.608 929.489 449.757 930.543C446.905 931.597 443.307 932.158 439.03 932.158C432.544 932.158 427.545 930.987 423.957 928.651C420.369 926.314 418.547 922.987 418.547 918.727H495.021V917.388C495.021 901.356 490.069 889.217 480.226 880.971C470.428 872.68 456.038 868.509 436.995 868.509ZM1168.08 868.509C1150.14 868.509 1136.31 872.165 1126.51 879.494C1116.72 886.824 1111.81 897.228 1111.81 910.65C1111.81 924.026 1116.72 934.383 1126.51 941.713C1136.31 949.042 1150.14 952.698 1168.08 952.698C1184.22 952.698 1197.17 950.402 1206.87 945.867C1216.58 941.332 1222.79 934.723 1225.46 925.973H1186.99C1185.75 927.989 1183.74 929.489 1180.89 930.543C1178.03 931.597 1174.44 932.158 1170.16 932.158C1163.67 932.158 1158.63 930.987 1155.04 928.651C1151.45 926.314 1149.68 922.987 1149.68 918.727H1226.1V917.388C1226.1 901.356 1221.2 889.217 1211.36 880.971C1201.56 872.68 1187.12 868.509 1168.08 868.509ZM1456.31 869.201C1451.71 869.202 1447.6 869.904 1443.92 871.278C1440.24 872.607 1437.07 874.576 1434.4 877.233L1433.98 871.186H1398.93V950.021H1434.86V909.311C1434.86 903.86 1435.51 900.017 1436.76 897.772C1438.04 895.528 1440.15 894.403 1443.14 894.403C1445.94 894.403 1448.04 895.387 1449.42 897.357C1450.8 899.281 1451.51 902.233 1451.51 906.219V906.772H1482.76V899.895C1482.76 889.268 1480.61 881.534 1476.33 876.633C1472.1 871.685 1465.42 869.202 1456.31 869.201ZM438.891 888.218C444.686 888.218 449.312 889.436 452.762 891.818C456.211 894.2 458.22 897.574 458.726 901.926H416.744C417.664 897.483 420.046 894.062 423.818 891.726C427.636 889.389 432.635 888.218 438.891 888.218ZM1170.02 888.218C1175.82 888.218 1180.44 889.436 1183.89 891.818C1187.34 894.2 1189.35 897.574 1189.86 901.926H1147.87C1148.79 897.483 1151.13 894.062 1154.9 891.726C1158.72 889.389 1163.76 888.218 1170.02 888.218ZM157.591 893.202C163.111 893.203 167.503 894.75 170.769 897.91C174.08 901.071 175.716 905.336 175.716 910.65C175.716 915.918 174.08 920.136 170.769 923.343C167.503 926.503 163.111 928.097 157.591 928.097C152.164 928.097 147.772 926.503 144.46 923.343C141.149 920.136 139.513 915.918 139.513 910.65C139.513 905.336 141.149 901.071 144.46 897.91C147.772 894.75 152.164 893.203 157.591 893.202ZM1116.29 975.027V991.136H1136.68V975.027H1116.29ZM312.204 977.196V999.213C308.862 995.297 304.64 993.351 299.49 993.351C293.316 993.351 288.354 995.787 284.602 1000.69C280.85 1005.59 278.961 1012.24 278.961 1020.58C278.961 1029.5 280.791 1036.29 284.509 1040.98C288.261 1045.65 293.163 1048 299.166 1048C305.681 1048 310.344 1045.33 313.175 1040.01V1046.94H332.317V977.196H312.204ZM987.804 977.75L968.431 978.073L968.108 994.967H960.34V1008.21H968.108V1024.6L968.062 1030.69C968.062 1036.58 969.521 1040.88 972.455 1043.57C975.422 1046.26 980.049 1047.58 986.326 1047.58C990.214 1047.58 994.183 1047.21 998.208 1046.43V1031.89C995.957 1032.47 994.02 1032.77 992.383 1032.77C991.325 1032.77 990.274 1032.55 989.285 1032.08C988.295 1031.57 987.805 1029.99 987.805 1027.37V1008.21H998.208V994.967H987.805L987.804 977.75ZM134.381 993.905C125.785 993.905 118.91 996.59 113.76 1001.94C108.609 1007.28 106.038 1013.84 106.038 1021.6C106.038 1029.09 108.633 1035.36 113.852 1040.43C119.071 1045.47 126.077 1048 134.843 1048C142.722 1048 148.964 1046.22 153.569 1042.65C158.208 1039.04 161.089 1034.65 162.215 1029.54L143.166 1028.29C142.381 1032.55 139.786 1034.66 135.352 1034.66C132.282 1034.66 130.201 1033.87 129.11 1032.31C128.019 1030.71 127.421 1028.28 127.353 1025.01H162.215C162.248 1023.75 162.261 1022.78 162.261 1022.06C162.261 1013.38 159.69 1006.51 154.539 1001.47C149.423 996.435 142.703 993.905 134.381 993.905ZM651.022 993.905C643.142 993.905 636.733 996.484 631.787 1001.66C626.876 1006.8 624.39 1013.35 624.39 1021.32C624.39 1029.12 626.888 1035.52 631.833 1040.52C636.813 1045.49 643.259 1048 651.206 1048C658.301 1048 664.004 1046.09 668.268 1042.28C672.565 1038.46 675.124 1033.52 675.943 1027.46L658.512 1025.98C657.83 1031.13 655.689 1033.69 652.039 1033.69C649.549 1033.69 647.791 1032.69 646.768 1030.65C645.779 1028.6 645.288 1025.44 645.288 1021.18C645.288 1016.25 645.779 1012.77 646.768 1010.8C647.791 1008.79 649.393 1007.8 651.576 1007.8C654.987 1007.8 657.068 1010.53 657.818 1016.01L675.665 1014.54C675.017 1008.58 672.483 1003.65 668.083 999.767C663.683 995.851 658.014 993.905 651.022 993.905ZM819.135 993.905C803.684 993.905 794.61 999.336 791.949 1010.2L810.582 1011.95C811.128 1008.17 813.735 1006.27 818.442 1006.27C820.454 1006.27 821.996 1006.63 823.019 1007.38C824.077 1008.13 824.591 1009.67 824.591 1011.95V1013.11C811.869 1013.79 803.02 1015.84 798.006 1019.24C793.026 1022.62 790.515 1027.06 790.515 1032.54C790.515 1036.59 792.057 1040.16 795.093 1043.29C798.163 1046.42 802.778 1048 808.918 1048C816.387 1048 821.925 1045.24 825.609 1039.69C825.609 1042.31 825.871 1044.73 826.348 1046.94H845.767C844.71 1044.15 844.195 1040.78 844.195 1036.83V1016.06C844.195 1010.44 843.848 1006.68 843.132 1004.71C842.45 1002.73 841.063 1000.85 839.017 999.075C836.97 997.304 834.208 996.015 830.694 995.197C827.181 994.346 823.331 993.905 819.135 993.905ZM1284.59 993.905C1276.1 993.905 1269.2 996.484 1263.88 1001.66C1258.59 1006.83 1255.97 1013.33 1255.97 1021.09C1255.97 1028.31 1258.52 1034.59 1263.6 1039.97C1268.68 1045.31 1275.5 1048 1284.13 1048C1292.86 1048 1299.87 1045.42 1305.12 1040.25C1310.41 1035.04 1313.07 1028.53 1313.07 1020.77C1313.07 1013.07 1310.43 1006.67 1305.21 1001.57C1300.03 996.46 1293.15 993.905 1284.59 993.905ZM1466.16 993.905C1458.96 993.905 1453.98 996.733 1451.18 1002.35V994.967H1432.27V1046.94H1452.66V1015.74C1452.66 1010.56 1454.54 1007.94 1458.26 1007.94C1459.52 1007.94 1460.53 1008.34 1461.35 1009.09C1462.21 1009.84 1462.65 1011.52 1462.65 1014.21V1046.94H1483.08V1013.66C1483.08 1007.97 1482.5 1003.99 1481.37 1001.71C1480.25 999.39 1478.36 997.551 1475.73 996.121C1473.14 994.656 1469.95 993.905 1466.16 993.905ZM454.426 994.967V1032.12C454.426 1037.23 455.8 1041.13 458.495 1043.89C461.224 1046.62 465.062 1048 470.008 1048C478.023 1048 483.381 1044.8 486.144 1038.4V1046.94H505.055V994.967H484.896V1026.12C484.896 1028.37 484.323 1030.12 483.231 1031.38C482.14 1032.61 480.717 1033.23 478.978 1033.23C477.34 1033.23 476.275 1032.85 475.695 1032.03C475.149 1031.18 474.863 1029.69 474.863 1027.65V994.967H454.426ZM1116.29 994.967V1046.94H1136.68V994.967H1116.29ZM134.566 1005.91C136.612 1005.91 138.334 1006.53 139.698 1007.75C141.096 1008.94 141.791 1011.31 141.825 1014.81H127.307C127.307 1008.89 129.722 1005.91 134.566 1005.91ZM306.425 1006.51C310.279 1006.51 312.204 1008.86 312.204 1013.52V1026.4C312.204 1029.12 311.607 1031.16 310.447 1032.49C309.322 1033.82 307.97 1034.48 306.332 1034.48C302.035 1034.48 299.859 1030.24 299.859 1021.83C299.859 1017.54 300.289 1013.95 301.108 1010.98C301.96 1008.02 303.73 1006.51 306.425 1006.51ZM1284.5 1006.69C1287.06 1006.69 1288.83 1007.73 1289.82 1009.88C1290.81 1012.02 1291.3 1015.53 1291.3 1020.4C1291.3 1023.97 1290.95 1027.43 1290.23 1030.74C1289.55 1034.01 1287.63 1035.63 1284.45 1035.63C1282.2 1035.63 1280.49 1034.68 1279.37 1032.77C1278.24 1030.83 1277.7 1026.87 1277.7 1020.91C1277.7 1015.83 1278.23 1012.23 1279.32 1010.01C1280.41 1007.8 1282.15 1006.69 1284.5 1006.69ZM824.591 1022.61V1025.11C824.591 1029.53 823.815 1032.4 822.28 1033.69C820.745 1034.99 818.914 1035.63 816.731 1035.63C813.287 1035.63 811.553 1034.05 811.553 1030.92C811.553 1026.29 815.894 1023.53 824.591 1022.61Z" fill="#808080"/>
<path d="M104.328 539V628.636H137.294C137.294 610.453 138.065 597 139.652 588.341C141.242 579.539 145.224 571.169 151.581 563.232C157.938 555.151 166.458 549.047 177.149 544.862C184.562 541.861 193.793 539.925 204.752 539H104.328ZM241.741 539C253.474 539.717 264.895 541.029 276.002 542.924V599.419C262.277 597.542 251.998 596.603 245.209 596.603C238.418 596.604 232.21 597.969 226.575 600.711C220.941 603.452 218.114 610.157 218.114 620.835V628.636H274.476V684.669H218.762V847.277H358.533C341 841.749 325.983 832.445 313.499 819.307C291.972 796.506 281.226 769.819 281.226 739.226C281.226 706.324 292.4 678.91 314.794 656.976C337.332 635.041 366.621 624.067 402.596 624.066C438.859 624.067 467.975 634.914 489.936 656.56C512.04 678.206 523.087 705.32 523.087 737.933C523.087 770.836 511.867 798.336 489.473 820.414C476.726 832.982 461.564 841.908 443.977 847.277H593.273C561.039 837.918 539.935 817.664 530.022 786.444L598.313 777.12C602.213 792.994 617.67 800.937 644.687 800.937C667.081 800.937 678.255 796.579 678.255 787.921C678.255 784.169 676.116 781.31 671.781 779.289C667.447 777.124 657.169 774.946 640.988 772.781C596.2 766.576 568.241 756.927 557.116 743.795C545.992 730.519 540.425 715.787 540.425 699.624C540.425 677.112 549.847 658.921 568.629 645.067C587.411 631.07 612.029 624.067 642.514 624.066C695.971 624.067 730.052 643.324 744.788 681.854L679.364 694.224C673.297 681.236 660.492 674.746 640.988 674.746C631.741 674.746 624.806 676.027 620.182 678.623C615.704 681.076 613.478 683.509 613.478 685.962C613.478 693.177 620.414 697.621 634.284 699.208C670.403 703.249 694.894 707.347 707.753 711.532C720.611 715.717 731.571 723.36 740.673 734.472C743.584 738.026 746.04 741.802 748.025 745.826C701.041 760.665 672.521 775.735 672.521 775.735C672.521 775.735 708.024 762.144 749.874 750.072C752.849 757.542 754.359 765.742 754.359 774.72C754.358 798.819 744.209 817.95 723.982 832.092C714.586 838.709 703.524 843.752 690.785 847.277H821.309C789.079 837.92 767.973 817.669 758.058 786.444L826.348 777.12C830.249 792.994 845.705 800.937 872.723 800.937C895.117 800.937 906.29 796.579 906.29 787.921C906.29 784.169 904.105 781.31 899.771 779.289C895.437 777.124 885.205 774.946 869.024 772.781C824.236 766.576 796.277 756.927 785.152 743.795C784.457 742.965 783.77 742.144 783.118 741.303C793.62 738.811 804.059 736.559 814.003 734.933C864.119 726.74 900.579 725.209 958.999 724.502C962.451 727.437 965.672 730.765 968.709 734.472C977.811 745.584 982.349 758.99 982.349 774.72C982.349 798.819 972.244 817.95 952.018 832.092C942.627 838.705 931.561 843.752 918.82 847.277H1071.82C1054.5 842.032 1039.57 833.38 1027.06 821.292C1004.95 799.79 993.861 773.143 993.861 741.395C993.861 735.485 994.22 729.757 994.925 724.179C997.552 724.155 999.837 724.111 1002.55 724.086C1083.04 723.367 1162.88 728.224 1231.98 737.702C1232.03 739.557 1232.07 741.437 1232.07 743.333C1232.07 746.363 1231.99 750.548 1231.84 755.888H1084.25C1084.55 769.741 1086.98 780.076 1091.6 786.858C1096.23 793.497 1105.05 796.828 1118.05 796.828C1136.83 796.828 1147.88 787.773 1151.2 769.734L1231.84 775.181C1227.07 796.827 1214.87 815.271 1195.22 830.568C1185.73 837.937 1174.61 843.485 1161.84 847.277H1324.96C1307.63 842.032 1292.71 833.379 1280.2 821.291C1258.1 799.789 1247.05 773.143 1247.05 741.395C1247.05 740.88 1247.09 740.383 1247.1 739.872C1280.43 744.891 1310.98 751.054 1337.49 758.195C1338 770.874 1340.43 780.465 1344.79 786.858C1349.41 793.497 1358.19 796.828 1371.19 796.828C1389.2 796.828 1400.13 788.483 1403.93 771.904C1450.39 778.844 1483.31 778.458 1483.31 778.458V775.089V755.888V755.565C1483.31 755.565 1420.93 756.483 1331.52 743.425C1303.37 739.314 1275.4 736.031 1247.33 733.271C1249 703.911 1259.79 678.844 1279.78 658.083C1301.6 635.427 1330.72 624.066 1367.12 624.066C1402.38 624.066 1430.8 634.741 1452.48 656.098C1469.05 672.323 1479.33 692.997 1483.31 718.132V539H1348.81C1322.83 540.979 1224.57 548.439 1135.76 554.462C1038.97 560.975 1002.57 566.751 935.974 577.448C864.825 588.877 802.757 606.911 774.564 615.758L784.32 621.481L762.681 625.543L757.873 646.959L747.331 627.712L725.461 629.743L740.534 613.819L731.842 593.649L751.677 603.065L768.183 588.525L766.288 603.249C795.271 595.615 866.17 577.772 931.859 567.894C1016.68 555.139 1062.17 551.965 1144.78 547.262C1216.94 543.153 1283.46 540.482 1324.82 539L241.741 539ZM870.55 624.066C924.006 624.067 958.087 643.324 972.824 681.854L907.4 694.224C901.332 681.236 888.529 674.746 869.024 674.746C859.777 674.746 852.841 676.027 848.218 678.623C843.739 681.076 841.514 683.509 841.514 685.962C841.514 693.177 848.45 697.621 862.32 699.208C898.439 703.249 922.93 707.347 935.789 711.532C939.608 712.775 943.262 714.341 946.747 716.194C899.69 716.502 855.305 720.136 808.548 729.948C798.544 732.048 788.957 734.323 779.835 736.687C772.261 725.314 768.461 712.959 768.461 699.624C768.461 677.112 777.837 658.921 796.619 645.067C815.401 631.07 840.065 624.067 870.55 624.066ZM1113.94 624.066C1149.19 624.067 1177.66 634.741 1199.33 656.099C1218.81 675.169 1229.56 700.413 1231.65 731.795C1175.72 726.682 1119.22 723.456 1059.98 719.979C1037.67 718.669 1016.5 717.617 996.034 716.932C1000.22 694.494 1010.41 674.891 1026.6 658.083C1048.41 635.427 1077.53 624.067 1113.94 624.066ZM1389.5 674.376C1370.06 678.635 1344.74 688.021 1337.21 712.594H1398.75C1397.7 692.434 1389.5 674.376 1389.5 674.376ZM1136.87 674.93C1116.35 680.838 1098.55 688.558 1084.02 712.594H1145.56C1144.52 692.432 1136.87 674.93 1136.87 674.93ZM402.133 678.207C392.164 678.207 384.887 682.859 380.264 692.239C375.641 701.619 373.328 717.078 373.328 738.58C373.328 763.834 375.725 780.572 380.495 788.797C385.263 796.879 392.413 800.937 401.949 800.937C415.385 800.937 423.518 794.02 426.407 780.166C429.44 766.169 430.985 751.563 430.985 736.41C430.985 715.774 428.888 700.915 424.696 691.824C420.507 682.732 412.969 678.207 402.133 678.207ZM104.328 684.669V847.277H137.294V684.669H104.328ZM1483.31 781.551C1477.69 800.457 1466.04 816.802 1448.36 830.569C1438.87 837.939 1427.74 843.486 1414.98 847.277H1483.31V781.551Z" fill="#FF6600"/>
<path d="M1483.5 956.138H104V968.485H1483.5V956.138Z" fill="#FF6600"/>
</svg>
