<svg width="1587" height="1587" viewBox="0 0 1587 1587" fill="none" xmlns="http://www.w3.org/2000/svg">
<path d="M770.177 121H811.635C833.512 122.279 855.417 123.616 877.149 126.609L900.681 224.088C930.822 230.055 960.531 238.026 989.611 247.949L1062.91 176.54C1110.3 196.768 1156.23 221.153 1197.31 252.367L1169.91 347.288C1193.79 366.702 1215.55 388.5 1236.62 410.908L1327.49 375.944C1360.35 415.674 1388.1 459.531 1411.95 505.219L1342.48 577.209C1353.35 602.901 1363.17 629.058 1370.17 656.087C1403.03 660.446 1435.98 664.254 1468.66 669.747C1479.12 718.224 1482.78 767.807 1484 817.244V821.051L1388.3 853.282C1385.92 881.27 1381.85 909.084 1376.33 936.607C1403.58 956.806 1432.29 975.174 1457.91 997.495C1444.29 1048.24 1423.08 1096.63 1398 1142.7L1301.52 1121.42C1284.32 1148.54 1265.67 1174.72 1245.59 1199.81L1188.16 1154.99L1112.74 1092.1C1124.01 1078.17 1136.09 1064.92 1146.12 1050.04C1193.94 978.633 1221.83 893.07 1220.41 806.81C1220.12 722.049 1194.23 639.353 1146.15 569.565C1091.59 489.67 1009.19 429.014 916.253 401.869C830.722 376.497 737.057 377.804 653.037 408.466C564.136 439.622 487.03 501.934 436.013 580.958C416.374 611.765 401.121 645.333 389.471 679.948C372.679 730.169 367.072 783.675 369.744 836.396C378.373 932.596 419.628 1024.52 481.859 1097.94L350.773 1204.57C331.308 1180.45 311.291 1156.62 294.76 1130.31C292.639 1128.02 291.07 1122.87 286.973 1124.41L188.892 1141.65C162.628 1094.92 142.989 1044.66 128.666 993.048L215.213 939.775C208.938 909.956 204.057 879.846 201.849 849.446L105.017 821.08L104 811.576V784.576C105.598 744.643 110.421 704.826 119.834 665.939L221.489 653.384C229.972 625.425 238.804 597.495 250.483 570.698C227.212 545.791 203.186 521.581 179.392 497.168C204.115 448.661 233.662 402.102 271.488 362.691L360.506 405.124C381.598 383.646 404.143 363.68 426.804 343.858L395.572 248.734C440.865 218.74 487.582 189.968 538.366 170.175L605.681 245.479C635.111 234.958 665.965 229.668 696.209 222.606C706.029 190.2 714.454 157.329 723.605 124.691C739.096 123.069 754.625 121.838 770.177 121ZM744.088 147.796C734.471 180.377 726.307 213.364 716.546 245.886C676.424 251.989 636.651 260.94 598.534 275.094C577.819 252.919 558.238 229.697 537.872 207.144C535.054 205.08 532.207 199.558 528.11 202.436C496.036 216.096 466.141 234.347 436.478 252.483C433.166 255.099 428.256 256.581 426.6 260.737C436.478 291.573 447.431 322.119 456.67 353.188C424.828 378.386 394.759 405.851 367.013 435.495C337.147 422.068 307.659 407.856 278.171 393.644C251.704 423.841 229.507 457.584 210.856 493.07C233.749 517.89 258.618 540.792 281.163 565.932C264.138 600.924 252.023 638.213 242.639 675.937C209.06 680.591 175.424 684.825 141.739 688.638C132.704 725.868 129.218 764.406 130.351 802.683L227.357 831.281C227.735 868.657 233.546 905.742 242.465 941.955C242.668 945.529 246.271 950.906 241.884 953.202C214.661 971.222 185.987 986.974 158.764 1005.02C169.397 1039.32 182.239 1072.97 198.189 1105.17C200.251 1107.88 201.007 1112.67 204.842 1113.37C237.991 1109.19 270.936 1100.26 303.882 1097.21C319.774 1122.06 335.608 1147.17 355.363 1169.23L435.897 1104.1C439.848 1100.96 443.48 1097.44 446.966 1093.81C377.385 1002.87 335.23 887.025 346.386 771.672C354.55 669.398 399.901 570.757 471.458 497.371C534.182 432.386 616.547 386.175 705.186 368.33C763.437 355.716 824.099 356.675 882.494 367.719C982.668 386.843 1075.11 442.151 1140.6 520.186C1199.55 589.997 1236.7 678.204 1244.43 769.318C1255.5 883.014 1219.39 999.5 1149.28 1089.31C1179.44 1115.38 1210.24 1140.72 1242.22 1164.52C1259.42 1141.85 1274.85 1117.93 1289.43 1093.55L1385.25 1114.27C1403.23 1079.89 1418.95 1044.2 1429.76 1006.88C1403.9 985.434 1374.97 968.112 1348.61 947.302C1358.32 910.363 1362.01 872.173 1365.9 834.275L1458.81 803.497C1458.22 766.084 1454.67 728.777 1448.21 691.922L1350.24 678.727C1342.6 641.584 1327.9 606.65 1313.84 571.628L1381.85 501.586C1363.72 468.308 1343.44 436.135 1320.23 406.17C1289.93 417.447 1260.09 430.177 1229.5 440.523C1203.06 409.949 1173.57 382.106 1141.91 356.966L1169.07 262.917C1137.78 241.003 1104.25 221.559 1068.78 207.435C1043.79 229.465 1021.25 254.169 996.904 276.925C958.99 263.701 920.234 252.861 880.635 246.06L857.887 150.616C820.322 144.541 781.972 146.896 744.088 147.796ZM812.245 281.808L821.426 281.43C821.542 295.671 820.438 309.854 820.176 324.095L810.589 324.328L812.245 281.808ZM753.297 283.232L763.175 282.389C768.608 291.283 774.099 300.147 780.345 308.488L779.328 281.721L788.015 281.692C788.422 295.875 789.758 309.999 789.613 324.182C786.185 323.165 781.13 324.88 778.951 321.276C773.227 312.964 768.288 304.129 762.391 295.933C763.437 305.785 763.814 315.667 764.279 325.577C759.602 325.897 753.878 325.083 754.953 318.98L753.297 283.232ZM830.374 281.953L839.525 283.523C845.394 292.503 848.793 302.792 852.715 312.731C854.429 303.547 855.301 294.247 855.969 284.947L864.772 285.121L861.112 327.234C857.919 327.459 854.71 327.164 851.611 326.362C846.614 316.975 843.07 306.861 837.753 297.648L834.993 325.868L826.8 323.892C827.062 309.854 829.27 295.933 830.374 281.953ZM721.165 287.214L732.234 285.15C738.974 298.636 745.453 312.266 752.774 325.461L742.606 326.827L739.003 318.98C734.239 319.445 729.474 319.736 724.797 320.695C723.315 323.456 722.182 326.362 721.368 329.414L712.275 330.983C715.006 316.364 718.405 301.862 721.165 287.214ZM725.436 312.441L734.82 311.365C732.722 306.712 730.493 302.118 728.138 297.589C727.034 302.501 726.191 307.471 725.436 312.441ZM692.403 291.777L701.613 290.178L709.573 332.291L699.87 332.756C697.807 319.009 694.756 305.466 692.403 291.777ZM870.96 301.048C871.222 286.603 891.065 284.54 899.781 292.707C903.616 296.02 903.557 301.542 905.155 305.96C896.178 307.18 893.621 297.095 885.864 295.729L878.979 300.874C885.341 304.768 892.372 307.587 898.56 311.83C905.155 316.423 902.802 327.728 896.062 331.129C884.15 337.319 866.138 329.792 866.748 314.94L875.638 316.393C876.626 324.618 894.29 329.472 892.198 318.457C885.109 313.08 871.425 311.83 870.96 301.048ZM909.92 301.891L910.937 293.608L944.696 301.92L943.389 309.999L930.489 307.151C928.012 318.434 925.154 329.63 921.919 340.72L912.941 337.464C915.992 326.508 918.984 315.492 921.367 304.361L909.92 301.891ZM650.364 301.716C659.777 299.624 669.277 295.555 679.097 297.27C690.747 302.617 693.739 318.573 690.108 329.792C684.268 340.022 670.991 339.789 660.997 342.986L650.364 301.716ZM661.549 306.773L668.26 333.25C671.747 332.088 675.349 331.041 678.69 329.414C684.849 323.979 682.089 314.214 678.254 308.168C674.216 302.327 667.069 306.076 661.549 306.773ZM949.432 303.925L958.496 306.512L945.829 347.259L936.765 344.352L949.432 303.925ZM632.09 307.384L641.009 305.03C645.105 318.486 650.189 331.623 654.402 345.05L645.28 347.753C637.319 340.574 629.272 333.483 620.904 326.74L630.085 353.159L621.689 356.588L607.54 316.713C610.707 315.347 613.932 314.068 617.157 312.761C624.78 319.907 632.688 326.743 640.864 333.25C638.075 324.589 635.024 316.016 632.09 307.384ZM963.115 307.849L995.683 319.736L992.923 327.641L981.215 323.252C976.451 333.773 974.446 345.66 968.112 355.338L961.024 352.432C963.261 341.243 968.461 330.925 972.122 320.201L960.472 315.405L963.115 307.849ZM524.711 327.612C526.745 322.38 533.485 322.671 537.93 321.131C535.722 324.996 532.207 328.222 530.87 332.553C533.369 335.43 536.361 337.813 539.325 340.196L548.563 334.471L551.498 340.632L544.728 344.498L549.929 353.391C544.99 356.879 537.146 358.506 536.565 365.685C542.753 364.057 547.547 358.623 553.938 358.129C562.218 361.907 560.039 372.137 558.093 379.17L568.668 378.938L566.518 385.826C556.989 384.198 547.401 384.257 537.814 384.954L537.727 377.368L551.585 375.944L552.747 366.121C545.28 372.341 532.875 374.026 526.745 365.162C523.781 355.368 542.288 357.024 538.86 348.276C530.696 351.676 523.317 356.675 515.792 361.267C522.677 371.323 529.098 381.699 535.954 391.784L528.895 396.725L524.508 388.587C519.627 392.685 514.746 398.701 507.57 397.19C499.319 396.87 494.032 385.884 498.738 379.112C501.731 374.375 508.384 368.243 513.032 374.578L505.159 381.234L518.349 380.449L508.994 365.54L485.2 382.716C491.882 391.406 498.709 399.951 505.507 408.554C511.986 406.316 521.021 406.461 523.52 414.308C524.711 426.602 509.894 435.379 498.941 431.862L498.738 427.038C506.989 426.747 515.443 423.87 517.041 414.715C512.015 414.076 508.413 417.36 504.665 420.034C499.203 414.686 494.874 408.379 490.197 402.363L482.469 408.757L485.2 417.534C479.632 417.631 474.063 417.641 468.494 417.563L470.179 408.67L463.788 400.794C460.999 404.456 452.748 409.28 452.922 401.346C477.413 379.054 504.723 359.698 533.659 343.568C529.505 339.208 521.719 334.762 524.711 327.612ZM506.059 386C503.706 391.987 518.639 391.581 516.547 385.71C513.003 383.762 509.517 383.879 506.059 386ZM469.453 394.865L477.588 404.514L485.955 396.899C483.573 394.051 481.277 391.145 478.721 388.5C475.467 390.389 472.504 392.656 469.453 394.865ZM591.125 322.003L600.103 320.956C606.029 333.308 610.62 346.242 616.024 358.826L607.192 362.459C601.846 348.974 595.541 335.866 591.125 322.003ZM1001.29 322.177L1010.15 326.478C1005.18 336.331 1000.42 346.329 997.136 356.908C1000.76 359.983 1005.2 361.932 1009.92 362.517C1014.92 353.275 1018.52 343.364 1023.63 334.209C1026.39 331.506 1029.88 336.389 1032.84 337.116C1027.93 346.242 1024.5 356.123 1019.25 365.104C1010.94 379.665 983.162 366.906 988.74 350.979C991.936 340.981 997.252 331.826 1001.29 322.177ZM1034.09 346.648L1038.65 339.47C1048.21 345.37 1058.5 350.049 1067.94 356.181L1065.35 363.592L1053.53 357.605L1036.68 387.686C1034.03 386.058 1031.45 384.344 1028.92 382.6C1033.66 372.311 1039.84 362.808 1045.13 352.81L1034.09 346.648Z" fill="#004F9F"/>
<path d="M1050.83 394.516C1057.94 382.484 1066.17 371.149 1073.78 359.465L1100.19 377.049L1095.28 383.646C1089.23 379.577 1083.13 375.625 1077 371.759L1072.91 378.792L1089.64 389.168L1085.69 396.289C1079.94 392.714 1074.45 388.703 1068.4 385.651C1066.25 388.006 1064.42 390.621 1062.53 393.15C1068.05 396.841 1073.75 400.329 1079.12 404.281C1084.58 405.444 1078.69 414.192 1075.29 411.082C1066.69 406.345 1058.12 401.142 1050.83 394.516ZM465.589 373.067L473.114 366.876L478.372 374.026L470.906 379.49L465.589 373.067ZM1113.14 400.735C1125.37 393.005 1142.86 403.438 1143.42 417.447C1143.62 427.154 1137 435.466 1129.12 440.407C1117.07 447.498 1099.6 437.297 1099.69 423.376C1098.79 413.901 1105.5 405.473 1113.14 400.735ZM1116.05 410.21C1111.95 413.465 1109.22 418.319 1108.18 423.405C1108.5 426.468 1110.02 429.278 1112.41 431.217C1114.8 433.157 1117.87 434.069 1120.93 433.751C1128.42 430.729 1135.6 422.969 1133.86 414.337C1131.68 406.548 1121.54 404.891 1116.05 410.21ZM1126.91 453.195C1137.29 443.342 1146.29 432.153 1157.16 422.795L1178.8 444.592L1171.77 449.765L1157.3 435.263L1152.89 440.93C1154.63 446.452 1160.7 449.678 1164.51 453.892L1159.02 460.286L1146.41 447.644L1133.25 460.257L1126.91 453.195ZM407.048 441.802C411.086 438.314 414.863 430.293 421.226 434.158L418.698 440.988C426.862 449.388 435.578 457.293 444.032 465.402L438.774 472.202C433.922 467.349 429.419 462.059 423.782 458.107C421.293 460.017 418.88 462.024 416.548 464.123L420.674 474.527C415.415 473.714 407.106 477.376 404.027 471.708C405.77 463.919 414.108 459.414 417.827 452.468C415.99 450.199 414.081 447.989 412.103 445.842L390.256 470.546L418.814 493.913L414.369 500.685C404.608 493.099 395.078 485.223 385.491 477.405L379.68 483.944C389.355 491.326 398.913 498.883 408.878 505.858L405.043 512.949L395.398 506.265C393.945 513.792 390.837 521.93 383.486 525.505C377.182 527.772 369.221 526.028 365.357 533.119L361.087 526.696L370.848 520.622C371.371 517.222 374.073 513.443 371.575 510.246C369.919 505.015 361.348 502.748 361.348 510.188L371.691 515.303C365.212 520.593 357.223 520.36 353.33 512.542C355.392 507.456 356.816 500.975 362.772 499.028C367.507 498.272 373.144 498.301 376.601 502.167C381.395 506.672 380.058 513.821 380.93 519.692C386.304 514.897 390.401 507.689 386.856 500.452C383.603 496.935 379.622 494.145 375.962 491.094C372.737 492.576 368.815 497.284 366.316 492.314C377.298 473.743 392.987 458.194 407.048 441.802ZM765.006 485.92C774.913 469.587 783.861 452.323 797.341 438.576C809.979 454.328 821.048 471.33 829.822 489.582C847.457 470.749 873.314 457.583 899.606 464.094C894.29 479.003 891.036 494.552 889.38 510.305C905.998 499.871 927.061 491.326 946.497 498.883C941.646 511.845 938.304 525.272 936.067 538.932C954.516 532.741 977.555 525.563 994.725 538.67C985.021 550.819 975.724 563.549 971.337 578.691C988.188 572.268 1007.77 569.914 1024.65 577.499C1029.82 579.621 1033.31 584.097 1035.95 588.834C1005.85 600.982 994.899 633.708 978.455 658.79C967.88 676.169 950.913 689.219 931.361 694.857C937.113 699.42 943.214 703.722 947.834 709.534C956.84 720.055 961.866 733.715 972.819 742.579C981.157 750.339 993.388 748.915 1003.82 751.037C998.705 770.277 982.929 784.402 966.747 794.748C940.048 811.518 906.259 809.919 877.178 800.793C870.728 798.992 865.644 794.574 860.821 790.156C851.989 805.88 833.424 809.658 817.562 814.25C805.011 841.657 802.571 873.394 808.788 902.748C823.43 899.202 838.073 894.988 853.296 894.93C879.822 893.709 903.238 908.764 929.066 911.874C939.612 913.56 950.274 912.252 960.791 911.147L1022.38 1015.43C1017.59 1025.63 1011.52 1036.32 1012.8 1048.01C1013.99 1057.02 1022.3 1062.07 1028.05 1068.15H830.432C817.475 1076.95 802.716 1084.48 786.505 1082.82C773.286 1082.71 762.1 1075.36 751.351 1068.58C738.103 1066.35 724.535 1068.53 711.142 1068.47C659.806 1068.47 608.441 1068.47 557.105 1068.44C560.533 1062.25 566.779 1056.06 564.949 1048.36C561.87 1036.06 553.183 1026.35 546.384 1015.98C574.42 979.185 603.705 943.379 632.671 907.311C661.781 910.246 691.299 907.834 719.712 901.149C735.314 897.633 751.525 897.604 767.214 900.568C762.681 870.924 764.657 840.116 775.958 812.157C765.296 808.524 754.372 805.298 744.698 799.486C738.161 795.475 733.222 789.488 727.237 784.809C703.385 791.609 678.865 801.84 653.502 796.027C626.599 789.226 599.435 772.893 588.482 746.212C597.343 740.632 607.017 735.197 611.985 725.519C618.755 712.673 627.848 701.28 638.743 691.689C626.337 687.562 614.339 681.285 605.768 671.171C589.47 652.396 585.78 626.471 571.108 606.65C565.675 597.96 556.698 592.612 548.476 586.945C557.308 564.915 584.211 562.066 604.228 568.373C600.132 555.237 592.636 543.669 583.136 533.817C577.79 529.806 584.734 525.795 588.569 524.691C608.354 518.559 630.23 525.534 644.728 539.804C643.827 523.18 638.336 507.456 632.99 491.849C655.855 485.165 680.782 494 696.79 511.031C699.782 493.07 704.111 474.469 698.591 456.537C723.751 455.084 750.276 464.646 765.006 485.92ZM796.586 463.977C789.729 471.214 783.628 479.207 779.038 488.1C759.544 525.737 749.114 569.39 756.784 611.62C760.125 629.319 765.993 647.687 778.922 660.824C785.081 665.823 792.635 672.449 801.205 669.717C812.884 664.341 820.699 653.18 825.174 641.439C840.194 603.482 840.426 560.352 827.933 521.639C821.31 500.772 813.233 479.061 796.586 463.977ZM716.604 470.517C714.686 489.204 712.711 507.892 709.166 526.348C704.809 553.667 698.184 582.498 708.091 609.411C716.517 637.05 737.841 663.672 768.376 666.55C747.69 641.729 739.904 608.713 741.531 576.947C743.332 554.103 748.62 531.695 756.29 510.13C752.629 490.803 735.691 474.818 716.604 470.517ZM835.807 505.683C845.627 536.113 852.541 568.402 848.299 600.459C846.091 624.931 837.463 648.879 822.501 668.468C826.626 670.095 831.216 672.769 835.313 669.398C856.899 658.499 869.973 635.655 873.779 612.375C882.959 567.734 865.499 521.436 879.792 477.405C861.286 478.306 847.079 492.343 835.807 505.683ZM653.676 504.695C658.876 535.444 655.187 566.92 661.346 597.553C665.326 618.479 675.698 637.98 690.166 653.5C704.373 668.526 725.378 675.966 745.889 674.658C728.486 663.091 710.619 650.187 701.729 630.511C686.128 599.587 689.788 563.956 694.495 530.881C684.936 517.658 671.863 502.37 653.676 504.695ZM888.595 533.555C890.455 570.35 893.709 609.556 876.219 643.502C870.147 656.755 858.816 666.055 848.677 676.053C869.682 674.222 888.421 661.115 898.706 642.95C916.021 614.555 917.88 580.58 921.977 548.465C923.168 535.88 926.422 523.47 925.579 510.77C911.256 513.327 895.742 520.419 888.595 533.555ZM601.439 535.473C605.536 544.861 611.579 553.376 614.687 563.2C622.59 589.531 628.429 616.938 641.532 641.322C655.797 665.823 682.554 683.9 711.549 682.767C700.596 675.007 688.859 668.09 679.852 657.976C655.361 632.167 645.861 595.751 645.861 560.904C638.278 544.425 619.481 533.875 601.439 535.473ZM933.743 556.108C929.472 576.976 927.613 598.454 921.832 619.06C914.537 643.018 900.215 664.231 880.722 679.948C902.686 679.279 919.507 663.149 931.39 646.205C946.41 627.081 951.291 602.813 957.741 579.94C961.053 567.414 967.59 556.167 973.313 544.658C959.164 542.972 945.132 547.913 933.743 556.108ZM566.779 582.556C571.515 588.369 576.832 593.658 581.19 599.762C595.106 620.658 599.173 647.251 616.75 665.823C629.649 679.541 649.318 683.842 667.505 682.651C657.046 674.6 646.18 666.724 638.22 656.029C623.432 637.719 619.655 613.887 612.102 592.263C601.817 578.981 581.741 575.552 566.779 582.556ZM969.187 599.907C958.874 608.83 957.683 623.245 951.146 634.551C939.321 655.331 923.081 673.786 902.86 686.72C913.559 687.604 924.316 685.985 934.28 681.989C944.245 677.994 953.142 671.733 960.268 663.701C973.662 648.85 980.605 629.784 990.541 612.724C995.567 603.947 1001.93 596.013 1007.42 587.497C993.504 584.562 979.443 590.752 969.187 599.907ZM779.299 683.668C759.195 686.749 743.303 702.327 735.198 720.317C726.918 738.54 741.734 760.337 760.561 763.331C772.734 766.15 784.558 761.122 795.772 757.111C802.687 758.419 808.614 763.796 815.964 764.319C834.79 768.707 858.294 754.844 858.381 734.238C857.916 716.626 845.801 701.338 831.623 691.951C816.429 681.575 796.934 680.384 779.299 683.668ZM653.327 698.926C630.23 707.384 627.005 736.215 607.133 748.421C633.659 757.315 663.06 754.873 689.556 747.084C700.363 742.899 713.844 739.266 718.87 727.612C724.651 715.899 730.259 703.954 738.277 693.52C710.009 693.898 680.695 689.946 653.327 698.926ZM856.638 694.915C863.697 709.186 872.006 723.514 872.994 739.818C874.127 745.108 872.791 752.345 878.253 755.6C908.874 771.41 948.27 779.577 979.85 761.936C973.371 755.832 965.498 751.328 959.629 744.556C949.286 732.436 941.965 717.788 929.995 707.064C924.388 701.803 916.486 699.972 909.019 699.624C891.472 699.101 874.069 696.775 856.638 694.915ZM713.466 771.236C724.099 766.964 720.584 754.844 720.09 745.835C708.876 749.438 714.425 762.517 713.466 771.236ZM697.051 755.571L697.109 778.792L706.261 775.566C706.232 767.748 706.145 759.959 705.825 752.141L697.051 755.571ZM682.38 757.838C682.085 766.69 682.065 775.549 682.322 784.402C685.169 782.745 691.502 782.919 690.456 777.979C690.776 771.12 690.515 764.261 690.456 757.431L682.38 757.838ZM615.094 762.255C617.854 767.022 622.241 770.422 626.686 773.561L627.035 763.592L615.094 762.255ZM665.529 761.354C664.919 769.579 664.977 777.833 666.11 786L675.465 783.733C675.407 775.886 675.146 768.039 674.187 760.25L665.529 761.354ZM633.862 763.854L633.717 777.397L643.304 781.205L643.275 763.825L633.862 763.854ZM650.19 763.476V783.559L658.905 784.402V762.866L650.19 763.476ZM738.161 767.516L738.539 776.758L746.034 784.053L745.86 770.132L738.161 767.516ZM845.888 770.044C845.845 776.545 845.903 783.047 846.062 789.546C848.793 786.988 851.844 784.692 854.11 781.67C854.72 776.584 854.168 771.439 853.907 766.353L845.888 770.044ZM873.139 770.335C872.965 774.549 872.181 779.287 873.982 783.268C876.8 785.477 879.938 787.221 883.017 789.11L883.598 772.224C880.17 771.439 875.87 765.481 873.139 770.335ZM754.895 772.34L754.43 790.156L763.175 795.533C763.466 788.064 763.495 780.594 763.35 773.154L754.895 772.34ZM790.775 775.741C790.688 784.692 790.223 793.644 789.787 802.595L802.019 803.002L802.077 774.52L795.801 771.236L790.775 775.741ZM810.299 775.421L809.95 802.305L821.251 800.59C821.397 791.551 821.629 782.425 820.031 773.503L810.299 775.421ZM828.485 772.718L828.456 798.497L838.683 795.562L838.625 771.846L828.485 772.718ZM771.397 774.695C771.368 782.629 771.455 790.592 771.775 798.527L782.64 801.055C782.786 792.598 782.786 784.111 782.757 775.625L771.397 774.695ZM890.397 775.654C890.513 780.943 890.106 786.291 891.094 791.551L900.856 794.022L900.768 778.676L890.397 775.654ZM951.988 786.523C959.164 787.076 964.307 781.989 968.606 777.02C962.128 778.386 952.598 777.688 951.988 786.523ZM907.886 781.176L907.77 794.4L916.98 796.986C917.212 791.784 917.27 786.581 917.212 781.408L907.886 781.176ZM924.388 782.774L924.592 796.521L932.755 795.01L932.784 782.978L924.388 782.774ZM940.048 782.135L939.67 793.731L946.672 791.842L946.003 781.234L940.048 782.135ZM789.933 813.349C777.004 841.075 775.464 873.045 781.246 902.806C782.234 910.13 791.356 911.758 797.341 912.717C794.552 897.022 791.472 881.183 792.286 865.14C792.431 847.557 797.98 830.7 802.832 813.988L789.933 813.349ZM798.707 920.622C799.317 951.778 794.93 982.731 795.278 1013.89C806.144 1009.21 816.109 1002.41 827.614 999.239C842.518 994.617 858.323 994.559 873.808 994.734C918.694 995.228 961.924 1012.03 1006.98 1010.2C992.197 979.563 972.47 951.516 955.475 922.046C934.324 924.11 913.174 920.215 893.447 912.63C863.058 900.132 826.394 902.486 798.707 920.622ZM717.04 911.758C690.747 918.181 663.496 919.14 636.564 917.687L578.081 991.072C573.2 997.03 568.523 1003.16 564.571 1009.82C610.097 1011.79 654.083 996.768 699.318 994.559C729.009 991.246 759.689 996.681 785.197 1012.58L789.381 920.942C768.347 906.439 741.095 906.061 717.04 911.758ZM600.945 1016.1C587.232 1017.58 573.432 1016.97 559.691 1017.46C566.227 1023.24 575.234 1021.62 583.252 1021.62C619.248 1019.23 654.838 1012.9 690.602 1008.31C710.88 1006.27 731.74 1006.01 751.525 1011.56C760.822 1014.09 769.305 1018.83 778.399 1021.88C777.469 1018.07 774.854 1015.28 771.31 1013.77C754.866 1004.67 735.75 1001.68 717.156 1001.59C677.877 1000.84 639.731 1011.85 600.945 1016.1ZM804.023 1018.89C805.273 1021.5 806.87 1023.91 808.817 1026.12C827.759 1013.04 850.769 1006.13 873.808 1007C917.968 1006.16 960.414 1024 1004.6 1021.33L1010.3 1017.98C965.178 1019.67 921.657 1004.85 876.916 1001.91C851.844 1000.63 824.941 1003.92 804.023 1018.89ZM603.328 1025.69C591.416 1027.02 579.359 1026.85 567.564 1029.06C576.657 1030.92 585.983 1030.45 595.193 1030.31C641.59 1027.23 687.493 1012.75 734.268 1018.77C747.342 1019.82 759.486 1025.25 772.065 1028.51C764.134 1019.23 751.409 1016.85 740.049 1014.53C694.117 1007.64 648.853 1021.94 603.328 1025.69ZM837.811 1017.9C828.166 1021.5 816.835 1024.7 811.315 1034.2C824.912 1030.71 836.882 1022.55 850.885 1020.28C893.418 1010.31 935.719 1025.92 978.019 1029.03C987.071 1030.24 996.275 1029.53 1005.04 1026.97C968.519 1028.94 933.307 1017.46 897.311 1013.65C877.468 1013.16 856.957 1011.39 837.811 1017.9ZM571.457 1035.95C587.465 1040.71 604.577 1040.25 621.137 1039.55C647.691 1038.74 673.199 1029.96 699.724 1028.8C721.833 1028.53 743.39 1034.23 764.424 1040.57L767.475 1034C748.997 1025.45 728.486 1021.97 708.208 1022.26C662.304 1023.77 617.592 1038.39 571.457 1035.95ZM790.368 1020.95C781.13 1032.4 769.538 1044.49 769.247 1060.07C770.903 1069.22 781.595 1072.01 789.671 1071.2C798.155 1071.23 811.461 1070.41 812.971 1059.78C810.822 1044.66 801.379 1031.18 790.368 1020.95ZM848.968 1026.59C837.928 1029.99 824.68 1032.25 817.765 1042.51C828.485 1039.26 838.886 1034.93 849.955 1032.81C881.681 1026.01 914.336 1029.73 946.091 1034.2C962.592 1037.25 979.211 1040.71 996.09 1039.35C1000.04 1039.75 1003.41 1037.66 1005.79 1034.73C953.121 1038.47 901.379 1013.94 848.968 1026.59ZM644.379 1042.92C621.021 1046.73 597.198 1046.09 573.752 1043.44L577.267 1046.82C611.085 1052.98 645.396 1047.14 679.068 1042.92C706.9 1039.49 734.675 1044.81 761.664 1051.2L760.357 1045.45C744.698 1039.75 728.138 1036.56 711.607 1034.96C688.859 1033.18 666.633 1039.46 644.379 1042.92ZM842.198 1040.31C834.296 1043.07 824.883 1044.26 819.508 1051.44C841.472 1048.21 862.942 1040.68 885.458 1041.9C920.582 1040.07 955.01 1049.78 990.047 1049C994.434 1048.68 999.576 1048.97 1002.92 1045.51C991.035 1045.01 979.036 1045.74 967.299 1043.39C926.19 1036.67 883.192 1028.45 842.198 1040.31ZM673.199 1049.14C640.747 1053.94 607.627 1057.71 574.972 1052.51L574.914 1058.7L705.389 1058.73C723.867 1059.37 742.315 1056.26 760.735 1059.02C754.111 1053.91 745.569 1053.21 737.696 1051.52C716.517 1047.11 694.64 1047.4 673.199 1049.14ZM838.683 1053.44C834.354 1054.28 830.403 1056.23 826.626 1058.44L1003.44 1058.47L1005.97 1054.14C989.844 1054.14 973.633 1055.39 957.625 1052.98C918.316 1047.28 877.701 1044.05 838.683 1053.44ZM1191.64 458.572L1214.1 485.339L1206.87 490.28C1204.46 487.228 1202.19 484.06 1199.31 481.474C1190.05 487.897 1181.97 495.802 1173.08 502.719L1166.8 495.569L1193.15 473.481L1185.22 463.803L1191.64 458.572ZM1182.75 515.042C1194.23 506.526 1205.73 498.011 1217.7 490.193L1236.09 516.35L1228.74 519.895C1223.4 515.013 1221.04 505.48 1214.07 503.475C1206.05 509.665 1218.92 517.338 1221.63 523.47L1214.83 528.498C1210.99 522.892 1207.02 517.369 1202.94 511.932L1195.13 518.21L1208.2 535.473L1202.02 541.722L1182.75 515.042ZM343.19 526.057C345.166 522.366 348.158 519.43 351.79 517.367L351.528 527.423C356.671 531.811 362.104 536.462 363.789 543.35L380.232 541.257L379.535 548.494C368.553 550.761 357.223 550.732 346.067 551.313C345.137 544.687 350.715 542.972 355.828 541.286C353.082 538.812 350.138 536.566 347.025 534.572C341.215 539.281 338.861 547.157 335.027 553.435C346.27 558.899 357.281 564.798 368.234 570.844L364.05 576.86C357.891 575.029 352.487 571.396 346.589 568.925L342.522 576.191C340.998 574.536 339.497 572.86 338.019 571.163C345.137 564.944 334.242 563.2 331.163 559.945C329.478 563.258 327.763 566.542 326.311 570.001C331.715 574.796 338.222 578.807 340.837 585.957L357.223 581.655L356.903 589.328C346.125 592.757 334.794 593.775 323.638 595.083C322.766 588.398 328.925 586.422 333.574 583.719L322.127 578.458L314.603 595.315L309.78 591.304C318.757 568.548 330.465 546.924 343.19 526.057ZM1209.6 553.9C1205.65 533.788 1237.4 518.82 1249.55 535.88C1256.11 543.902 1254.31 555.353 1246.84 562.066L1242.37 554.248C1245.91 548.058 1244.61 538.758 1236.59 537.304C1228.34 538.06 1216.51 544.018 1219.04 554.016C1219.71 559.829 1226.54 560.817 1231.27 560.206L1236.15 568.955C1224.73 572.965 1211.25 566.281 1209.6 553.9ZM311.232 550.092L316.142 541.722L323.58 546.518L319.077 554.277L311.232 550.092ZM1228.6 577.761L1263.11 560.991L1267.06 569.158L1253.06 576.714L1259.83 590.171L1273.8 583.428L1278.13 591.798C1265.73 598.483 1252.92 604.325 1240.25 610.457L1235.43 602.523L1252.51 593.949L1245.71 579.853L1228.42 588.456C1227.61 584.852 1222.5 579.301 1228.6 577.761ZM1242.22 616.56L1282.06 600.953L1285.19 609.847C1279.76 618.973 1271.94 626.5 1265.9 635.248C1274.36 631.993 1282.64 628.186 1291.38 625.686L1295.13 633.301L1254.72 648.908L1251.87 639.666C1258.8 631.587 1265.52 623.32 1272 614.875C1263.43 617.824 1255.01 621.179 1246.76 624.931L1242.22 616.56ZM290.692 636.672L295.747 631.557C297.287 634.26 298.653 637.079 299.844 639.986C310.535 643.938 321.575 646.903 331.976 651.553L330.436 659.109C318.408 655.186 306.584 650.681 294.469 647.019L288.165 671.025L294.876 673.321C294.963 666.172 297.926 656.319 306.875 657.162C314.806 656.871 328.054 667.915 319.106 674.833C314.196 671.142 309.693 662.364 302.546 665.678C299.553 678.349 315.794 676.954 323.318 680.645L322.185 688.085L312.918 685.877C312.888 692.154 311.407 700.176 303.998 701.513C293.685 705.088 284.272 693.956 288.688 684.162L293.975 682.505C295.079 687.097 294.498 695.264 301.645 694.538C307.136 694.857 306.352 687.737 305.102 684.365C299.059 681.43 292.261 680.587 285.753 679.076C283.859 687.376 281.777 695.632 279.507 703.838C291.539 706.695 303.638 709.263 315.794 711.54L314.632 719.474C302.342 717.294 290.169 714.475 277.88 712.179L275.933 722.119C283.371 723.368 290.925 724.328 298.217 726.391C300.686 733.919 284.475 745.108 285.143 731.884L274.655 730.344L273.057 742.318L310.128 746.212L308.531 753.594C296.183 753.507 283.981 751.386 271.721 750.281L271.692 760.977L307.979 762.808L308.182 770.829L271.14 768.94L270.065 779.316C282.412 779.577 294.76 779.199 307.078 778.327L307.485 786.552C305.364 786.552 301.151 786.494 299.03 786.465C303.533 794.341 308.037 804.775 302.168 813.174C299.466 817.447 294.208 815.703 290.053 816.023C285.637 817.534 280.408 822.359 276.021 818.057C274.161 813.581 274.917 808.582 274.51 803.903L270.907 804.397L270.965 827.125C283.603 827.212 296.154 825.556 308.705 824.19L308.385 832.618L272.389 836.018L272.999 844.592C285.434 843.662 297.694 840.901 310.157 840.552C315.213 850.957 301.994 848.37 296.503 850.23C301.442 856.712 315.59 861.187 309.722 870.982C305.829 867.378 302.11 863.6 298.565 859.676C297.403 870.197 286.77 871.359 278.577 873.568L276.66 880.166L272.36 878.771C269.193 868.395 269.629 857.264 266.259 846.917C263.499 850.724 259.635 862.553 254.783 853.485C259.054 847.498 264.225 842.122 267.537 835.466C261 839.361 255.364 844.534 249.902 849.794L246.125 842.499L265.387 830.148C264.545 809.687 263.557 789.168 264.516 768.707C258.792 773.532 253.301 778.618 247.898 783.82L243.743 776.729C252.895 769.492 268.351 765.016 266.027 750.485C259.722 750.601 250.193 750.659 248.711 742.608C243.714 725.229 260.797 713.545 272.796 704.681C275.382 691.479 278.689 678.43 282.703 665.59C275.73 665.416 264.923 665.213 264.458 655.912C264.138 642.02 278.548 635.364 290.692 636.672ZM269.774 654.924C274.452 657.424 279.652 658.063 284.882 658.121L288.717 644.548C280.349 642.747 271.75 646.031 269.774 654.924ZM254.26 737.493C254.231 743.945 261.988 742.841 266.288 743.626C267.479 734.093 268.99 724.589 270.384 715.085C263.673 721.073 253.476 727.234 254.26 737.493ZM269.861 787.337L271.634 796.201L280.233 795.998C281.57 801.404 277.677 810.733 285.027 812.477C285.811 806.664 282.499 798.352 290.169 796.143C291.186 800.503 289.792 806.693 295.195 808.553C302.575 802.595 295.399 793.353 291.157 787.918C284.155 786.552 276.95 787.366 269.861 787.337ZM274.771 853.195C274.684 857.264 275.411 861.303 275.846 865.343C281.192 864.268 286.944 864.123 291.796 861.42C292.232 857.787 290.46 854.415 289.588 851.015C284.62 851.567 279.594 851.887 274.771 853.195ZM1275.34 648.007C1287.87 642.165 1304.66 649.925 1305.21 664.544C1308.87 687.039 1271.22 697.531 1262.5 676.809C1256.4 665.649 1263.03 650.913 1275.34 648.007ZM1281.18 656.232C1274.7 657.395 1266.98 662.771 1269.13 670.328C1272.5 686.284 1302.48 676.896 1296 661.667C1293.53 655.912 1286.62 654.634 1281.18 656.232ZM1269.13 697.357C1283.16 694.77 1297.1 691.747 1311.14 688.986L1311.89 698.984C1300.74 700.496 1289.7 702.617 1278.92 705.814C1280.34 712.295 1282.4 718.776 1282.46 725.49L1275.17 727.495L1269.13 697.357Z" fill="#004F9F"/>
<path d="M1290.45 726.711C1298.85 724.531 1309.51 724.153 1315.96 731.012C1321.97 736.767 1322.5 746.329 1320.14 753.885C1313.75 767.109 1293.82 770.364 1282.75 761.209C1272.44 751.328 1275.46 730.228 1290.45 726.711ZM1293.36 735.808C1285.4 737.377 1282.03 747.608 1287.63 753.566C1295.8 760.018 1311.17 756.966 1313.69 746.038C1313.69 735.401 1301.52 732.669 1293.36 735.808ZM1290.39 773.358C1300.24 768.969 1313.84 769.55 1320.93 778.618C1329.24 788.878 1325.37 809.484 1310.12 810.036C1308.67 801.869 1316.74 796.957 1317.24 789.372C1313.37 778.153 1295.86 777.514 1289.58 786.582C1285.83 793.353 1290.6 800.503 1297.48 802.189L1296.64 792.365H1304.54L1305.44 810.326L1281.39 811.227L1284.7 802.305C1277.17 793.673 1279.82 778.269 1290.39 773.358ZM1281.59 825.759C1297.51 830.235 1310.58 819.365 1324.09 813.087L1324.27 824.132L1306.55 831.572C1312.12 834.584 1317.74 837.51 1323.4 840.349L1322.85 850.725C1314.16 846.685 1306.43 840.93 1297.83 836.803C1292.34 835.612 1286.73 835.408 1281.18 834.827L1281.59 825.759ZM1276.04 896.093C1274.5 886.327 1277.03 876.533 1279.06 867.029C1292.89 869.703 1306.92 871.156 1320.7 874.15C1318.49 883.218 1319.1 893.303 1314.62 901.644C1310.09 908.357 1301.58 905.422 1296.52 901.062C1290.1 906.323 1278.51 904.724 1276.04 896.093ZM1284.73 877.376C1284.06 884.467 1280.92 895.744 1291.93 894.814C1293.27 889.611 1294.46 884.38 1295.62 879.149L1284.73 877.376ZM1302.51 880.515C1302.13 886.996 1298.99 895.715 1308 896.761C1309.28 891.617 1310.47 886.444 1311.54 881.27L1302.51 880.515ZM1278.92 910.13C1293.97 905.131 1315.49 916.96 1310.21 934.747C1307.24 955.411 1275.87 955.149 1267.79 938.409C1262.97 928.15 1267.91 913.879 1278.92 910.13ZM1278.57 920.506C1273.11 924.284 1272.41 933.497 1278.37 937.188C1285.13 942.158 1298.09 944.018 1301.84 934.544C1306.46 921.785 1287.63 914.809 1278.57 920.506ZM736.331 922.628C741.676 920.767 752.31 920.215 749.521 928.963C744.64 927.685 735.314 930.678 736.331 922.628ZM813.204 927.307L829.125 921.436L832.088 927.249L817.329 933.032L813.204 927.307ZM835.604 920.826L850.188 921.029L849.52 927.801C844.029 926.958 836.795 927.946 835.604 920.826ZM857.625 921.232L873.401 924.226L872.733 930.882L856.812 927.568L857.625 921.232ZM713.495 932.131C711.985 923.209 722.415 924.284 728.225 923.238L731.828 928.266C725.809 929.957 719.685 931.248 713.495 932.131ZM754.866 928.963C755.854 918.471 768.55 928.469 774.128 929.893C769.509 938.147 760.967 931.579 754.866 928.963ZM290.024 934.805L325.41 925.592C327.735 932.247 325.323 936.229 318.06 935.939C319.948 941.867 323.696 948.32 321.023 954.626C319.367 959.364 314.719 961.863 311 964.769C308.124 962.008 306.09 954.103 300.89 957.184C292.058 960.352 299.583 969.914 300.977 975.726C312.685 971.251 324.568 967.24 336.45 963.316L337.874 970.844C326.747 975.901 314.777 978.894 303.447 983.457L307.281 992.874L341.389 979.127L344.498 986.625L321.808 995.838L328.635 1011.36C336.973 1009.09 339.762 1000.49 343.045 993.542L349.03 996.42C344.934 1004.47 342.028 1018.01 330.814 1017.66C318.205 1018.65 322.563 996.652 310.071 999.006C313.789 1009.27 318.554 1019.09 322.621 1029.23C330.088 1025.57 338.629 1021.65 344.876 1029.52L351.354 1012.93L358.414 1015.86C353.882 1027.02 348.42 1037.81 342.203 1048.15L336.16 1045.04C337.255 1040.93 338.281 1036.81 339.239 1032.66C334.978 1033.7 330.786 1035 326.689 1036.56L336.857 1056.2L369.57 1037.66L372.098 1045.3C362.133 1051.96 351.325 1057.25 340.983 1063.35L345.457 1070.88L376.95 1051.52L381.075 1058.82L365.648 1068.21C368.321 1075.3 375.265 1071.43 380.116 1074.08C379.39 1079.19 380.523 1086.72 375.7 1089.95C369.512 1083.14 361.9 1089.19 359.286 1095.79C363.731 1093.03 373.638 1097.01 366.665 1101.6C358.908 1107.76 352.894 1097.91 351.441 1091.25C355.276 1086.28 360.012 1082.16 365.358 1078.87L361.145 1071.46L350.628 1077.1L351.732 1086.63L346.357 1084.51C329.942 1059.81 317.363 1032.78 305.306 1005.72C301.326 1008.22 297.781 1012 292.9 1012.67C284.562 1012.43 280.611 1002.67 281.483 995.519C282.122 987.468 288.92 982.237 294.673 977.528C290.111 963.171 285.347 948.756 282.325 933.991L283.575 928.76L290.024 934.805ZM291.273 942.943L293.075 952.243C299.989 948.32 308.531 946.75 313.789 954.19C318.321 948.261 313.673 942.681 310.129 937.857L291.273 942.943ZM297.055 984.794C292.668 989.212 283.052 995.664 288.891 1002.55C293.075 1008.19 298.217 1000.75 302.342 998.803L297.055 984.794ZM694.873 931.753C697.516 927.568 703.211 928.411 707.394 927.074L708.237 934.369C703.85 933.73 697.313 936.839 694.873 931.753ZM878.108 926.813L889.903 927.655L890.339 934.02L878.282 932.945L878.108 926.813ZM654.025 930.416H663.844L664.077 936.869L653.56 936.956L654.025 930.416ZM673.751 930.213C678.923 931.463 688.481 927.132 689.062 935.096C684.53 938.089 678.603 936.52 673.49 937.217L673.751 930.213ZM898.415 929.486C903.645 930.126 908.874 931.027 914.017 932.422L911.721 937.74L897.776 935.735L898.415 929.486ZM920.815 939.136C918.52 929.574 934.528 930.01 934.266 938.961L920.815 939.136ZM815.877 942.013C824.389 938.191 833.596 936.163 842.925 936.055L842.228 942.042C834.732 943.117 827.324 944.745 820.235 947.419L815.877 942.013ZM851.263 935.59L866.022 937.682L864.918 944.105L851.321 942.362L851.263 935.59ZM720.265 938.583C725.291 938.787 731.508 935.822 735.808 939.31C735.517 946.227 725.872 943.64 721.252 945.239L720.265 938.583ZM743.187 937.246C752.745 937.799 762.1 940.066 770.758 944.222L766.052 948.988C758.44 947.041 750.944 944.629 743.158 943.611L743.187 937.246ZM874.244 938.903L887.869 941.664L886.94 948.145L871.774 944.919L874.244 938.903ZM698.127 942.362C704.373 941.751 712.595 937.653 715.384 945.849C709.864 947.099 704.315 948.029 698.737 948.726L698.127 942.362ZM642.549 944.774L665.559 945.82L666.866 951.371C658.383 952.417 649.87 951.807 641.387 951.4L642.549 944.774ZM674.739 944.716C681.131 945.239 692.055 939.513 692.287 949.715L674.884 951.429L674.739 944.716ZM893.97 948.843L896.149 942.594L911.838 944.512L911.111 951.197L893.97 948.843ZM922.384 945.791C928.95 945.965 935.458 947.128 942.023 947.825L943.04 953.871C935.022 953.638 927.003 953.028 919.101 951.778L922.384 945.791ZM842.46 950.557L860.734 950.645L860.182 957.155C854.488 957.213 848.793 957.184 843.128 957.126L842.46 950.557ZM1261.17 949.133L1301.81 963.287L1297.48 975.668C1286.99 974.767 1276.54 973.227 1265.99 973.227C1274.96 978.464 1283.81 983.92 1292.51 989.59L1288.42 1002.03C1274.82 997.639 1261.33 992.939 1247.95 987.933L1250.91 979.708L1277.99 989.125C1270.06 983.167 1261.46 978.168 1253.15 972.791L1256.63 964.217L1286.41 968.228C1277.64 963.723 1268.14 960.875 1258.84 957.736L1261.17 949.133ZM702.049 955.44L717.417 952.621C720.294 961.224 710.154 960.497 704.838 962.299L702.049 955.44ZM722.792 953.028C729.53 952.355 736.302 952.102 743.071 952.272L741.734 958.899C734.907 958.346 725.756 961.311 722.792 953.028ZM828.689 953.842C832.466 950.964 836.562 955.091 835.284 959.102C830.2 961.137 823.866 965.438 819.363 959.945C820.235 955.644 825.319 955.266 828.689 953.842ZM867.532 951.342L882.32 953.842L881.768 960.642C875.87 958.957 864.54 961.137 867.532 951.342ZM680.201 959.422L695.948 956.196L697.574 963.258L682.961 965.554L680.201 959.422ZM748.707 960.497L751.641 954.19L766.429 959.8C762.972 968.693 754.75 962.822 748.707 960.497ZM887.782 955.324C893.796 957.3 906.376 954.655 903.587 964.944C897.166 963.287 886.329 965.264 887.782 955.324ZM655.07 961.369L672.793 959.654L673.664 966.659C667.215 965.903 655.506 971.774 655.07 961.369ZM911.954 959.015L929.734 961.224C930.693 972.152 917.793 965.467 911.663 965.961L911.954 959.015ZM629.127 960.933L647.546 961.224C648.592 963.491 647.488 965.932 647.313 968.286C641.038 966.339 628.226 971.483 629.127 960.933ZM937.607 961.224C943.621 962.735 953.151 958.521 956.579 964.857C952.25 971.454 942.866 967.879 936.329 967.995L937.607 961.224ZM720.526 966.978C725.872 965.99 731.334 966.077 736.737 966.688L735.488 973.895L723.054 973.692L720.526 966.978ZM848.212 965.031L862.042 964.45L862.361 971.919L848.038 972.384L848.212 965.031ZM698.737 969.245L713.553 966.891L715.5 973.983L700.509 976.86L698.737 969.245ZM746.151 967.821L762.74 974.477L757.597 980.638L743.332 974.593L746.151 967.821ZM820.758 972.675C826.684 970.088 832.785 967.85 839.061 966.194C843.099 975.087 832.815 975.755 827.353 978.865L820.758 972.675ZM868.898 973.343L871.629 965.554L885.051 968.257L884.673 975.232L868.898 973.343ZM673.432 973.343L691.415 971.047L693.478 977.906L674.071 980.812L673.432 973.343Z" fill="#004F9F"/>
<path d="M892.081 970.204L910.879 973.111L909.891 980.26L891.036 977.586L892.081 970.204ZM647.516 975.959L666.604 974.244L667.447 981.481L648.475 983.05L647.516 975.959ZM918.171 973.75L935.457 975.814L935.748 982.876L916.457 981.365L918.171 973.75ZM618.987 976.22L640.747 976.25L640.776 983.399L619.016 983.98L618.987 976.22ZM942.255 982.149C944.812 973.285 955.3 980.057 961.604 979.243L961.837 986.335C955.474 985.114 946.7 987.846 942.255 982.149ZM1235.89 1024.64C1233.94 1013.51 1241.47 1003.89 1245.48 994.124L1283.91 1011.33C1280.25 1019.84 1277.58 1029.14 1271.62 1036.41C1265.61 1042.31 1257.16 1037.78 1253.5 1031.67C1246.84 1033.82 1238.27 1032.05 1235.89 1024.64ZM1248.91 1005.66C1245.68 1012.03 1240.63 1021.56 1250.36 1024.67C1253.24 1019.95 1255.97 1015.14 1258.55 1010.25L1248.91 1005.66ZM1264.71 1013.71C1263.46 1018.91 1258.09 1025.74 1263.75 1030.1C1269.01 1027.4 1270.7 1021.33 1273.34 1016.5L1264.71 1013.71ZM1229.99 1026.97C1241.09 1037.28 1250.21 1049.43 1260.5 1060.5L1255.18 1069.98L1210.32 1062.28C1212.88 1058.93 1214.39 1053.01 1219.91 1054.43C1227.2 1055.62 1228.37 1046.35 1231.88 1042.02L1225.98 1035.8L1229.99 1026.97ZM1232.61 1056.78L1248.12 1059.75L1238.07 1048.41L1232.61 1056.78ZM1199.89 1077.62L1206.61 1070.12C1217.59 1082.13 1234.41 1079.25 1248.96 1080.82L1243.18 1090.32L1224.18 1087.88C1227.44 1093.29 1230.81 1098.66 1234.29 1103.98C1232.08 1106.51 1230.95 1110.46 1227.52 1111.63C1222.24 1103.66 1219.1 1094.45 1213.2 1086.92C1209.1 1083.35 1204.37 1080.65 1199.89 1077.62ZM369.657 1243.98C489.296 1188.65 620.091 1158.04 751.757 1153.27C908.177 1147.52 1065.47 1179.55 1207.85 1244.3C1202.13 1258.43 1195.42 1272.09 1189.06 1285.92C1215.93 1296.82 1241.15 1311.32 1265.55 1326.9C1240.34 1373.46 1216.6 1420.86 1189.96 1466.64H1188.59C1181.24 1461.46 1172.96 1457.92 1164.77 1454.43C1121.66 1435.57 1077.41 1418.86 1031.62 1407.75C1027.99 1406.42 1023.49 1406.3 1020.7 1403.45C1024.47 1382.27 1030.89 1361.66 1035.75 1340.7C874.911 1298.71 703.995 1300.63 542.665 1338.96L558.615 1404.01C510.165 1415.8 462.894 1432 417.391 1452.4C408.181 1456.67 398.012 1459.69 390.401 1466.64H386.682L386.537 1464.72C362.83 1418.3 337.554 1372.65 312.83 1326.75C336.74 1310.39 362.568 1296.99 389.093 1285.43L369.657 1243.98ZM402.632 1255.37C414.921 1285.02 429.854 1313.5 443.567 1342.51C558.557 1304.17 679.939 1283.97 801.263 1286.09C914.917 1286.04 1028.19 1307.57 1135.02 1346.02L1176.01 1256.1C1112.04 1230.21 1046.26 1208.12 978.281 1195.45C784.724 1157.39 584.207 1178.26 402.632 1255.37ZM387.873 1312.25L440.342 1416.73L449.436 1412.81C434.096 1376.98 417.478 1341.69 400.395 1306.64L387.873 1312.25ZM1129.03 1413.45L1138.42 1417.58L1190.92 1312.98L1178.25 1307.17L1129.03 1413.45ZM365.561 1323.38C382.731 1357.79 400.889 1391.74 419.134 1425.6L429.564 1420.51L377.472 1317.25L365.561 1323.38ZM1196.41 1327.31C1180.69 1358.84 1164.01 1389.97 1149.31 1422.02L1160.24 1425.98L1213.64 1324.4C1209.74 1322.39 1205.94 1320.3 1201.93 1318.62C1199.31 1320.91 1198.06 1324.31 1196.41 1327.31ZM345.311 1335.53L398.187 1434.84L407.629 1429.76L355.276 1329.43C351.848 1331.23 348.1 1332.71 345.311 1335.53ZM1173.05 1428.85L1179.5 1434.52L1231.94 1335.88L1224.39 1330.79C1206.92 1363.29 1189.26 1395.75 1173.05 1428.85ZM443.48 1371.05C448.535 1384.01 454.636 1396.54 460.505 1409.18L470.237 1405.02C466.257 1394.7 462.015 1384.47 457.687 1374.3L443.48 1371.05ZM1121.1 1374.56C1116.66 1384.91 1112.13 1395.23 1108.41 1405.87L1118.2 1409.67C1124.18 1397.03 1130.31 1384.42 1135.54 1371.42L1121.1 1374.56ZM471.951 1377.38C474.188 1385.61 477.5 1393.48 480.871 1401.33L491.01 1398.57C489.441 1392.23 487.146 1386.1 484.473 1380.17L471.951 1377.38ZM1093.94 1381.57C1090.69 1386.94 1089.32 1393.19 1087.58 1399.18L1097.54 1402.03C1100.94 1394.09 1104.28 1386.13 1107.25 1378.02C1102.86 1379.24 1097.86 1379.07 1093.94 1381.57ZM498.767 1383.34C499.769 1387.09 500.834 1390.82 501.963 1394.53C508.229 1392.86 514.457 1391.04 520.644 1389.1C513.845 1385.58 506.117 1384.88 498.767 1383.34ZM1056.75 1389.53L1076.42 1395L1080.55 1384.27C1072.44 1385.23 1064.51 1387.06 1056.75 1389.53Z" fill="#004F9F"/>
<path d="M935.37 1192.92C947.833 1195.27 949.112 1209.16 951.901 1219.22C986.27 1225.15 1020.17 1233.52 1053.82 1242.67L1055.15 1252.03L1045.48 1249.13C1041.44 1261.25 1038.22 1273.63 1035.19 1286.04C1040.48 1293.07 1044.03 1301.29 1045.22 1310.04C1040.57 1303.88 1037.95 1295.92 1030.89 1291.97C1026.48 1290.02 1027.15 1284.58 1030.4 1281.91L1027.52 1277.67L1030.63 1266.91L1018.66 1264.15L1013.35 1269.03C1008.5 1269.7 1007.22 1263.16 1005.33 1259.85C1003.03 1256.19 1008.26 1254.04 1009.72 1251.19C1010.98 1247.72 1011.96 1244.15 1012.62 1240.52L997.688 1237.5C994.841 1250.11 991.616 1262.64 988.623 1275.23C984.411 1271.42 980.14 1267.29 981.651 1261.04C976.537 1260.43 970.698 1260.98 966.66 1257.23C961.11 1252.88 961.633 1244.97 959.89 1238.81C964.858 1237.33 971.366 1237.65 973.777 1232.07C966.558 1230.51 959.303 1229.12 952.017 1227.91L946.061 1266.71C942.139 1262.9 936.706 1259.47 938.072 1253.14C930.663 1253.89 923.691 1251.77 918.694 1246.16C913.842 1256.36 897.427 1253.63 892.662 1244.51C888.537 1239.77 892.43 1234.22 894.028 1229.36C892.459 1224.71 888.072 1219.39 892.43 1214.92C898.705 1210.06 910.443 1213.96 910.21 1222.77C910.239 1226.78 905.475 1227.44 903.005 1229.6C907.712 1229.62 910.559 1232.12 911.605 1237.04C906.23 1237.44 899.286 1234.22 895.771 1240.06C900.361 1248.6 910.53 1243.75 917.038 1240.73L915.12 1231.95C920.117 1230.73 925.405 1229.65 928.92 1225.5C924.097 1224.25 919.188 1223.35 914.307 1222.5L910.414 1213.67L947.746 1218.35C946.265 1211.61 943.04 1205.59 936.881 1202.13L935.37 1192.92ZM900.449 1217.62C896.352 1218.17 895.19 1224.83 899.838 1225.58C905.794 1227.07 906.898 1215.96 900.449 1217.62ZM933.046 1225.15C936.125 1234.51 927.206 1237.41 921.454 1242.3C927.351 1244.07 934.15 1245.67 939.641 1241.77C941.326 1236.77 942.023 1231.54 943.011 1226.43L933.046 1225.15ZM979.21 1232.85C980.343 1241.98 973.487 1245.49 965.817 1247.15C969.797 1250.93 975.55 1253.57 980.953 1251.1C987.781 1249.39 986.503 1240.55 989.146 1235.5L979.21 1232.85ZM1019.3 1256.1L1033.39 1258.4L1036.36 1246.66L1021.66 1242.62C1020.81 1247.09 1020 1251.57 1019.3 1256.1ZM699.056 1212.59C751.205 1208.5 803.616 1208.03 855.882 1209.4L859.891 1218.14L850.013 1218.06C849.81 1230.55 849.2 1243.02 848.619 1255.49C854.604 1261.36 860.414 1267.73 863.494 1275.66C856.434 1270.81 851.844 1261.77 842.227 1261.8L838.596 1254.97L843.825 1254.76C839.177 1250.78 839.758 1244.65 839.438 1239.19L828.485 1239.16L823.633 1246.05C819.973 1242.53 814.918 1239.48 813.726 1234.25C818.23 1229.45 818.288 1223.03 818.375 1216.87L809.223 1216.63L809.165 1255.43L799.578 1249.68L800.014 1238.58L788.044 1238.14L783.802 1246.05C779.762 1242.43 776.03 1238.48 772.646 1234.25C778.195 1230.18 777.382 1223.41 777.556 1217.36L764.976 1217.45C764.831 1225.18 766.545 1234.3 759.049 1239.3C757.684 1244.59 773.983 1251.39 763.959 1255.96C756.667 1247.3 745.831 1239.54 744.93 1227.39L755.244 1228.35L755.825 1218.14L740.398 1217.91C740.136 1231.11 741.473 1244.24 741.821 1257.44C735.197 1255.11 731.159 1250.52 731.449 1243.4C725.174 1245.14 718.056 1245.81 712.798 1241.16C707.946 1235.7 709.108 1227.79 707.917 1221.14C702.542 1221.4 701.089 1216.43 699.056 1212.59ZM717.33 1220.15C718.637 1226.17 716.662 1233.98 720.555 1238.9C724.157 1237.44 727.44 1235.23 730.81 1233.26L730.636 1218.52L717.33 1220.15ZM786.62 1216.58L786.969 1230.15L799.81 1229.71L800.043 1216.95L786.62 1216.58ZM827.526 1217.24L827.41 1230.61L840.571 1230.44V1217.51L827.526 1217.24ZM519.133 1252.35C567.128 1232.07 618.609 1221.75 670.177 1215.91L674.768 1223.32L665.326 1225.09L670.294 1262.12C677.876 1266.39 685.575 1271.85 688.771 1280.34C682.409 1275.63 676.366 1269.79 668.057 1269.24C664.047 1269.09 663.902 1264.38 663.408 1261.45C659.893 1257.7 659.37 1252.5 658.266 1247.73L646.935 1249.36L644.117 1257.38C639.17 1254.59 634.722 1251 630.956 1246.74C637.057 1242.41 634.268 1235.5 633.484 1229.45L623.722 1231.19C625.814 1244.07 628.371 1256.86 630.666 1269.7L620.12 1264.73L617.273 1248.72C609.806 1249.21 603.502 1252.03 602.746 1260.34C597.604 1257.99 587.406 1252.53 592.839 1246.16C600.248 1243.37 608.15 1242.18 615.849 1240.47L613.873 1232.53L581.451 1240.09L591.735 1277.87L580.841 1274.41L572.27 1242.5L565.094 1245.17L576.773 1282.03L566.343 1279.29C563.932 1272.67 561.753 1265.98 559.632 1259.3C557.715 1261.07 549.377 1261.97 553.589 1266.04C558.005 1270.2 557.017 1275.46 555.623 1280.72C557.831 1283.65 562.799 1285.4 560.94 1290.19C554.257 1286.76 547.14 1284.38 539.818 1282.67L538.453 1274.79L549.057 1273.34C547.314 1265.61 539.818 1265.17 533.194 1265.61C535.548 1254.47 552.253 1257.44 558.383 1248.43C547.256 1249.36 537.087 1254.27 527.035 1258.78L519.133 1252.35ZM642.548 1228.49L644.669 1241.13L658.004 1238.9L655.709 1225.9L642.548 1228.49Z" fill="#004F9F"/>
<path d="M744.088 147.796C781.973 146.895 820.322 144.541 857.887 150.615L880.635 246.06C920.234 252.861 958.99 263.701 996.904 276.925C1021.25 254.168 1043.8 229.464 1068.78 207.434C1104.25 221.559 1137.78 241.003 1169.07 262.917L1141.91 356.966C1173.57 382.106 1203.06 409.948 1229.5 440.523C1260.09 430.177 1289.93 417.447 1320.23 406.17C1343.44 436.135 1363.72 468.308 1381.85 501.585L1313.84 571.628C1327.9 606.65 1342.6 641.584 1350.24 678.727L1448.21 691.922C1454.67 728.776 1458.22 766.084 1458.81 803.496L1365.9 834.274C1362.01 872.173 1358.32 910.362 1348.62 947.302C1374.97 968.112 1403.9 985.433 1429.76 1006.88C1418.95 1044.2 1403.23 1079.89 1385.25 1114.27L1289.44 1093.55C1274.85 1117.93 1259.42 1141.85 1242.22 1164.52C1210.24 1140.72 1179.44 1115.38 1149.29 1089.31C1219.39 999.5 1255.5 883.014 1244.43 769.318C1236.7 678.204 1199.55 589.996 1140.6 520.186C1075.11 442.151 982.668 386.843 882.495 367.719C824.099 356.675 763.437 355.716 705.187 368.33C616.547 386.174 534.183 432.385 471.458 497.371C399.902 570.756 354.55 669.398 346.387 771.672C335.23 887.025 377.386 1002.87 446.967 1093.81C443.481 1097.44 439.849 1100.96 435.898 1104.1C408.617 1125.26 382.499 1147.87 355.364 1169.23C335.608 1147.17 319.774 1122.06 303.883 1097.21C270.937 1100.26 237.991 1109.19 204.842 1113.37C201.007 1112.67 200.252 1107.88 198.189 1105.17C182.239 1072.97 169.398 1039.32 158.765 1005.02C185.987 986.974 214.662 971.221 241.884 953.202C246.271 950.906 242.669 945.529 242.465 941.954C233.546 905.741 227.736 868.656 227.358 831.281C195.255 821.022 162.745 811.983 130.351 802.682C129.218 764.406 132.705 725.868 141.74 688.638C175.425 684.824 209.061 680.591 242.64 675.937C252.024 638.213 264.139 600.924 281.163 565.932C258.619 540.792 233.75 517.89 210.856 493.07C229.508 457.583 251.704 423.841 278.171 393.644L367.014 435.495C394.759 405.85 424.829 378.385 456.67 353.188C447.432 322.119 436.479 291.573 426.601 260.737C428.257 256.581 433.167 255.098 436.479 252.483C466.142 234.347 496.037 216.095 528.111 202.435C532.207 199.558 535.054 205.08 537.873 207.144L598.534 275.094C636.651 260.94 676.424 251.989 716.546 245.885C726.308 213.363 734.472 180.376 744.088 147.796ZM812.246 281.808L810.59 324.328L820.177 324.095C820.438 309.854 821.542 295.671 821.426 281.43L812.246 281.808ZM753.298 283.232L754.954 318.98C753.879 325.083 759.602 325.897 764.28 325.577C763.815 315.667 763.437 305.785 762.391 295.933C768.289 304.128 773.228 312.964 778.951 321.276C781.13 324.88 786.185 323.165 789.614 324.182C789.759 309.999 788.422 295.874 788.016 281.691L779.329 281.721C779.532 290.643 780.084 299.565 780.346 308.488C774.099 300.147 768.609 291.282 763.176 282.389L753.298 283.232ZM830.374 281.953C829.27 295.933 827.062 309.854 826.801 323.892L834.994 325.868L837.754 297.647C843.07 306.86 846.615 316.974 851.612 326.362C854.711 327.164 857.919 327.458 861.112 327.234C862.158 313.196 863.727 299.188 864.773 285.121L855.97 284.947C855.302 294.247 854.43 303.547 852.716 312.731C848.794 302.792 845.395 292.503 839.526 283.522L830.374 281.953ZM721.166 287.214L712.275 330.983L721.369 329.414C722.182 326.362 723.315 323.456 724.797 320.695C729.475 319.736 734.239 319.445 739.004 318.98L742.606 326.827L752.775 325.461C745.454 312.266 738.975 298.635 732.235 285.15L721.166 287.214ZM692.404 291.776C694.757 305.465 697.807 319.009 699.87 332.756L709.574 332.291L701.613 290.178L692.404 291.776ZM870.961 301.048C871.426 311.83 885.11 313.08 892.198 318.457C894.29 329.472 876.626 324.618 875.638 316.393L866.748 314.94C866.138 329.791 884.151 337.319 896.062 331.128C902.803 327.728 905.156 316.422 898.561 311.83C892.373 307.587 885.342 304.768 878.979 300.873L885.865 295.729C893.622 297.095 896.179 307.18 905.156 305.959C903.558 301.542 903.616 296.02 899.781 292.707C891.065 284.54 871.222 286.603 870.961 301.048ZM909.921 301.891L921.367 304.361C918.985 315.492 915.993 326.507 912.942 337.464L921.919 340.719C925.154 329.63 928.013 318.434 930.49 307.151L943.389 309.999L944.697 301.92L910.937 293.607L909.921 301.891ZM650.364 301.716L660.998 342.986C670.992 339.789 684.269 340.022 690.108 329.791C693.74 318.573 690.747 302.617 679.097 297.269C669.278 295.555 659.777 299.624 650.364 301.716ZM949.432 303.925L936.765 344.352L945.83 347.259L958.497 306.512L949.432 303.925ZM632.09 307.384L640.864 333.25C632.689 326.743 624.78 319.907 617.157 312.76L607.541 316.713C612.683 329.85 617.07 343.248 621.689 356.588L630.086 353.158L620.905 326.74C629.272 333.482 637.32 340.574 645.28 347.753L654.403 345.05C650.19 331.622 645.106 318.486 641.009 305.029L632.09 307.384ZM963.116 307.849L960.472 315.405L972.122 320.201C968.462 330.925 963.261 341.242 961.024 352.432L968.113 355.338C974.446 345.66 976.451 333.773 981.216 323.252L992.924 327.641L995.684 319.735L963.116 307.849ZM524.712 327.612C521.719 334.761 529.505 339.208 533.66 343.568C504.723 359.698 477.414 379.054 452.923 401.346C452.748 409.28 460.999 404.455 463.788 400.793L470.18 408.67L468.495 417.563L485.2 417.534L482.469 408.757L490.197 402.363C494.875 408.379 499.203 414.686 504.665 420.033C508.413 417.36 512.016 414.075 517.042 414.715C515.444 423.87 506.99 426.747 498.739 427.038L498.942 431.862C509.895 435.379 524.712 426.602 523.521 414.308C521.022 406.461 511.987 406.315 505.508 408.553L485.2 382.716L508.994 365.539L518.349 380.449L505.159 381.234L513.033 374.578C508.384 368.242 501.731 374.375 498.739 379.112C494.032 385.884 499.32 396.87 507.571 397.19C514.747 398.701 519.628 392.685 524.508 388.587L528.895 396.725L535.955 391.784C529.099 381.699 522.678 371.323 515.793 361.267C523.317 356.675 530.697 351.676 538.86 348.276C542.289 357.024 523.782 355.367 526.745 365.162C532.875 374.026 545.281 372.34 552.747 366.121L551.585 375.944L537.727 377.368L537.814 384.954C547.402 384.256 556.989 384.198 566.518 385.826L568.668 378.938L558.093 379.17C560.04 372.137 562.219 361.907 553.939 358.128C547.547 358.622 542.753 364.057 536.565 365.685C537.146 358.506 544.99 356.879 549.929 353.391L544.729 344.498L551.498 340.632L548.564 334.471L539.325 340.196C536.362 337.813 533.369 335.43 530.871 332.552C532.207 328.222 535.723 324.996 537.931 321.131C533.486 322.671 526.745 322.38 524.712 327.612ZM591.126 322.002C595.542 335.866 601.846 348.973 607.192 362.459L616.024 358.826C610.62 346.241 606.03 333.308 600.103 320.956L591.126 322.002ZM1001.29 322.177C997.253 331.826 991.936 340.981 988.74 350.979C983.162 366.905 1010.94 379.664 1019.25 365.104C1024.5 356.123 1027.93 346.241 1032.84 337.115C1029.88 336.389 1026.39 331.506 1023.63 334.209C1018.52 343.364 1014.92 353.275 1009.92 362.517C1005.2 361.932 1000.76 359.983 997.137 356.908C1000.42 346.329 1005.18 336.331 1010.15 326.478L1001.29 322.177ZM1034.09 346.648L1045.13 352.81C1039.84 362.807 1033.66 372.311 1028.92 382.6C1031.45 384.344 1034.03 386.058 1036.68 387.686L1053.53 357.605L1065.35 363.592L1067.94 356.181C1058.5 350.049 1048.21 345.369 1038.65 339.47L1034.09 346.648ZM1050.83 394.516C1058.12 401.142 1066.69 406.345 1075.29 411.082C1078.69 414.192 1084.59 405.444 1079.12 404.281C1073.75 400.328 1068.05 396.841 1062.53 393.15C1064.42 390.621 1066.25 388.005 1068.4 385.651C1074.45 388.703 1079.94 392.714 1085.69 396.289L1089.64 389.168L1072.91 378.792L1077 371.759C1083.13 375.624 1089.23 379.577 1095.28 383.646L1100.19 377.049L1073.78 359.465C1066.17 371.149 1057.94 382.483 1050.83 394.516ZM465.59 373.067L470.906 379.49L478.373 374.026L473.114 366.876L465.59 373.067ZM1113.14 400.735C1105.5 405.473 1098.79 413.901 1099.69 423.376C1099.61 437.297 1117.07 447.498 1129.12 440.407C1137 435.466 1143.62 427.154 1143.42 417.447C1142.86 403.438 1125.37 393.004 1113.14 400.735ZM1126.91 453.195L1133.25 460.257L1146.41 447.644L1159.02 460.286L1164.51 453.892C1160.7 449.678 1154.63 446.452 1152.89 440.93L1157.3 435.263L1171.77 449.765L1178.8 444.592L1157.16 422.794C1146.29 432.153 1137.29 443.342 1126.91 453.195ZM407.049 441.802C392.987 458.194 377.299 473.743 366.317 492.314C368.815 497.284 372.737 492.576 375.962 491.093C379.623 494.145 383.603 496.935 386.857 500.452C390.401 507.689 386.305 514.896 380.93 519.692C380.059 513.821 381.395 506.671 376.601 502.167C373.144 498.301 367.508 498.272 362.772 499.028C356.817 500.975 355.393 507.456 353.33 512.542C357.223 520.36 365.213 520.593 371.691 515.303L361.349 510.188C361.349 502.748 369.919 505.015 371.575 510.246C374.074 513.443 371.372 517.221 370.849 520.622L361.087 526.696C362.482 528.847 363.905 530.998 365.358 533.119C369.222 526.028 377.182 527.771 383.487 525.505C390.837 521.93 393.946 513.792 395.398 506.265L405.044 512.949L408.879 505.858C398.914 498.882 389.355 491.326 379.681 483.944L385.492 477.405L414.37 500.684L418.815 493.913L390.256 470.546L412.104 445.842C414.081 447.989 415.99 450.199 417.827 452.468C414.108 459.414 405.77 463.919 404.027 471.708C407.107 477.376 415.416 473.714 420.674 474.527C419.359 471.035 417.984 467.567 416.549 464.123C418.881 462.024 421.294 460.017 423.783 458.106C429.419 462.059 433.922 467.349 438.774 472.202L444.033 465.401C435.578 457.293 426.862 449.387 418.699 440.988L421.226 434.158C414.864 430.293 411.087 438.314 407.049 441.802ZM1191.64 458.572L1185.22 463.803L1193.15 473.481L1166.8 495.569L1173.08 502.719C1181.97 495.802 1190.05 487.896 1199.31 481.473C1202.19 484.06 1204.46 487.228 1206.87 490.28L1214.1 485.339C1206.43 476.562 1199.11 467.494 1191.64 458.572ZM1182.75 515.042L1202.02 541.722L1208.2 535.473C1203.73 529.777 1199.43 523.993 1195.13 518.21L1202.95 511.932C1207.02 517.369 1210.99 522.892 1214.83 528.498L1221.63 523.47C1218.92 517.338 1206.05 509.665 1214.07 503.475C1221.05 505.48 1223.4 515.013 1228.74 519.895L1236.09 516.35L1217.7 490.193C1205.73 498.011 1194.23 506.526 1182.75 515.042ZM343.191 526.057C330.466 546.924 318.758 568.548 309.78 591.304L314.603 595.315L322.128 578.458L333.574 583.719C328.926 586.422 322.767 588.398 323.638 595.082C334.795 593.775 346.125 592.757 356.904 589.328L357.223 581.655L340.838 585.956C338.223 578.807 331.715 574.796 326.311 570.001C327.764 566.542 329.478 563.258 331.163 559.945C334.243 563.2 345.137 564.944 338.02 571.163L342.523 576.191L346.59 568.925C352.488 571.396 357.892 575.029 364.051 576.86L368.234 570.844C357.281 564.798 346.27 558.898 335.027 553.435C338.862 547.157 341.215 539.281 347.026 534.572C350.138 536.566 353.083 538.811 355.829 541.286C350.715 542.972 345.137 544.686 346.067 551.313C357.223 550.732 368.554 550.761 379.536 548.494L380.233 541.257L363.789 543.35C362.104 536.462 356.671 531.811 351.529 527.423L351.79 517.367C348.159 519.43 345.166 522.366 343.191 526.057ZM1209.6 553.9C1211.25 566.281 1224.73 572.965 1236.15 568.954L1231.27 560.206C1226.54 560.817 1219.71 559.828 1219.04 554.016C1216.51 544.018 1228.34 538.06 1236.59 537.304C1244.61 538.758 1245.91 548.058 1242.37 554.248L1246.84 562.066C1254.31 555.353 1256.11 543.902 1249.55 535.88C1237.4 518.82 1205.65 533.788 1209.6 553.9ZM311.233 550.092L319.077 554.277L323.58 546.517L316.143 541.722L311.233 550.092ZM1228.6 577.761C1222.5 579.301 1227.61 584.852 1228.42 588.456L1245.71 579.853L1252.51 593.949L1235.43 602.523L1240.25 610.457C1252.92 604.325 1265.73 598.483 1278.13 591.798L1273.8 583.428L1259.83 590.171L1253.06 576.714L1267.06 569.158L1263.11 560.991C1251.49 566.368 1240.07 572.122 1228.6 577.761ZM1242.22 616.56C1243.68 619.379 1245.25 622.14 1246.76 624.931C1255.01 621.179 1263.43 617.824 1272 614.875C1265.52 623.32 1258.81 631.587 1251.87 639.666L1254.72 648.908C1268.31 644.025 1281.74 638.736 1295.13 633.301L1291.38 625.686C1282.64 628.186 1274.36 631.993 1265.9 635.248C1271.95 626.5 1279.76 618.973 1285.19 609.847L1282.06 600.953C1268.87 606.417 1255.5 611.416 1242.22 616.56ZM290.693 636.672C278.549 635.364 264.139 642.02 264.458 655.912C264.923 665.212 275.731 665.416 282.703 665.59C278.69 678.43 275.382 691.479 272.796 704.681C260.798 713.545 243.715 725.228 248.712 742.608C250.193 750.659 259.723 750.601 266.027 750.485C268.351 765.016 252.895 769.492 243.744 776.729L247.898 783.82C253.302 778.618 258.793 773.532 264.516 768.707C263.558 789.168 264.545 809.687 265.388 830.147L246.126 842.499L249.903 849.794C255.365 844.534 261.001 839.361 267.538 835.466C264.226 842.122 259.054 847.498 254.784 853.485C259.636 862.553 263.499 850.724 266.259 846.917C269.63 857.264 269.194 868.395 272.361 878.771L276.66 880.166L278.578 873.568C286.771 871.359 297.404 870.197 298.566 859.676C302.11 863.599 305.829 867.378 309.722 870.982C315.591 861.187 301.442 856.711 296.503 850.23C301.994 848.37 315.213 850.957 310.158 840.552C297.694 840.901 285.434 843.662 273 844.592L272.39 836.018C284.367 834.667 296.368 833.534 308.386 832.618L308.705 824.189C296.155 825.555 283.604 827.212 270.966 827.125L270.908 804.397L274.51 803.903C274.917 808.582 274.162 813.581 276.021 818.057C280.408 822.358 285.638 817.534 290.054 816.023C294.208 815.703 299.467 817.447 302.169 813.174C308.037 804.775 303.534 794.341 299.031 786.465L307.485 786.552L307.078 778.327C294.76 779.199 282.413 779.577 270.065 779.315L271.14 768.94L308.182 770.829L307.979 762.807C295.864 762.401 283.807 761.441 271.692 760.977L271.721 750.281C283.982 751.386 296.184 753.507 308.531 753.594L310.129 746.212L273.058 742.318L274.656 730.344L285.144 731.884C284.475 745.108 300.687 733.918 298.217 726.391C290.925 724.328 283.372 723.368 275.934 722.119L277.881 712.179C290.17 714.475 302.343 717.294 314.632 719.474L315.794 711.54C303.639 709.263 291.54 706.695 279.508 703.838C281.777 695.632 283.86 687.376 285.754 679.076C292.262 680.587 299.06 681.43 305.103 684.365C306.352 687.737 307.137 694.857 301.646 694.537C294.499 695.264 295.08 687.097 293.976 682.505L288.688 684.162C284.272 693.956 293.685 705.088 303.999 701.513C311.407 700.176 312.889 692.154 312.918 685.877L322.186 688.085L323.319 680.645C315.794 676.954 299.554 678.349 302.546 665.677C309.693 662.364 314.196 671.141 319.106 674.832C328.054 667.915 314.806 656.871 306.875 657.162C297.927 656.319 294.964 666.172 294.876 673.321L288.165 671.025L294.47 647.019C306.585 650.681 318.409 655.186 330.437 659.109L331.977 651.553C321.576 646.903 310.536 643.938 299.844 639.985C298.653 637.079 297.288 634.26 295.748 631.557L290.693 636.672ZM1275.34 648.007C1263.03 650.913 1256.4 665.648 1262.5 676.809C1271.22 697.531 1308.87 687.039 1305.21 664.544C1304.66 649.925 1287.87 642.165 1275.34 648.007ZM1269.13 697.357L1275.17 727.495L1282.46 725.49C1282.4 718.776 1280.34 712.295 1278.92 705.814C1289.7 702.617 1300.74 700.495 1311.89 698.984L1311.14 688.986L1269.13 697.357ZM1290.45 726.711C1275.46 730.227 1272.44 751.327 1282.75 761.209C1293.82 770.364 1313.75 767.109 1320.14 753.885C1322.5 746.328 1321.97 736.767 1315.96 731.012C1309.51 724.153 1298.85 724.531 1290.45 726.711ZM1290.39 773.358C1279.82 778.269 1277.17 793.673 1284.7 802.305L1281.39 811.227L1305.44 810.326L1304.54 792.365H1296.64L1297.48 802.188C1290.6 800.503 1285.83 793.353 1289.58 786.581C1295.86 777.514 1313.37 778.153 1317.24 789.371C1316.74 796.957 1308.67 801.869 1310.12 810.036C1325.37 809.483 1329.24 788.877 1320.93 778.618C1313.84 769.55 1300.24 768.969 1290.39 773.358ZM1281.59 825.759L1281.18 834.827C1286.73 835.408 1292.34 835.611 1297.83 836.803C1306.43 840.93 1314.16 846.685 1322.85 850.724L1323.4 840.349C1317.74 837.51 1312.12 834.584 1306.55 831.572L1324.27 824.131L1324.09 813.087C1310.59 819.365 1297.51 830.235 1281.59 825.759ZM1276.04 896.092C1278.51 904.724 1290.1 906.323 1296.52 901.062C1301.58 905.422 1310.09 908.357 1314.62 901.643C1319.1 893.302 1318.49 883.217 1320.7 874.15C1306.92 871.156 1292.89 869.703 1279.06 867.029C1277.03 876.533 1274.5 886.327 1276.04 896.092ZM1278.92 910.13C1267.91 913.879 1262.97 928.149 1267.79 938.409C1275.87 955.149 1307.24 955.411 1310.21 934.747C1315.5 916.96 1293.97 905.131 1278.92 910.13ZM290.025 934.805L283.575 928.76L282.326 933.991C285.347 948.755 290.112 963.171 294.673 977.528C288.921 982.236 282.122 987.468 281.483 995.518C280.611 1002.67 284.563 1012.43 292.901 1012.67C297.782 1012 301.326 1008.22 305.306 1005.72C317.363 1032.78 329.943 1059.81 346.358 1084.51L351.732 1086.63L350.628 1077.1L361.145 1071.46L365.358 1078.87C360.012 1082.16 355.277 1086.28 351.442 1091.25C352.894 1097.91 358.908 1107.76 366.665 1101.6C373.638 1097.01 363.731 1093.03 359.286 1095.79C361.901 1089.19 369.513 1083.14 375.701 1089.95C380.523 1086.72 379.39 1079.19 380.117 1074.08C375.265 1071.43 368.321 1075.3 365.649 1068.21L381.076 1058.82L376.95 1051.52L345.457 1070.88L340.983 1063.35C351.326 1057.25 362.133 1051.96 372.098 1045.3L369.571 1037.66L336.857 1056.2L326.689 1036.56C330.787 1035 334.979 1033.7 339.24 1032.66L336.16 1045.04L342.203 1048.15C348.42 1037.81 353.882 1027.02 358.414 1015.86L351.355 1012.93L344.876 1029.52C338.63 1021.65 330.088 1025.57 322.622 1029.23C318.554 1019.09 313.79 1009.27 310.071 999.006C322.564 996.652 318.206 1018.65 330.814 1017.66C342.029 1018.01 344.934 1004.47 349.03 996.419L343.046 993.542C339.763 1000.49 336.974 1009.09 328.635 1011.36L321.808 995.838L344.498 986.625L341.39 979.127L307.282 992.874L303.447 983.457C314.777 978.894 326.747 975.901 337.874 970.844L336.451 963.316L300.977 975.726C299.583 969.913 292.058 960.352 300.89 957.184C306.091 954.103 308.124 962.008 311.001 964.769C314.719 961.863 319.368 959.363 321.024 954.626C323.697 948.319 319.949 941.867 318.06 935.938C325.324 936.229 327.735 932.247 325.411 925.592L290.025 934.805ZM1261.17 949.133L1258.84 957.736C1268.14 960.875 1277.64 963.723 1286.41 968.228L1256.63 964.217L1253.15 972.791C1261.46 978.167 1270.06 983.166 1277.99 989.124L1250.91 979.708L1247.95 987.933C1261.33 992.939 1274.82 997.639 1288.42 1002.03L1292.51 989.589C1283.81 983.92 1274.96 978.464 1265.99 973.227C1276.54 973.227 1286.99 974.767 1297.48 975.668L1301.81 963.287C1288.34 958.352 1274.79 953.634 1261.17 949.133ZM1235.89 1024.64C1238.27 1032.05 1246.84 1033.82 1253.5 1031.67C1257.16 1037.78 1265.61 1042.31 1271.63 1036.41C1277.58 1029.14 1280.25 1019.84 1283.92 1011.33C1270.96 1005.86 1258.26 999.878 1245.48 994.123C1241.47 1003.89 1233.94 1013.51 1235.89 1024.64ZM1229.99 1026.96L1225.98 1035.8L1231.88 1042.02C1228.37 1046.35 1227.2 1055.62 1219.91 1054.43C1214.39 1053.01 1212.88 1058.93 1210.32 1062.28L1255.18 1069.98L1260.5 1060.5C1250.21 1049.43 1241.09 1037.28 1229.99 1026.96ZM1199.89 1077.62C1204.37 1080.65 1209.1 1083.35 1213.2 1086.92C1219.1 1094.45 1222.24 1103.66 1227.52 1111.63C1230.95 1110.46 1232.09 1106.51 1234.29 1103.98C1230.81 1098.66 1227.44 1093.29 1224.18 1087.88C1230.52 1088.61 1236.85 1089.45 1243.18 1090.32L1248.96 1080.82C1234.41 1079.25 1217.59 1082.13 1206.61 1070.12L1199.89 1077.62ZM725.436 312.441L728.138 297.589L734.82 311.365L725.436 312.441ZM661.55 306.773C667.07 306.076 674.217 302.327 678.255 308.168C682.09 314.213 684.85 323.979 678.691 329.414C675.35 331.041 671.747 332.087 668.261 333.25L661.55 306.773ZM506.06 386C509.517 383.878 513.003 383.762 516.548 385.709C518.64 391.58 503.707 391.987 506.06 386Z" fill="white"/>
<path d="M469.454 394.864L478.722 388.5C481.278 391.144 483.573 394.051 485.956 396.899L477.589 404.513L469.454 394.864ZM1116.05 410.21C1121.54 404.891 1131.68 406.548 1133.86 414.337C1135.6 422.969 1128.43 430.729 1120.93 433.751C1117.87 434.068 1114.8 433.157 1112.41 431.217C1110.02 429.277 1108.5 426.468 1108.18 423.405C1109.22 418.319 1111.95 413.465 1116.05 410.21ZM796.586 463.977C813.234 479.061 821.31 500.772 827.934 521.639C840.427 560.352 840.194 603.482 825.174 641.439C820.7 653.18 812.885 664.341 801.206 669.717C792.635 672.449 785.082 665.823 778.922 660.824C765.994 647.687 760.125 629.319 756.784 611.619C749.114 569.39 759.544 525.737 779.039 488.1C783.629 479.206 789.73 471.214 796.586 463.977ZM716.605 470.517C735.692 474.818 752.63 490.803 756.29 510.13C748.621 531.695 743.333 554.103 741.532 576.947C739.905 608.713 747.691 641.729 768.376 666.549C737.842 663.672 716.517 637.05 708.092 609.411C698.185 582.498 704.809 553.667 709.167 526.347C712.712 507.892 714.687 489.204 716.605 470.517ZM835.808 505.683C847.08 492.343 861.287 478.305 879.793 477.405C865.499 521.436 882.96 567.734 873.779 612.375C869.973 635.655 856.9 658.499 835.314 669.398C831.217 672.769 826.627 670.095 822.501 668.467C837.464 648.879 846.092 624.93 848.3 600.459C852.542 568.402 845.627 536.113 835.808 505.683ZM653.677 504.695C671.863 502.37 684.937 517.657 694.496 530.881C689.789 563.955 686.128 599.587 701.73 630.511C710.62 650.187 728.487 663.091 745.89 674.658C725.378 675.966 704.373 668.526 690.167 653.5C675.698 637.98 665.327 618.478 661.346 597.553C655.187 566.92 658.877 535.444 653.677 504.695ZM888.596 533.555C895.743 520.418 911.257 513.327 925.58 510.769C926.423 523.47 923.169 535.88 921.978 548.465C917.881 580.58 916.022 614.555 898.706 642.95C888.422 661.114 869.683 674.222 848.678 676.053C858.817 666.055 870.148 656.755 876.22 643.502C893.709 609.556 890.456 570.349 888.596 533.555ZM601.44 535.473C619.482 533.875 638.279 544.425 645.861 560.904C645.861 595.751 655.362 632.167 679.853 657.976C688.859 668.09 700.597 675.007 711.549 682.767C682.555 683.9 655.797 665.823 641.533 641.322C628.43 616.938 622.59 589.531 614.688 563.2C611.579 553.376 605.536 544.861 601.44 535.473ZM933.744 556.108C945.133 547.912 959.165 542.972 973.314 544.657C967.59 556.166 961.053 567.414 957.741 579.94C951.292 602.813 946.411 627.081 931.391 646.205C919.508 663.149 902.687 679.279 880.723 679.948C900.215 664.231 914.538 643.018 921.832 619.06C927.614 598.454 929.473 576.976 933.744 556.108ZM566.78 582.556C581.742 575.552 601.818 578.981 612.102 592.263C619.656 613.886 623.433 637.718 638.221 656.028C646.181 666.724 657.047 674.6 667.506 682.65C649.319 683.842 629.65 679.541 616.751 665.823C599.174 647.251 595.106 620.658 581.19 599.762C576.832 593.658 571.516 588.369 566.78 582.556ZM969.188 599.907C979.444 590.752 993.505 584.561 1007.42 587.497C1001.93 596.012 995.568 603.947 990.542 612.724C980.606 629.784 973.662 648.85 960.269 663.701C953.143 671.733 944.245 677.994 934.281 681.989C924.317 685.984 913.559 687.604 902.861 686.719C923.082 673.786 939.322 655.331 951.146 634.55C957.683 623.245 958.874 608.829 969.188 599.907ZM269.775 654.924C271.751 646.031 280.35 642.746 288.717 644.548L284.882 658.121C279.653 658.063 274.453 657.423 269.775 654.924ZM1281.18 656.232C1286.62 654.633 1293.53 655.912 1296 661.667C1302.48 676.896 1272.5 686.283 1269.13 670.328C1266.98 662.771 1274.71 657.394 1281.18 656.232ZM779.3 683.668C796.935 680.384 816.429 681.575 831.624 691.951C845.802 701.338 857.917 716.626 858.381 734.238C858.294 754.844 834.791 768.707 815.965 764.319C808.614 763.796 802.688 758.419 795.773 757.111C784.559 761.122 772.734 766.15 760.561 763.331C741.735 760.337 726.918 738.539 735.198 720.317C743.304 702.326 759.196 686.748 779.3 683.668ZM653.328 698.926C680.696 689.945 710.01 693.898 738.278 693.52C730.259 703.954 724.652 715.899 718.871 727.612C713.845 739.266 700.364 742.899 689.557 747.084C663.061 754.873 633.659 757.314 607.134 748.421C627.006 736.214 630.231 707.383 653.328 698.926ZM856.638 694.915C874.07 696.775 891.472 699.1 909.02 699.623C916.487 699.972 924.389 701.803 929.996 707.064C941.966 717.788 949.287 732.436 959.63 744.556C965.499 751.327 973.372 755.832 979.85 761.935C948.27 779.577 908.875 771.41 878.253 755.6C872.792 752.345 874.128 745.108 872.995 739.818C872.007 723.514 863.698 709.185 856.638 694.915ZM254.261 737.493C253.477 727.234 263.674 721.072 270.385 715.085L266.289 743.626C261.989 742.841 254.232 743.945 254.261 737.493ZM1293.36 735.807C1301.52 732.669 1313.69 735.401 1313.69 746.038C1311.17 756.966 1295.8 760.017 1287.63 753.565C1282.03 747.607 1285.4 737.377 1293.36 735.807ZM713.467 771.236C714.426 762.517 708.877 749.438 720.091 745.834C720.585 754.844 724.1 766.963 713.467 771.236ZM697.052 755.571L705.826 752.141L706.262 775.566L697.11 778.792L697.052 755.571ZM682.381 757.838L690.457 757.431V777.979C691.503 782.919 685.17 782.745 682.322 784.402L682.381 757.838ZM615.095 762.255L627.035 763.592L626.687 773.561C622.242 770.422 617.855 767.022 615.095 762.255ZM665.53 761.354L674.188 760.25C675.146 768.039 675.408 775.886 675.466 783.733L666.111 786C664.978 777.833 664.92 769.579 665.53 761.354ZM633.863 763.854L643.276 763.825L643.305 781.205L633.717 777.397L633.863 763.854ZM650.19 763.476L658.906 762.866V784.402L650.19 783.559V763.476ZM738.162 767.516L745.861 770.131L746.035 784.053L738.539 776.758L738.162 767.516ZM845.889 770.044L853.907 766.353C854.169 771.439 854.721 776.583 854.111 781.67C851.845 784.692 848.794 786.988 846.063 789.546L845.889 770.044ZM873.14 770.335C875.871 765.481 880.171 771.439 883.599 772.224L883.018 789.11L873.983 783.268C872.181 779.286 872.966 774.549 873.14 770.335ZM754.896 772.34L763.35 773.154L763.176 795.533L754.431 790.156L754.896 772.34ZM790.776 775.741L795.802 771.236L802.077 774.52L802.019 803.002L789.788 802.595L790.776 775.741ZM810.299 775.421L820.032 773.503C821.63 782.425 821.397 791.551 821.252 800.59L809.951 802.305L810.299 775.421ZM828.486 772.718L838.626 771.846L838.684 795.562L828.457 798.497L828.486 772.718Z" fill="white"/>
<path d="M771.397 774.694L782.757 775.624L782.641 801.055L771.775 798.526L771.397 774.694ZM890.397 775.653L900.769 778.676L900.856 794.022L891.094 791.551C890.107 786.291 890.513 780.943 890.397 775.653ZM951.989 786.523C952.599 777.688 962.128 778.385 968.607 777.019C964.307 781.989 959.165 787.075 951.989 786.523ZM907.887 781.175L917.213 781.408L916.98 796.986L907.771 794.399L907.887 781.175ZM924.389 782.774L932.785 782.977L932.756 795.01L924.592 796.521L924.389 782.774ZM940.048 782.135L946.004 781.234L946.672 791.842L939.67 793.731L940.048 782.135ZM269.862 787.337C276.951 787.366 284.156 786.552 291.157 787.918C295.399 793.353 302.575 802.595 295.196 808.553C289.792 806.693 291.186 800.503 290.17 796.143C282.5 798.352 285.812 806.664 285.027 812.477C277.677 810.733 281.57 801.404 280.234 795.998L271.634 796.201L269.862 787.337ZM789.933 813.349L802.832 813.988C797.981 830.7 792.432 847.556 792.286 865.14C791.473 881.183 794.552 897.022 797.341 912.717C791.357 911.757 782.234 910.13 781.246 902.806C775.465 873.045 777.005 841.075 789.933 813.349ZM274.772 853.195C279.594 851.887 284.621 851.567 289.589 851.015C290.46 854.415 292.232 857.787 291.797 861.42C286.945 864.122 281.192 864.268 275.847 865.343C275.411 861.303 274.685 857.264 274.772 853.195ZM1284.73 877.375L1295.62 879.148L1291.93 894.813C1280.92 895.744 1284.06 884.467 1284.73 877.375ZM1302.51 880.514L1311.54 881.27L1308 896.761C1298.99 895.715 1302.13 886.995 1302.51 880.514ZM798.707 920.622C826.394 902.486 863.059 900.132 893.448 912.629C913.174 920.215 934.325 924.109 955.475 922.046C972.471 951.516 992.197 979.562 1006.99 1010.2C961.925 1012.03 918.694 995.228 873.808 994.734C858.323 994.559 842.518 994.617 827.614 999.238C816.109 1002.41 806.144 1009.21 795.279 1013.89C794.93 982.73 799.317 951.778 798.707 920.622ZM813.204 927.306L817.33 933.032C822.225 931.044 827.145 929.116 832.088 927.248L829.125 921.436L813.204 927.306ZM835.604 920.825C836.795 927.946 844.029 926.958 849.52 927.801L850.188 921.029C845.307 920.854 840.456 920.738 835.604 920.825ZM857.626 921.232L856.812 927.568C862.129 928.614 867.416 929.748 872.733 930.881L873.401 924.226L857.626 921.232ZM878.108 926.812L878.282 932.945L890.339 934.02L889.903 927.655L878.108 926.812ZM898.416 929.486L897.776 935.735L911.722 937.74C912.274 936.403 913.436 933.758 914.017 932.422C908.875 931.027 903.645 930.126 898.416 929.486ZM920.815 939.135L934.267 938.961C934.528 930.009 918.52 929.573 920.815 939.135ZM815.877 942.012L820.235 947.418C827.324 944.744 834.732 943.117 842.228 942.042L842.925 936.055C833.596 936.163 824.389 938.191 815.877 942.012ZM851.263 935.589L851.321 942.361L864.918 944.105L866.022 937.682L851.263 935.589ZM874.244 938.903L871.774 944.919L886.94 948.145L887.869 941.664L874.244 938.903ZM893.971 948.842L911.112 951.197L911.838 944.512L896.149 942.594L893.971 948.842ZM922.384 945.791C921.541 947.273 919.914 950.267 919.101 951.778C927.003 953.028 935.022 953.638 943.04 953.87L942.024 947.825C935.458 947.128 928.95 945.965 922.384 945.791ZM842.46 950.557L843.128 957.126L860.182 957.155L860.734 950.644C854.633 950.325 848.532 950.325 842.46 950.557ZM828.689 953.841C825.319 955.265 820.235 955.643 819.363 959.945C823.867 965.438 830.2 961.136 835.284 959.102C836.562 955.091 832.466 950.964 828.689 953.841ZM867.533 951.342C864.54 961.136 875.871 958.956 881.768 960.642L882.32 953.841L867.533 951.342ZM887.782 955.324C886.33 965.263 897.166 963.287 903.587 964.944C906.376 954.655 893.796 957.3 887.782 955.324ZM911.954 959.015L911.664 965.961C917.794 965.467 930.693 972.151 929.734 961.223L911.954 959.015ZM937.608 961.223L936.329 967.995C942.866 967.879 952.25 971.454 956.579 964.856C953.151 958.521 943.621 962.735 937.608 961.223ZM848.213 965.031L848.038 972.384L862.361 971.919L862.042 964.449L848.213 965.031ZM820.758 972.674L827.353 978.865C832.815 975.755 843.099 975.087 839.061 966.193C832.786 967.85 826.685 970.088 820.758 972.674ZM868.898 973.343L884.674 975.232L885.051 968.257L871.629 965.554L868.898 973.343ZM892.082 970.204L891.036 977.586L909.891 980.26L910.879 973.11L892.082 970.204ZM918.171 973.75L916.457 981.364C922.873 982.043 929.305 982.546 935.748 982.876L935.458 975.813C929.685 975.215 923.922 974.527 918.171 973.75ZM942.256 982.149C946.701 987.846 955.475 985.114 961.837 986.334L961.605 979.243C955.301 980.057 944.813 973.285 942.256 982.149ZM717.04 911.757C741.096 906.061 768.347 906.439 789.381 920.941L785.197 1012.58C759.689 996.681 729.01 991.246 699.318 994.559C654.083 996.768 610.097 1011.79 564.572 1009.82C568.523 1003.16 573.2 997.03 578.081 991.072L636.564 917.686C663.496 919.14 690.747 918.18 717.04 911.757ZM736.331 922.627C735.314 930.678 744.64 927.684 749.521 928.963C752.31 920.215 741.677 920.767 736.331 922.627ZM713.496 932.131C719.685 931.248 725.809 929.957 731.828 928.266L728.225 923.238C722.415 924.284 711.985 923.208 713.496 932.131ZM754.866 928.963C760.968 931.579 769.509 938.147 774.128 929.893C768.55 928.469 755.854 918.471 754.866 928.963ZM694.873 931.753C697.313 936.839 703.85 933.729 708.237 934.369L707.395 927.074C703.211 928.411 697.517 927.568 694.873 931.753ZM654.025 930.416L653.56 936.955L664.077 936.868L663.845 930.416H654.025ZM673.752 930.213L673.49 937.217C678.603 936.52 684.53 938.089 689.062 935.095C688.481 927.132 678.923 931.462 673.752 930.213ZM720.265 938.583L721.253 945.239C725.872 943.64 735.517 946.227 735.808 939.31C731.508 935.822 725.291 938.786 720.265 938.583ZM743.187 937.246L743.158 943.611C750.944 944.628 758.44 947.041 766.052 948.988L770.758 944.221C762.101 940.065 752.746 937.798 743.187 937.246ZM698.127 942.361L698.737 948.726C704.315 948.029 709.864 947.099 715.384 945.849C712.595 937.653 704.373 941.751 698.127 942.361ZM642.549 944.774L641.387 951.4C649.87 951.807 658.383 952.417 666.866 951.371L665.559 945.82C657.86 945.674 650.19 945.209 642.549 944.774ZM674.739 944.715L674.885 951.429L692.287 949.714C692.055 939.513 681.131 945.239 674.739 944.715ZM702.049 955.44L704.838 962.299C710.154 960.497 720.294 961.223 717.418 952.621L702.049 955.44ZM722.792 953.028C725.756 961.311 734.907 958.346 741.735 958.898L743.071 952.272C736.302 952.102 729.53 952.355 722.792 953.028ZM680.201 959.422L682.961 965.554L697.575 963.258L695.948 956.195L680.201 959.422ZM748.707 960.497C754.75 962.822 762.972 968.693 766.429 959.799C761.549 957.823 756.61 955.934 751.642 954.19L748.707 960.497ZM655.071 961.369C655.506 971.773 667.215 965.903 673.664 966.658L672.793 959.654L655.071 961.369ZM629.127 960.933C628.226 971.483 641.038 966.339 647.314 968.286C647.488 965.932 648.592 963.49 647.546 961.223C641.416 960.729 635.257 960.875 629.127 960.933ZM720.526 966.978L723.054 973.692C727.179 973.692 731.334 973.779 735.488 973.895L736.738 966.687C731.334 966.077 725.872 965.99 720.526 966.978ZM698.737 969.245L700.509 976.86L715.5 973.982L713.554 966.891L698.737 969.245ZM746.151 967.821L743.333 974.593L757.597 980.638L762.74 974.476C757.3 972.041 751.766 969.821 746.151 967.821ZM673.432 973.343L674.071 980.812C680.579 980.057 687.029 979.068 693.478 977.906L691.416 971.047L673.432 973.343ZM647.517 975.959L648.476 983.05L667.447 981.481L666.605 974.244L647.517 975.959ZM618.987 976.22L619.016 983.98C626.275 984.179 633.539 983.985 640.777 983.399L640.748 976.249L618.987 976.22ZM1278.57 920.506C1287.63 914.809 1306.46 921.784 1301.84 934.543C1298.09 944.018 1285.14 942.158 1278.37 937.188C1272.41 933.497 1273.11 924.284 1278.57 920.506ZM291.274 942.943L310.129 937.856C313.673 942.681 318.322 948.261 313.789 954.19C308.531 946.75 299.989 948.319 293.075 952.243L291.274 942.943ZM297.055 984.794L302.343 998.802C298.217 1000.75 293.075 1008.19 288.891 1002.55C283.052 995.664 292.668 989.211 297.055 984.794ZM600.946 1016.1C639.731 1011.85 677.877 1000.84 717.156 1001.59C735.75 1001.68 754.867 1004.67 771.31 1013.77C774.855 1015.28 777.469 1018.07 778.399 1021.88C769.306 1018.83 760.822 1014.09 751.525 1011.56C731.741 1006.01 710.881 1006.27 690.602 1008.31C654.838 1012.9 619.249 1019.23 583.253 1021.62C575.234 1021.62 566.228 1023.24 559.691 1017.46C573.433 1016.97 587.233 1017.58 600.946 1016.1ZM804.024 1018.89C824.941 1003.92 851.844 1000.63 876.917 1001.91C921.658 1004.85 965.179 1019.67 1010.3 1017.98L1004.6 1021.33C960.414 1024 917.968 1006.16 873.808 1007C850.769 1006.13 827.76 1013.04 808.817 1026.12C806.871 1023.91 805.273 1021.5 804.024 1018.89ZM1248.91 1005.66L1258.55 1010.25L1250.36 1024.67C1240.63 1021.56 1245.68 1012.03 1248.91 1005.66ZM603.328 1025.69C648.853 1021.94 694.117 1007.64 740.05 1014.53C751.409 1016.85 764.134 1019.23 772.066 1028.51C759.486 1025.25 747.342 1019.82 734.268 1018.77C687.493 1012.75 641.59 1027.23 595.193 1030.31C585.984 1030.45 576.658 1030.92 567.564 1029.06C579.36 1026.85 591.416 1027.02 603.328 1025.69ZM837.812 1017.9C856.957 1011.39 877.469 1013.16 897.312 1013.65C933.308 1017.46 968.52 1028.94 1005.04 1026.96C996.275 1029.53 987.071 1030.24 978.02 1029.03C935.719 1025.92 893.418 1010.31 850.885 1020.28C836.882 1022.55 824.912 1030.71 811.316 1034.2C816.836 1024.7 828.166 1021.5 837.812 1017.9ZM1264.71 1013.71L1273.34 1016.5C1270.7 1021.33 1269.01 1027.4 1263.75 1030.1C1258.09 1025.74 1263.46 1018.91 1264.71 1013.71ZM571.457 1035.95C617.593 1038.39 662.305 1023.77 708.208 1022.26C728.487 1021.97 748.998 1025.45 767.475 1034L764.425 1040.57C743.391 1034.23 721.834 1028.53 699.725 1028.8C673.2 1029.96 647.691 1038.74 621.137 1039.55C604.577 1040.25 587.465 1040.71 571.457 1035.95ZM790.369 1020.95C801.38 1031.18 810.822 1044.66 812.972 1059.78C811.461 1070.41 798.155 1071.23 789.672 1071.2C781.595 1072.01 770.904 1069.22 769.248 1060.07C769.538 1044.49 781.13 1032.4 790.369 1020.95ZM848.968 1026.59C901.379 1013.94 953.122 1038.47 1005.79 1034.72C1003.41 1037.66 1000.04 1039.75 996.091 1039.35C979.211 1040.71 962.593 1037.25 946.091 1034.2C914.336 1029.73 881.681 1026.01 849.956 1032.81C838.887 1034.93 828.486 1039.26 817.765 1042.51C824.68 1032.25 837.928 1029.99 848.968 1026.59ZM644.379 1042.92C666.634 1039.46 688.859 1033.18 711.607 1034.96C728.138 1036.56 744.698 1039.75 760.357 1045.45L761.665 1051.2C734.675 1044.81 706.901 1039.49 679.068 1042.92C645.396 1047.13 611.085 1052.98 577.268 1046.82L573.752 1043.44C597.198 1046.09 621.021 1046.73 644.379 1042.92ZM842.199 1040.31C883.192 1028.45 926.19 1036.67 967.299 1043.39C979.037 1045.74 991.035 1045.01 1002.92 1045.51C999.577 1048.97 994.435 1048.68 990.048 1048.99C955.01 1049.78 920.583 1040.07 885.458 1041.9C862.942 1040.68 841.472 1048.21 819.509 1051.44C824.883 1044.26 834.296 1043.07 842.199 1040.31ZM673.2 1049.14C694.64 1047.4 716.517 1047.11 737.696 1051.52C745.57 1053.21 754.111 1053.91 760.735 1059.02C742.316 1056.26 723.867 1059.37 705.39 1058.73C661.898 1058.38 618.406 1059.17 574.914 1058.7L574.973 1052.51C607.628 1057.71 640.748 1053.94 673.2 1049.14ZM838.683 1053.44C877.701 1044.05 918.317 1047.28 957.625 1052.98C973.633 1055.39 989.844 1054.14 1005.97 1054.14L1003.44 1058.47C944.522 1058.85 885.574 1058.88 826.627 1058.44C830.403 1056.23 834.355 1054.28 838.683 1053.44ZM1232.61 1056.78L1238.07 1048.41L1248.12 1059.75L1232.61 1056.78ZM402.632 1255.37C584.208 1178.26 784.725 1157.39 978.281 1195.45C1046.26 1208.12 1112.04 1230.21 1176.01 1256.1C1163.35 1286.5 1148.47 1315.94 1135.02 1346.02C1028.19 1307.57 914.917 1286.04 801.264 1286.09C679.94 1283.97 558.558 1304.17 443.568 1342.51C429.855 1313.5 414.922 1285.02 402.632 1255.37ZM935.371 1192.92L936.881 1202.13C943.04 1205.59 946.265 1211.6 947.747 1218.35C935.312 1216.55 922.878 1215.01 910.414 1213.67L914.307 1222.5C919.188 1223.35 924.098 1224.25 928.921 1225.5C925.405 1229.65 920.118 1230.73 915.121 1231.95L917.038 1240.73C910.531 1243.75 900.362 1248.6 895.772 1240.06C899.287 1234.22 906.231 1237.44 911.605 1237.04C910.56 1232.12 907.712 1229.62 903.006 1229.6C905.475 1227.44 910.24 1226.78 910.211 1222.77C910.443 1213.96 898.706 1210.06 892.431 1214.92C888.073 1219.39 892.46 1224.71 894.029 1229.36C892.431 1234.22 888.538 1239.77 892.663 1244.5C897.428 1253.63 913.843 1256.36 918.694 1246.16C923.691 1251.77 930.664 1253.89 938.072 1253.14C936.707 1259.47 942.14 1262.9 946.062 1266.71L952.018 1227.91C959.303 1229.12 966.559 1230.51 973.778 1232.07C971.367 1237.65 964.859 1237.33 959.891 1238.81C961.634 1244.97 961.111 1252.88 966.66 1257.23C970.698 1260.98 976.538 1260.43 981.651 1261.04C980.141 1267.29 984.411 1271.42 988.624 1275.22L997.688 1237.5L1012.62 1240.52C1011.96 1244.15 1010.99 1247.72 1009.72 1251.19C1008.26 1254.04 1003.03 1256.19 1005.33 1259.85C1007.22 1263.16 1008.5 1269.7 1013.35 1269.03L1018.66 1264.15L1030.63 1266.91L1027.53 1277.67L1030.4 1281.91C1027.15 1284.58 1026.48 1290.02 1030.9 1291.97C1037.96 1295.92 1040.57 1303.88 1045.22 1310.04C1044.03 1301.29 1040.48 1293.07 1035.2 1286.04C1038.22 1273.63 1041.44 1261.25 1045.48 1249.13L1055.15 1252.03L1053.82 1242.67C1020.18 1233.52 986.271 1225.15 951.901 1219.22C949.112 1209.16 947.834 1195.27 935.371 1192.92ZM699.056 1212.59C701.09 1216.43 702.543 1221.4 707.917 1221.14C709.109 1227.79 707.947 1235.7 712.798 1241.16C718.057 1245.81 725.175 1245.14 731.45 1243.4C731.16 1250.52 735.198 1255.11 741.822 1257.44C741.473 1244.24 740.137 1231.11 740.398 1217.91L755.825 1218.14L755.244 1228.35L744.931 1227.39C745.831 1239.53 756.668 1247.29 763.96 1255.96C773.983 1251.39 757.685 1244.59 759.05 1239.3C766.546 1234.3 764.832 1225.18 764.977 1217.45L777.557 1217.36C777.382 1223.4 778.196 1230.18 772.647 1234.25C776.03 1238.48 779.762 1242.43 783.803 1246.05L788.045 1238.14L800.014 1238.58L799.578 1249.68L809.166 1255.43L809.224 1216.63L818.376 1216.87C818.288 1223.03 818.23 1229.45 813.727 1234.25C814.918 1239.48 819.973 1242.53 823.634 1246.05L828.486 1239.16L839.439 1239.19C839.758 1244.65 839.177 1250.78 843.826 1254.76L838.596 1254.97L842.228 1261.8C851.844 1261.77 856.435 1270.81 863.494 1275.66C860.415 1267.73 854.604 1261.36 848.619 1255.49L850.014 1218.06L859.892 1218.14L855.883 1209.4C803.617 1208.03 751.206 1208.5 699.056 1212.59ZM519.133 1252.35L527.036 1258.77C537.088 1254.27 547.256 1249.36 558.384 1248.43C552.253 1257.44 535.548 1254.47 533.195 1265.6C539.819 1265.17 547.314 1265.6 549.058 1273.34L538.453 1274.79L539.819 1282.67C547.14 1284.38 554.258 1286.76 560.94 1290.19C562.8 1285.4 557.832 1283.65 555.624 1280.72C557.018 1275.46 558.006 1270.2 553.59 1266.04C549.377 1261.97 557.715 1261.07 559.633 1259.3L566.344 1279.29L576.774 1282.03L565.095 1245.17L572.271 1242.5L580.841 1274.41L591.736 1277.87C588.075 1265.34 584.763 1252.7 581.451 1240.09L613.874 1232.53L615.85 1240.46C608.151 1242.18 600.248 1243.37 592.84 1246.16C587.407 1252.53 597.605 1257.99 602.747 1260.34C603.502 1252.03 609.807 1249.21 617.273 1248.72L620.12 1264.73L630.666 1269.7L623.723 1231.19L633.485 1229.45C634.269 1235.5 637.058 1242.41 630.957 1246.74C634.723 1250.99 639.171 1254.59 644.118 1257.38L646.936 1249.36L658.266 1247.73C659.37 1252.5 659.893 1257.7 663.409 1261.45C663.903 1264.38 664.048 1269.09 668.057 1269.24C676.366 1269.79 682.409 1275.63 688.772 1280.34C685.576 1271.85 677.877 1266.39 670.294 1262.12C668.377 1249.82 666.982 1237.41 665.326 1225.09L674.768 1223.32L670.178 1215.91C618.61 1221.75 567.128 1232.07 519.133 1252.35ZM717.331 1220.15L730.637 1218.52L730.811 1233.26C727.441 1235.23 724.158 1237.44 720.555 1238.9C716.662 1233.98 718.638 1226.17 717.331 1220.15ZM786.621 1216.57L800.043 1216.95L799.811 1229.71L786.97 1230.15L786.621 1216.57ZM827.527 1217.24L840.572 1217.5V1230.44L827.411 1230.61L827.527 1217.24ZM900.449 1217.62C906.899 1215.96 905.795 1227.07 899.839 1225.58C895.191 1224.83 896.353 1218.17 900.449 1217.62ZM642.549 1228.49L655.71 1225.9L658.005 1238.9L644.67 1241.13L642.549 1228.49ZM933.046 1225.15L943.011 1226.43C942.024 1231.54 941.326 1236.77 939.641 1241.77C934.15 1245.67 927.352 1244.07 921.454 1242.3C927.207 1237.41 936.126 1234.51 933.046 1225.15ZM979.211 1232.85L989.147 1235.5C986.503 1240.55 987.781 1249.39 980.954 1251.1C975.55 1253.57 969.798 1250.93 965.818 1247.15C973.488 1245.49 980.344 1241.98 979.211 1232.85ZM1019.3 1256.1L1021.66 1242.62L1036.36 1246.66L1033.39 1258.4L1019.3 1256.1ZM387.874 1312.25L400.395 1306.64C417.478 1341.69 434.096 1376.98 449.436 1412.81L440.343 1416.73L387.874 1312.25ZM1129.04 1413.45L1178.25 1307.17L1190.92 1312.98L1138.42 1417.58L1129.04 1413.45ZM365.561 1323.38L377.473 1317.25L429.564 1420.51L419.134 1425.6C400.889 1391.74 382.731 1357.79 365.561 1323.38ZM1196.41 1327.31C1198.06 1324.31 1199.31 1320.91 1201.93 1318.62C1205.94 1320.3 1209.74 1322.39 1213.64 1324.4L1160.24 1425.98L1149.31 1422.02C1164.01 1389.97 1180.69 1358.84 1196.41 1327.31ZM345.312 1335.53C348.101 1332.71 351.848 1331.23 355.277 1329.43L407.629 1429.76L398.187 1434.84L345.312 1335.53ZM1173.05 1428.85C1189.26 1395.75 1206.93 1363.29 1224.39 1330.79L1231.94 1335.88C1215.18 1369.13 1196.99 1401.65 1179.5 1434.52L1173.05 1428.85ZM443.48 1371.05L457.687 1374.3L470.238 1405.02L460.505 1409.18C454.637 1396.54 448.536 1384.01 443.48 1371.05ZM1121.1 1374.56L1135.54 1371.42C1130.31 1384.42 1124.18 1397.03 1118.2 1409.67L1108.41 1405.86C1112.13 1395.23 1116.66 1384.91 1121.1 1374.56ZM471.952 1377.38L484.474 1380.17C487.146 1386.1 489.442 1392.23 491.01 1398.57L480.871 1401.33C477.501 1393.48 474.189 1385.61 471.952 1377.38ZM1093.94 1381.57C1097.86 1379.07 1102.86 1379.24 1107.25 1378.02L1097.54 1402.03L1087.58 1399.18C1089.32 1393.19 1090.69 1386.94 1093.94 1381.57ZM498.768 1383.34C506.118 1384.88 513.846 1385.58 520.644 1389.1L501.963 1394.53L498.768 1383.34ZM1056.75 1389.53C1064.51 1387.06 1072.44 1385.23 1080.55 1384.27L1076.42 1395L1056.75 1389.53Z" fill="white"/>
</svg>
