<svg width="1380" height="1380" viewBox="0 0 1380 1380" fill="none" xmlns="http://www.w3.org/2000/svg">
<path d="M666.177 17H707.635C729.512 18.2788 751.417 19.6157 773.149 22.6092L796.681 120.088C826.822 126.055 856.531 134.026 885.611 143.949L958.911 72.5402C1006.3 92.7684 1052.23 117.153 1093.31 148.367L1065.91 243.288C1089.79 262.702 1111.55 284.5 1132.62 306.908L1223.49 271.944C1256.35 311.674 1284.1 355.531 1307.95 401.219L1238.48 473.209C1249.35 498.901 1259.17 525.058 1266.17 552.087C1299.03 556.446 1331.98 560.254 1364.66 565.747C1375.12 614.224 1378.78 663.807 1380 713.244V717.051L1284.3 749.282C1281.92 777.27 1277.85 805.084 1272.33 832.607C1299.58 852.806 1328.29 871.174 1353.91 893.495C1340.29 944.24 1319.08 992.63 1294 1038.7L1197.52 1017.42C1180.32 1044.54 1161.67 1070.72 1141.59 1095.81L1084.16 1050.99L1008.74 988.096C1020.01 974.175 1032.09 960.922 1042.12 946.042C1089.94 874.633 1117.83 789.07 1116.41 702.81C1116.12 618.049 1090.23 535.353 1042.15 465.565C987.586 385.67 905.193 325.014 812.253 297.869C726.722 272.497 633.057 273.804 549.037 304.466C460.136 335.622 383.03 397.934 332.013 476.958C312.374 507.765 297.121 541.333 285.471 575.948C268.679 626.17 263.072 679.675 265.744 732.396C274.373 828.596 315.628 920.524 377.859 993.938L246.773 1100.57C227.308 1076.45 207.291 1052.62 190.76 1026.31C188.639 1024.02 187.07 1018.87 182.973 1020.41L84.8918 1037.65C58.6282 990.916 38.9886 940.665 24.6657 889.048L111.213 835.775C104.938 805.956 100.057 775.846 97.8493 745.446L1.01684 717.08L0 707.576V680.576C1.59789 640.643 6.42063 600.826 15.8337 561.939L117.489 549.384C125.972 521.425 134.804 493.495 146.483 466.698C123.212 441.791 99.1857 417.581 75.3916 393.168C100.115 344.661 129.662 298.102 167.488 258.691L256.506 301.124C277.598 279.646 300.143 259.68 322.804 239.858L291.572 144.734C336.865 114.74 383.582 85.9675 434.366 66.1753L501.681 141.479C531.111 130.958 561.965 125.668 592.209 118.606C602.029 86.2 610.454 53.3293 619.605 20.6911C635.096 19.0687 650.624 17.8379 666.177 17ZM640.088 43.7965C630.471 76.3766 622.307 109.364 612.546 141.886C572.424 147.989 532.651 156.94 494.534 171.094C473.819 148.919 454.238 125.697 433.872 103.144C431.054 101.081 428.207 95.5585 424.11 98.4357C392.036 112.096 362.141 130.347 332.478 148.483C329.166 151.099 324.256 152.581 322.6 156.737C332.478 187.573 343.431 218.119 352.67 249.188C320.828 274.386 290.759 301.851 263.013 331.495C233.147 318.068 203.659 303.856 174.171 289.644C147.704 319.841 125.507 353.584 106.856 389.07C129.749 413.89 154.618 436.792 177.163 461.932C160.138 496.924 148.023 534.213 138.639 571.937C105.06 576.591 71.4242 580.825 37.7394 584.638C28.704 621.868 25.2177 660.406 26.3507 698.683L123.357 727.281C123.735 764.657 129.546 801.742 138.465 837.955C138.668 841.53 142.271 846.906 137.884 849.202C110.661 867.222 81.9865 882.974 54.7642 901.022C65.3975 935.317 78.2387 968.973 94.1886 1001.17C96.2514 1003.88 97.0067 1008.67 100.842 1009.37C133.991 1005.19 166.936 996.263 199.882 993.212C215.774 1018.06 231.608 1043.17 251.363 1065.23L331.897 1000.1C335.848 996.961 339.48 993.444 342.966 989.811C273.385 898.872 231.23 783.025 242.386 667.672C250.55 565.398 295.901 466.757 367.458 393.371C430.182 328.386 512.547 282.175 601.186 264.33C659.437 251.716 720.099 252.675 778.494 263.719C878.668 282.843 971.113 338.151 1036.6 416.186C1095.55 485.997 1132.7 574.204 1140.43 665.318C1151.5 779.014 1115.39 895.5 1045.28 985.306C1075.44 1011.38 1106.24 1036.72 1138.22 1060.52C1155.42 1037.85 1170.85 1013.93 1185.43 989.55L1281.25 1010.27C1299.23 975.89 1314.95 940.2 1325.76 902.882C1299.9 881.434 1270.97 864.112 1244.61 843.302C1254.32 806.363 1258.01 768.173 1261.9 730.275L1354.81 699.497C1354.22 662.084 1350.67 624.777 1344.21 587.922L1246.24 574.727C1238.6 537.584 1223.9 502.65 1209.84 467.628L1277.85 397.586C1259.72 364.308 1239.44 332.135 1216.23 302.17C1185.93 313.447 1156.09 326.177 1125.5 336.523C1099.06 305.949 1069.57 278.106 1037.91 252.966L1065.07 158.917C1033.78 137.003 1000.25 117.559 964.78 103.435C939.794 125.465 917.25 150.169 892.904 172.925C854.99 159.701 816.234 148.861 776.635 142.06L753.887 46.6156C716.322 40.5414 677.972 42.8955 640.088 43.7965ZM708.245 177.808L717.426 177.43C717.542 191.671 716.438 205.854 716.176 220.095L706.589 220.328L708.245 177.808ZM649.297 179.232L659.175 178.389C664.608 187.283 670.099 196.147 676.345 204.488L675.328 177.721L684.015 177.692C684.422 191.875 685.758 205.999 685.613 220.182C682.185 219.165 677.13 220.88 674.951 217.276C669.227 208.964 664.288 200.129 658.391 191.933C659.437 201.785 659.814 211.667 660.279 221.577C655.602 221.897 649.878 221.083 650.953 214.98L649.297 179.232ZM726.374 177.953L735.525 179.523C741.394 188.503 744.793 198.792 748.715 208.731C750.429 199.547 751.301 190.247 751.969 180.947L760.772 181.121L757.112 223.234C753.919 223.459 750.71 223.164 747.611 222.362C742.614 212.975 739.07 202.861 733.753 193.648L730.993 221.868L722.8 219.892C723.062 205.854 725.27 191.933 726.374 177.953ZM617.165 183.214L628.234 181.15C634.974 194.636 641.453 208.266 648.774 221.461L638.606 222.827L635.003 214.98C630.239 215.445 625.474 215.736 620.797 216.695C619.315 219.456 618.182 222.362 617.368 225.414L608.275 226.983C611.006 212.364 614.405 197.862 617.165 183.214ZM621.436 208.441L630.82 207.365C628.722 202.712 626.493 198.118 624.138 193.589C623.034 198.501 622.191 203.471 621.436 208.441ZM588.403 187.777L597.613 186.178L605.573 228.291L595.869 228.756C593.807 215.009 590.756 201.466 588.403 187.777ZM766.96 197.048C767.222 182.603 787.065 180.54 795.781 188.707C799.616 192.02 799.558 197.542 801.155 201.96C792.178 203.18 789.621 193.095 781.864 191.729L774.979 196.874C781.341 200.768 788.372 203.587 794.56 207.83C801.155 212.423 798.802 223.728 792.062 227.129C780.15 233.319 762.138 225.792 762.748 210.94L771.638 212.393C772.626 220.618 790.29 225.472 788.198 214.457C781.109 209.08 767.425 207.83 766.96 197.048ZM805.92 197.891L806.937 189.608L840.696 197.92L839.389 205.999L826.489 203.151C824.012 214.434 821.154 225.63 817.919 236.72L808.941 233.464C811.992 222.508 814.984 211.492 817.367 200.361L805.92 197.891ZM546.364 197.716C555.777 195.624 565.277 191.555 575.097 193.27C586.747 198.617 589.739 214.573 586.108 225.792C580.268 236.022 566.991 235.789 556.997 238.986L546.364 197.716ZM557.549 202.773L564.26 229.25C567.747 228.088 571.349 227.041 574.69 225.414C580.849 219.979 578.089 210.214 574.254 204.168C570.216 198.327 563.069 202.076 557.549 202.773ZM845.432 199.925L854.496 202.512L841.829 243.259L832.765 240.352L845.432 199.925ZM528.09 203.384L537.009 201.03C541.105 214.486 546.189 227.623 550.402 241.05L541.28 243.753C533.319 236.574 525.272 229.483 516.904 222.74L526.085 249.159L517.689 252.588L503.54 212.713C506.707 211.347 509.932 210.068 513.157 208.761C520.78 215.907 528.688 222.743 536.864 229.25C534.075 220.589 531.024 212.016 528.09 203.384ZM859.115 203.849L891.683 215.736L888.923 223.641L877.215 219.252C872.451 229.773 870.446 241.66 864.112 251.338L857.024 248.432C859.261 237.243 864.461 226.925 868.122 216.201L856.472 211.405L859.115 203.849ZM420.711 223.612C422.745 218.38 429.485 218.671 433.93 217.131C431.722 220.996 428.207 224.222 426.87 228.553C429.369 231.43 432.361 233.813 435.325 236.196L444.563 230.471L447.498 236.632L440.728 240.498L445.929 249.391C440.99 252.879 433.146 254.506 432.565 261.685C438.753 260.057 443.547 254.623 449.938 254.129C458.218 257.907 456.039 268.137 454.093 275.17L464.668 274.938L462.518 281.826C452.989 280.198 443.401 280.257 433.814 280.954L433.727 273.369L447.585 271.944L448.747 262.121C441.28 268.341 428.875 270.026 422.745 261.162C419.781 251.368 438.288 253.024 434.86 244.276C426.696 247.676 419.317 252.675 411.792 257.267C418.677 267.323 425.098 277.699 431.955 287.784L424.895 292.725L420.508 284.587C415.627 288.685 410.746 294.701 403.57 293.19C395.319 292.87 390.032 281.884 394.738 275.112C397.731 270.375 404.384 264.243 409.032 270.578L401.159 277.234L414.349 276.449L404.994 261.54L381.2 278.716C387.882 287.406 394.709 295.951 401.507 304.554C407.986 302.316 417.021 302.461 419.52 310.308C420.711 322.602 405.894 331.379 394.941 327.862L394.738 323.038C402.989 322.747 411.443 319.87 413.041 310.715C408.015 310.076 404.413 313.36 400.665 316.034C395.203 310.686 390.874 304.379 386.197 298.363L378.469 304.757L381.2 313.534C375.632 313.631 370.063 313.641 364.494 313.563L366.179 304.67L359.788 296.794C356.999 300.456 348.748 305.28 348.922 297.346C373.413 275.054 400.723 255.698 429.659 239.568C425.505 235.208 417.719 230.762 420.711 223.612ZM402.059 282C399.706 287.987 414.639 287.581 412.547 281.71C409.003 279.762 405.517 279.879 402.059 282ZM365.453 290.865L373.588 300.514L381.955 292.899C379.573 290.051 377.277 287.145 374.721 284.5C371.467 286.389 368.504 288.656 365.453 290.865ZM487.125 218.003L496.103 216.956C502.029 229.308 506.62 242.242 512.024 254.826L503.192 258.459C497.846 244.974 491.541 231.866 487.125 218.003ZM897.291 218.177L906.152 222.478C901.184 232.331 896.419 242.329 893.136 252.908C896.76 255.983 901.203 257.932 905.919 258.517C910.916 249.275 914.519 239.364 919.632 230.209C922.392 227.506 925.878 232.389 928.842 233.116C923.932 242.242 920.504 252.123 915.245 261.104C906.936 275.665 879.162 262.906 884.74 246.979C887.936 236.981 893.252 227.826 897.291 218.177ZM930.091 242.648L934.652 235.47C944.211 241.37 954.495 246.049 963.937 252.181L961.352 259.592L949.527 253.605L932.677 283.686C930.033 282.058 927.447 280.344 924.92 278.6C929.655 268.311 935.843 258.808 941.131 248.81L930.091 242.648Z" fill="#004F9F"/>
<path d="M946.825 290.516C953.943 278.484 962.165 267.149 969.777 255.465L996.186 273.049L991.276 279.646C985.233 275.577 979.132 271.625 973.002 267.759L968.905 274.792L985.64 285.168L981.688 292.289C975.936 288.714 970.445 284.703 964.402 281.651C962.252 284.006 960.422 286.621 958.534 289.15C964.054 292.841 969.748 296.329 975.123 300.281C980.585 301.444 974.687 310.192 971.288 307.082C962.688 302.345 954.118 297.142 946.825 290.516ZM361.589 269.067L369.114 262.876L374.372 270.026L366.906 275.49L361.589 269.067ZM1009.14 296.735C1021.37 289.005 1038.86 299.438 1039.42 313.447C1039.62 323.154 1033 331.466 1025.12 336.407C1013.07 343.498 995.605 333.297 995.692 319.376C994.791 309.901 1001.5 301.473 1009.14 296.735ZM1012.05 306.21C1007.95 309.465 1005.22 314.319 1004.18 319.405C1004.5 322.468 1006.02 325.278 1008.41 327.217C1010.8 329.157 1013.87 330.069 1016.93 329.751C1024.42 326.729 1031.6 318.969 1029.86 310.337C1027.68 302.548 1017.54 300.891 1012.05 306.21ZM1022.91 349.195C1033.29 339.342 1042.29 328.153 1053.16 318.795L1074.8 340.592L1067.77 345.765L1053.3 331.263L1048.89 336.93C1050.63 342.452 1056.7 345.678 1060.51 349.892L1055.02 356.286L1042.41 343.644L1029.25 356.257L1022.91 349.195ZM303.048 337.802C307.086 334.314 310.863 326.293 317.226 330.158L314.698 336.988C322.862 345.388 331.578 353.293 340.032 361.402L334.774 368.202C329.922 363.349 325.419 358.059 319.782 354.107C317.293 356.017 314.88 358.024 312.548 360.123L316.674 370.527C311.415 369.714 303.106 373.376 300.027 367.708C301.77 359.919 310.108 355.414 313.827 348.468C311.99 346.199 310.081 343.989 308.103 341.842L286.256 366.546L314.814 389.913L310.369 396.685C300.608 389.099 291.078 381.223 281.491 373.405L275.68 379.944C285.355 387.326 294.913 394.883 304.878 401.858L301.043 408.949L291.398 402.265C289.945 409.792 286.837 417.93 279.486 421.505C273.182 423.772 265.221 422.028 261.357 429.119L257.087 422.696L266.848 416.622C267.371 413.222 270.073 409.443 267.575 406.246C265.919 401.015 257.348 398.748 257.348 406.188L267.691 411.303C261.212 416.593 253.223 416.36 249.33 408.542C251.392 403.456 252.816 396.975 258.772 395.028C263.507 394.272 269.144 394.301 272.601 398.167C277.395 402.672 276.058 409.821 276.93 415.692C282.304 410.897 286.401 403.689 282.856 396.452C279.603 392.935 275.622 390.145 271.962 387.094C268.737 388.576 264.815 393.284 262.316 388.314C273.298 369.743 288.987 354.194 303.048 337.802ZM661.006 381.92C670.913 365.587 679.861 348.323 693.341 334.576C705.979 350.328 717.048 367.33 725.822 385.582C743.457 366.749 769.314 353.583 795.606 360.094C790.29 375.003 787.036 390.552 785.38 406.305C801.998 395.871 823.061 387.326 842.497 394.883C837.645 407.845 834.304 421.272 832.067 434.932C850.516 428.741 873.555 421.563 890.725 434.67C881.021 446.819 871.724 459.549 867.337 474.691C884.188 468.268 903.769 465.914 920.649 473.499C925.82 475.621 929.307 480.097 931.95 484.834C901.852 496.982 890.899 529.708 874.455 554.79C863.88 572.169 846.913 585.219 827.361 590.857C833.113 595.42 839.214 599.722 843.834 605.534C852.84 616.055 857.866 629.715 868.819 638.579C877.157 646.339 889.388 644.915 899.818 647.037C894.705 666.277 878.929 680.402 862.747 690.748C836.048 707.518 802.259 705.919 773.178 696.793C766.728 694.992 761.644 690.574 756.821 686.156C747.989 701.88 729.425 705.658 713.562 710.25C701.011 737.657 698.571 769.394 704.788 798.748C719.43 795.202 734.073 790.988 749.296 790.93C775.822 789.709 799.238 804.764 825.066 807.874C835.612 809.56 846.274 808.252 856.791 807.147L918.383 911.427C913.589 921.628 907.517 932.323 908.795 944.007C909.987 953.017 918.296 958.074 924.048 964.148H726.432C713.475 972.954 698.716 980.482 682.504 978.825C669.286 978.709 658.1 971.356 647.351 964.584C634.103 962.346 620.535 964.526 607.142 964.468C555.806 964.468 504.441 964.468 453.105 964.439C456.533 958.248 462.779 952.058 460.949 944.356C457.87 932.062 449.183 922.355 442.384 911.979C470.42 875.185 499.705 839.379 528.671 803.311C557.782 806.246 587.299 803.834 615.712 797.149C631.314 793.633 647.525 793.604 663.214 796.568C658.681 766.924 660.657 736.116 671.958 708.157C661.296 704.524 650.372 701.298 640.698 695.486C634.161 691.475 629.222 685.488 623.237 680.809C599.385 687.609 574.864 697.84 549.502 692.027C522.599 685.226 495.435 668.893 484.482 642.212C493.343 636.632 503.017 631.197 507.985 621.519C514.755 608.673 523.848 597.28 534.743 587.689C522.337 583.562 510.339 577.285 501.768 567.171C485.47 548.396 481.78 522.471 467.108 502.65C461.675 493.96 452.698 488.612 444.476 482.945C453.308 460.915 480.211 458.066 500.228 464.373C496.132 451.237 488.636 439.669 479.136 429.817C473.79 425.806 480.734 421.795 484.569 420.691C504.354 414.559 526.23 421.534 540.728 435.804C539.827 419.18 534.336 403.456 528.99 387.849C551.855 381.165 576.782 390 592.79 407.031C595.782 389.07 600.111 370.469 594.591 352.537C619.751 351.084 646.276 360.646 661.006 381.92ZM692.586 359.977C685.729 367.214 679.628 375.207 675.038 384.1C655.544 421.737 645.114 465.39 652.784 507.62C656.125 525.319 661.993 543.687 674.922 556.824C681.081 561.823 688.635 568.449 697.205 565.717C708.884 560.341 716.699 549.18 721.174 537.439C736.194 499.482 736.426 456.352 723.933 417.639C717.309 396.772 709.233 375.061 692.586 359.977ZM612.604 366.517C610.686 385.204 608.711 403.892 605.166 422.348C600.809 449.667 594.184 478.498 604.091 505.411C612.517 533.05 633.841 559.672 664.376 562.55C643.69 537.729 635.904 504.713 637.531 472.947C639.332 450.103 644.62 427.695 652.29 406.13C648.629 386.803 631.691 370.818 612.604 366.517ZM731.807 401.683C741.627 432.113 748.541 464.402 744.299 496.459C742.091 520.931 733.463 544.879 718.501 564.468C722.626 566.095 727.216 568.769 731.313 565.398C752.899 554.499 765.973 531.655 769.779 508.375C778.959 463.734 761.499 417.436 775.792 373.405C757.286 374.306 743.079 388.343 731.807 401.683ZM549.676 400.695C554.876 431.444 551.187 462.92 557.346 493.553C561.326 514.479 571.698 533.98 586.166 549.5C600.373 564.526 621.378 571.966 641.889 570.658C624.486 559.091 606.619 546.187 597.729 526.511C582.128 495.587 585.788 459.956 590.495 426.881C580.936 413.658 567.863 398.37 549.676 400.695ZM784.595 429.555C786.455 466.35 789.709 505.556 772.219 539.502C766.147 552.755 754.816 562.055 744.677 572.053C765.682 570.222 784.421 557.115 794.706 538.95C812.021 510.555 813.88 476.58 817.977 444.465C819.168 431.88 822.422 419.47 821.579 406.77C807.256 409.327 791.742 416.419 784.595 429.555ZM497.439 431.473C501.536 440.861 507.579 449.376 510.687 459.2C518.59 485.531 524.429 512.938 537.532 537.322C551.797 561.823 578.554 579.9 607.549 578.767C596.596 571.007 584.859 564.09 575.852 553.976C551.361 528.167 541.861 491.751 541.861 456.904C534.278 440.425 515.481 429.875 497.439 431.473ZM829.743 452.108C825.472 472.976 823.613 494.454 817.832 515.06C810.537 539.018 796.215 560.231 776.722 575.948C798.686 575.279 815.507 559.149 827.39 542.205C842.41 523.081 847.291 498.813 853.741 475.94C857.053 463.414 863.59 452.167 869.313 440.657C855.164 438.972 841.132 443.913 829.743 452.108ZM462.779 478.556C467.515 484.369 472.832 489.658 477.19 495.762C491.106 516.658 495.173 543.251 512.75 561.823C525.649 575.541 545.318 579.842 563.505 578.651C553.046 570.6 542.18 562.724 534.22 552.029C519.432 533.719 515.655 509.887 508.102 488.263C497.817 474.981 477.741 471.552 462.779 478.556ZM865.187 495.907C854.874 504.83 853.683 519.245 847.146 530.551C835.321 551.331 819.081 569.786 798.86 582.719C809.559 583.604 820.316 581.985 830.28 577.989C840.245 573.994 849.142 567.733 856.268 559.701C869.662 544.85 876.605 525.784 886.541 508.724C891.567 499.947 897.93 492.013 903.421 483.497C889.504 480.562 875.443 486.752 865.187 495.907ZM675.299 579.668C655.195 582.749 639.303 598.327 631.198 616.317C622.918 634.54 637.734 656.337 656.561 659.331C668.734 662.15 680.558 657.122 691.772 653.111C698.687 654.419 704.614 659.796 711.964 660.319C730.79 664.707 754.294 650.844 754.381 630.238C753.916 612.626 741.801 597.338 727.623 587.951C712.429 577.575 692.934 576.384 675.299 579.668ZM549.327 594.926C526.23 603.384 523.005 632.215 503.133 644.421C529.659 653.315 559.06 650.873 585.556 643.084C596.363 638.899 609.844 635.266 614.87 623.612C620.651 611.899 626.259 599.954 634.277 589.52C606.009 589.898 576.695 585.946 549.327 594.926ZM752.638 590.915C759.697 605.186 768.006 619.514 768.994 635.818C770.127 641.108 768.791 648.345 774.253 651.6C804.874 667.41 844.27 675.577 875.85 657.936C869.371 651.832 861.498 647.328 855.629 640.556C845.286 628.436 837.965 613.788 825.995 603.064C820.388 597.803 812.486 595.972 805.019 595.624C787.472 595.101 770.069 592.775 752.638 590.915ZM609.466 667.236C620.099 662.964 616.584 650.844 616.09 641.835C604.876 645.438 610.425 658.517 609.466 667.236ZM593.051 651.571L593.109 674.792L602.261 671.566C602.232 663.748 602.145 655.959 601.825 648.141L593.051 651.571ZM578.38 653.838C578.085 662.69 578.065 671.549 578.322 680.402C581.169 678.745 587.502 678.919 586.456 673.979C586.776 667.12 586.515 660.261 586.456 653.431L578.38 653.838ZM511.094 658.255C513.854 663.022 518.241 666.422 522.686 669.561L523.035 659.592L511.094 658.255ZM561.529 657.354C560.919 665.579 560.977 673.833 562.11 682L571.465 679.733C571.407 671.886 571.146 664.039 570.187 656.25L561.529 657.354ZM529.862 659.854L529.717 673.397L539.304 677.205L539.275 659.825L529.862 659.854ZM546.189 659.476V679.559L554.905 680.402V658.866L546.189 659.476ZM634.161 663.516L634.539 672.758L642.034 680.053L641.86 666.132L634.161 663.516ZM741.888 666.044C741.845 672.545 741.903 679.047 742.062 685.546C744.793 682.988 747.844 680.692 750.11 677.67C750.72 672.584 750.168 667.439 749.907 662.353L741.888 666.044ZM769.139 666.335C768.965 670.549 768.181 675.287 769.982 679.268C772.8 681.477 775.938 683.221 779.017 685.11L779.598 668.224C776.17 667.439 771.87 661.481 769.139 666.335ZM650.895 668.34L650.43 686.156L659.175 691.533C659.466 684.064 659.495 676.594 659.35 669.154L650.895 668.34ZM686.775 671.741C686.688 680.692 686.223 689.644 685.787 698.595L698.019 699.002L698.077 670.52L691.801 667.236L686.775 671.741ZM706.299 671.421L705.95 698.305L717.251 696.59C717.397 687.551 717.629 678.425 716.031 669.503L706.299 671.421ZM724.486 668.718L724.457 694.497L734.683 691.562L734.625 667.846L724.486 668.718ZM667.397 670.695C667.368 678.629 667.455 686.592 667.775 694.527L678.64 697.055C678.786 688.598 678.786 680.111 678.757 671.625L667.397 670.695ZM786.397 671.654C786.513 676.943 786.106 682.291 787.094 687.551L796.856 690.022L796.768 674.676L786.397 671.654ZM847.988 682.523C855.164 683.076 860.307 677.989 864.606 673.02C858.128 674.386 848.598 673.688 847.988 682.523ZM803.886 677.176L803.77 690.4L812.98 692.986C813.212 687.784 813.27 682.581 813.212 677.408L803.886 677.176ZM820.388 678.774L820.592 692.521L828.755 691.01L828.784 678.978L820.388 678.774ZM836.048 678.135L835.67 689.731L842.672 687.842L842.003 677.234L836.048 678.135ZM685.933 709.349C673.004 737.075 671.465 769.045 677.246 798.806C678.234 806.13 687.356 807.758 693.341 808.717C690.552 793.022 687.472 777.183 688.286 761.14C688.431 743.557 693.98 726.7 698.832 709.988L685.933 709.349ZM694.707 816.622C695.317 847.778 690.93 878.731 691.278 909.887C702.144 905.207 712.109 898.406 723.614 895.239C738.518 890.617 754.323 890.559 769.808 890.734C814.694 891.228 857.924 908.026 902.985 906.195C888.197 875.563 868.47 847.516 851.475 818.046C830.324 820.11 809.174 816.215 789.447 808.63C759.058 796.132 722.394 798.486 694.707 816.622ZM613.04 807.758C586.747 814.181 559.496 815.14 532.564 813.687L474.081 887.072C469.2 893.03 464.523 899.162 460.571 905.818C506.097 907.794 550.083 892.768 595.318 890.559C625.009 887.246 655.689 892.681 681.197 908.579L685.381 816.942C664.347 802.439 637.095 802.061 613.04 807.758ZM496.945 912.095C483.232 913.578 469.432 912.967 455.691 913.461C462.227 919.245 471.234 917.617 479.252 917.617C515.248 915.234 550.838 908.898 586.602 904.306C606.88 902.272 627.74 902.01 647.525 907.561C656.822 910.09 665.305 914.827 674.399 917.879C673.469 914.072 670.854 911.282 667.31 909.77C650.866 900.673 631.75 897.68 613.156 897.593C573.877 896.837 535.731 907.852 496.945 912.095ZM700.023 914.885C701.272 917.501 702.87 919.913 704.817 922.122C723.759 909.044 746.769 902.127 769.808 902.999C813.968 902.156 856.413 920.001 900.603 917.327L906.297 913.984C861.178 915.67 817.657 900.848 772.916 897.912C747.844 896.634 720.941 899.918 700.023 914.885ZM499.328 921.686C487.416 923.023 475.359 922.849 463.564 925.058C472.657 926.918 481.983 926.453 491.193 926.307C537.59 923.227 583.493 908.753 630.268 914.769C643.342 915.815 655.486 921.25 668.065 924.505C660.134 915.234 647.409 912.851 636.049 910.526C590.117 903.638 544.853 917.937 499.328 921.686ZM733.811 913.897C724.166 917.501 712.835 920.698 707.315 930.202C720.912 926.714 732.882 918.547 746.885 916.281C789.418 906.312 831.719 921.919 874.019 925.029C883.071 926.236 892.275 925.533 901.038 922.965C864.519 924.941 829.307 913.461 793.311 909.654C773.468 909.16 752.957 907.387 733.811 913.897ZM467.457 931.946C483.465 936.712 500.577 936.247 517.137 935.549C543.691 934.736 569.199 925.959 595.724 924.796C617.833 924.535 639.39 930.231 660.424 936.567L663.475 929.998C644.997 921.454 624.486 917.966 604.208 918.257C558.304 919.768 513.592 934.387 467.457 931.946ZM686.368 916.949C677.13 928.4 665.538 940.49 665.247 956.068C666.903 965.223 677.595 968.013 685.671 967.2C694.155 967.229 707.461 966.415 708.971 955.778C706.822 940.665 697.379 927.179 686.368 916.949ZM744.968 922.587C733.928 925.988 720.68 928.255 713.765 938.514C724.485 935.259 734.886 930.928 745.955 928.807C777.681 922.006 810.336 925.726 842.091 930.202C858.592 933.253 875.211 936.712 892.09 935.346C896.041 935.753 899.411 933.66 901.794 930.725C849.121 934.474 797.379 909.945 744.968 922.587ZM540.379 938.921C517.021 942.728 493.198 942.089 469.752 939.444L473.267 942.815C507.085 948.977 541.396 943.135 575.068 938.921C602.9 935.491 630.675 940.81 657.664 947.204L656.357 941.449C640.698 935.753 624.138 932.556 607.607 930.958C584.859 929.185 562.633 935.462 540.379 938.921ZM738.198 936.305C730.296 939.066 720.883 940.258 715.508 947.437C737.472 944.21 758.942 936.683 781.458 937.904C816.582 936.073 851.01 945.78 886.047 944.995C890.434 944.675 895.576 944.966 898.918 941.508C887.035 941.013 875.036 941.74 863.299 939.386C822.19 932.672 779.192 924.447 738.198 936.305ZM569.199 945.14C536.747 949.936 503.627 953.714 470.972 948.512L470.914 954.702L601.39 954.731C619.867 955.371 638.315 952.261 656.735 955.022C650.111 949.907 641.569 949.209 633.696 947.524C612.517 943.106 590.64 943.397 569.199 945.14ZM734.683 949.442C730.354 950.285 726.403 952.232 722.626 954.441L899.44 954.47L901.968 950.139C885.844 950.139 869.632 951.389 853.624 948.977C814.316 943.28 773.701 940.054 734.683 949.442ZM1087.64 354.572L1110.1 381.339L1102.87 386.28C1100.46 383.228 1098.19 380.06 1095.31 377.474C1086.05 383.897 1077.97 391.802 1069.08 398.719L1062.8 391.569L1089.15 369.481L1081.22 359.803L1087.64 354.572ZM1078.75 411.042C1090.23 402.526 1101.73 394.011 1113.7 386.193L1132.09 412.35L1124.74 415.895C1119.4 411.013 1117.04 401.48 1110.07 399.475C1102.05 405.665 1114.92 413.338 1117.63 419.47L1110.83 424.498C1106.99 418.892 1103.02 413.369 1098.94 407.932L1091.13 414.21L1104.2 431.473L1098.02 437.722L1078.75 411.042ZM239.19 422.057C241.166 418.366 244.158 415.43 247.79 413.367L247.528 423.423C252.671 427.811 258.104 432.462 259.789 439.35L276.232 437.257L275.535 444.494C264.553 446.761 253.223 446.732 242.067 447.313C241.137 440.687 246.715 438.972 251.828 437.286C249.082 434.812 246.138 432.566 243.025 430.572C237.215 435.281 234.861 443.157 231.027 449.435C242.27 454.899 253.281 460.798 264.234 466.844L260.05 472.86C253.891 471.029 248.487 467.396 242.589 464.925L238.522 472.191C236.998 470.536 235.497 468.86 234.019 467.163C241.137 460.944 230.242 459.2 227.163 455.945C225.477 459.258 223.763 462.542 222.311 466.001C227.715 470.796 234.222 474.807 236.837 481.957L253.223 477.655L252.903 485.328C242.125 488.757 230.794 489.775 219.638 491.083C218.766 484.398 224.925 482.422 229.574 479.719L218.127 474.458L210.603 491.315L205.78 487.304C214.757 464.548 226.465 442.924 239.19 422.057ZM1105.6 449.9C1101.65 429.788 1133.4 414.82 1145.55 431.88C1152.11 439.902 1150.31 451.353 1142.84 458.066L1138.37 450.248C1141.91 444.058 1140.61 434.758 1132.59 433.304C1124.34 434.06 1112.51 440.018 1115.04 450.016C1115.71 455.829 1122.54 456.817 1127.27 456.206L1132.15 464.955C1120.73 468.965 1107.25 462.281 1105.6 449.9ZM207.232 446.092L212.142 437.722L219.58 442.518L215.077 450.277L207.232 446.092ZM1124.6 473.761L1159.11 456.991L1163.06 465.158L1149.06 472.714L1155.83 486.171L1169.8 479.428L1174.13 487.798C1161.73 494.483 1148.92 500.325 1136.25 506.457L1131.43 498.523L1148.51 489.949L1141.71 475.853L1124.42 484.456C1123.61 480.852 1118.5 475.301 1124.6 473.761ZM1138.22 512.56L1178.06 496.953L1181.19 505.847C1175.76 514.973 1167.94 522.5 1161.9 531.248C1170.36 527.993 1178.64 524.186 1187.38 521.686L1191.13 529.301L1150.72 544.908L1147.87 535.666C1154.8 527.587 1161.52 519.32 1168 510.875C1159.43 513.824 1151.01 517.179 1142.76 520.931L1138.22 512.56ZM186.692 532.672L191.747 527.557C193.287 530.26 194.653 533.079 195.844 535.986C206.535 539.938 217.575 542.903 227.976 547.553L226.436 555.109C214.408 551.186 202.584 546.681 190.469 543.019L184.165 567.025L190.876 569.321C190.963 562.172 193.926 552.319 202.875 553.162C210.806 552.871 224.054 563.915 215.106 570.833C210.196 567.142 205.693 558.364 198.546 561.678C195.553 574.349 211.794 572.954 219.318 576.645L218.185 584.085L208.918 581.877C208.888 588.154 207.407 596.176 199.998 597.513C189.685 601.088 180.272 589.956 184.688 580.162L189.975 578.505C191.079 583.097 190.498 591.264 197.645 590.538C203.136 590.857 202.352 583.737 201.102 580.365C195.059 577.43 188.261 576.587 181.753 575.076C179.859 583.376 177.777 591.632 175.507 599.838C187.539 602.695 199.638 605.263 211.794 607.54L210.632 615.474C198.342 613.294 186.169 610.475 173.88 608.179L171.933 618.119C179.371 619.369 186.925 620.328 194.217 622.391C196.686 629.919 180.475 641.108 181.143 627.884L170.655 626.344L169.057 638.318L206.128 642.212L204.531 649.594C192.183 649.507 179.981 647.386 167.721 646.281L167.692 656.977L203.979 658.808L204.182 666.829L167.14 664.94L166.065 675.316C178.412 675.577 190.76 675.199 203.078 674.327L203.485 682.552C201.364 682.552 197.151 682.494 195.03 682.465C199.533 690.341 204.037 700.775 198.168 709.174C195.466 713.447 190.208 711.703 186.053 712.023C181.637 713.534 176.408 718.359 172.021 714.057C170.161 709.581 170.917 704.582 170.51 699.903L166.907 700.397L166.965 723.125C179.603 723.212 192.154 721.556 204.705 720.19L204.385 728.618L168.389 732.018L168.999 740.592C181.434 739.662 193.694 736.901 206.157 736.552C211.213 746.957 197.994 744.37 192.503 746.23C197.442 752.712 211.59 757.187 205.722 766.982C201.829 763.378 198.11 759.6 194.565 755.676C193.403 766.197 182.77 767.359 174.577 769.568L172.66 776.166L168.36 774.771C165.193 764.395 165.629 753.264 162.259 742.917C159.499 746.724 155.635 758.553 150.783 749.485C155.054 743.498 160.225 738.122 163.537 731.466C157 735.361 151.364 740.534 145.902 745.794L142.125 738.499L161.387 726.148C160.545 705.687 159.557 685.168 160.516 664.707C154.792 669.532 149.301 674.618 143.898 679.82L139.743 672.729C148.895 665.492 164.351 661.016 162.027 646.485C155.722 646.601 146.193 646.659 144.711 638.609C139.714 621.229 156.797 609.545 168.796 600.681C171.382 587.479 174.689 574.43 178.703 561.59C171.73 561.416 160.923 561.213 160.458 551.912C160.138 538.02 174.548 531.364 186.692 532.672ZM165.774 550.924C170.452 553.424 175.652 554.063 180.882 554.121L184.717 540.548C176.349 538.747 167.75 542.031 165.774 550.924ZM150.26 633.493C150.231 639.945 157.988 638.841 162.288 639.626C163.479 630.093 164.99 620.589 166.384 611.085C159.673 617.072 149.476 623.234 150.26 633.493ZM165.861 683.337L167.634 692.201L176.233 691.998C177.57 697.404 173.677 706.733 181.027 708.477C181.811 702.664 178.499 694.352 186.169 692.143C187.186 696.503 185.792 702.693 191.195 704.553C198.575 698.595 191.399 689.353 187.157 683.918C180.155 682.552 172.95 683.366 165.861 683.337ZM170.771 749.195C170.684 753.264 171.411 757.303 171.846 761.343C177.192 760.268 182.944 760.123 187.796 757.42C188.232 753.787 186.46 750.415 185.588 747.015C180.62 747.567 175.594 747.887 170.771 749.195ZM1171.34 544.007C1183.87 538.165 1200.66 545.925 1201.21 560.544C1204.87 583.039 1167.22 593.531 1158.5 572.809C1152.4 561.649 1159.03 546.913 1171.34 544.007ZM1177.18 552.232C1170.7 553.395 1162.98 558.771 1165.13 566.328C1168.5 582.284 1198.48 572.896 1192 557.667C1189.53 551.912 1182.62 550.634 1177.18 552.232ZM1165.13 593.357C1179.16 590.77 1193.1 587.747 1207.14 584.986L1207.89 594.984C1196.74 596.496 1185.7 598.617 1174.92 601.814C1176.34 608.295 1178.4 614.776 1178.46 621.49L1171.17 623.495L1165.13 593.357Z" fill="#004F9F"/>
<path d="M1186.45 622.711C1194.85 620.531 1205.51 620.153 1211.96 627.012C1217.97 632.767 1218.5 642.329 1216.14 649.885C1209.75 663.109 1189.82 666.364 1178.75 657.209C1168.44 647.328 1171.46 626.228 1186.45 622.711ZM1189.36 631.808C1181.4 633.377 1178.03 643.608 1183.63 649.566C1191.8 656.018 1207.17 652.966 1209.69 642.038C1209.69 631.401 1197.52 628.669 1189.36 631.808ZM1186.39 669.358C1196.24 664.969 1209.84 665.55 1216.93 674.618C1225.24 684.878 1221.37 705.484 1206.12 706.036C1204.67 697.869 1212.74 692.957 1213.24 685.372C1209.37 674.153 1191.86 673.514 1185.58 682.582C1181.83 689.353 1186.6 696.503 1193.48 698.189L1192.64 688.365H1200.54L1201.44 706.326L1177.39 707.227L1180.7 698.305C1173.17 689.673 1175.82 674.269 1186.39 669.358ZM1177.59 721.759C1193.51 726.235 1206.59 715.365 1220.09 709.087L1220.27 720.132L1202.55 727.572C1208.12 730.584 1213.74 733.51 1219.4 736.349L1218.85 746.725C1210.16 742.685 1202.43 736.93 1193.83 732.803C1188.34 731.612 1182.73 731.408 1177.18 730.827L1177.59 721.759ZM1172.04 792.093C1170.5 782.327 1173.03 772.533 1175.06 763.029C1188.89 765.703 1202.92 767.156 1216.7 770.15C1214.49 779.218 1215.1 789.303 1210.62 797.644C1206.09 804.357 1197.58 801.422 1192.52 797.062C1186.1 802.323 1174.51 800.724 1172.04 792.093ZM1180.73 773.376C1180.06 780.467 1176.92 791.744 1187.93 790.814C1189.27 785.611 1190.46 780.38 1191.62 775.149L1180.73 773.376ZM1198.51 776.515C1198.13 782.996 1194.99 791.715 1204 792.761C1205.28 787.617 1206.47 782.444 1207.54 777.27L1198.51 776.515ZM1174.92 806.13C1189.97 801.131 1211.49 812.96 1206.21 830.747C1203.24 851.411 1171.87 851.149 1163.79 834.409C1158.97 824.15 1163.91 809.879 1174.92 806.13ZM1174.57 816.506C1169.11 820.284 1168.41 829.497 1174.37 833.188C1181.13 838.158 1194.09 840.018 1197.84 830.544C1202.46 817.785 1183.63 810.809 1174.57 816.506ZM632.331 818.628C637.676 816.767 648.31 816.215 645.521 824.963C640.64 823.685 631.314 826.678 632.331 818.628ZM709.204 823.307L725.125 817.436L728.088 823.249L713.329 829.032L709.204 823.307ZM731.604 816.826L746.188 817.029L745.52 823.801C740.029 822.958 732.795 823.946 731.604 816.826ZM753.625 817.232L769.401 820.226L768.733 826.882L752.812 823.568L753.625 817.232ZM609.495 828.131C607.985 819.209 618.415 820.284 624.225 819.238L627.828 824.266C621.809 825.957 615.685 827.248 609.495 828.131ZM650.866 824.963C651.854 814.471 664.55 824.469 670.128 825.893C665.509 834.147 656.967 827.579 650.866 824.963ZM186.024 830.805L221.41 821.592C223.735 828.247 221.323 832.229 214.06 831.939C215.948 837.867 219.696 844.32 217.023 850.626C215.367 855.364 210.719 857.863 207 860.769C204.124 858.008 202.09 850.103 196.89 853.184C188.058 856.352 195.583 865.914 196.977 871.726C208.685 867.251 220.568 863.24 232.45 859.316L233.874 866.844C222.747 871.901 210.777 874.894 199.447 879.457L203.281 888.874L237.389 875.127L240.498 882.625L217.808 891.838L224.635 907.358C232.973 905.091 235.762 896.488 239.045 889.542L245.03 892.42C240.934 900.47 238.028 914.014 226.814 913.665C214.205 914.653 218.563 892.652 206.071 895.006C209.789 905.266 214.554 915.089 218.621 925.232C226.088 921.57 234.629 917.647 240.876 925.523L247.354 908.928L254.414 911.863C249.882 923.023 244.42 933.806 238.203 944.152L232.16 941.043C233.255 936.933 234.281 932.805 235.239 928.662C230.978 929.695 226.786 930.996 222.689 932.556L232.857 952.203L265.57 933.661L268.098 941.304C258.133 947.96 247.325 953.249 236.983 959.353L241.457 966.88L272.95 947.524L277.075 954.819L261.648 964.206C264.321 971.298 271.265 967.432 276.116 970.077C275.39 975.192 276.523 982.72 271.7 985.946C265.512 979.145 257.9 985.19 255.286 991.787C259.731 989.026 269.638 993.008 262.665 997.6C254.908 1003.76 248.894 993.909 247.441 987.253C251.276 982.284 256.012 978.157 261.358 974.872L257.145 967.461L246.628 973.1L247.732 982.632L242.357 980.511C225.942 955.807 213.363 928.778 201.306 901.72C197.326 904.219 193.781 907.997 188.9 908.666C180.562 908.433 176.611 898.668 177.483 891.519C178.122 883.468 184.92 878.237 190.673 873.528C186.111 859.171 181.347 844.756 178.325 829.991L179.575 824.76L186.024 830.805ZM187.273 838.943L189.075 848.243C195.989 844.32 204.531 842.75 209.789 850.19C214.321 844.261 209.673 838.681 206.129 833.857L187.273 838.943ZM193.055 880.794C188.668 885.212 179.052 891.664 184.891 898.552C189.075 904.19 194.217 896.75 198.342 894.803L193.055 880.794ZM590.873 827.753C593.516 823.568 599.211 824.411 603.394 823.074L604.237 830.369C599.85 829.73 593.313 832.839 590.873 827.753ZM774.108 822.813L785.903 823.655L786.339 830.02L774.282 828.945L774.108 822.813ZM550.025 826.416H559.844L560.077 832.869L549.56 832.956L550.025 826.416ZM569.751 826.213C574.923 827.463 584.481 823.132 585.062 831.096C580.53 834.089 574.603 832.52 569.49 833.217L569.751 826.213ZM794.415 825.486C799.645 826.126 804.874 827.027 810.017 828.422L807.721 833.74L793.776 831.735L794.415 825.486ZM816.815 835.136C814.52 825.574 830.528 826.01 830.266 834.961L816.815 835.136ZM711.877 838.013C720.389 834.191 729.596 832.163 738.925 832.055L738.228 838.042C730.732 839.117 723.324 840.745 716.235 843.419L711.877 838.013ZM747.263 831.59L762.022 833.682L760.918 840.105L747.321 838.362L747.263 831.59ZM616.265 834.583C621.291 834.787 627.508 831.822 631.808 835.31C631.517 842.227 621.872 839.64 617.252 841.239L616.265 834.583ZM639.187 833.246C648.745 833.799 658.1 836.066 666.758 840.222L662.052 844.988C654.44 843.041 646.944 840.629 639.158 839.611L639.187 833.246ZM770.244 834.903L783.869 837.664L782.94 844.145L767.774 840.919L770.244 834.903ZM594.127 838.362C600.373 837.751 608.595 833.653 611.384 841.849C605.864 843.099 600.315 844.029 594.737 844.726L594.127 838.362ZM538.549 840.774L561.558 841.82L562.866 847.371C554.383 848.417 545.87 847.807 537.387 847.4L538.549 840.774ZM570.739 840.716C577.131 841.239 588.055 835.513 588.287 845.715L570.884 847.429L570.739 840.716ZM789.97 844.843L792.149 838.594L807.838 840.512L807.111 847.197L789.97 844.843ZM818.384 841.791C824.95 841.965 831.457 843.128 838.023 843.825L839.04 849.871C831.022 849.638 823.003 849.028 815.101 847.778L818.384 841.791ZM738.46 846.557L756.734 846.645L756.182 853.155C750.488 853.213 744.793 853.184 739.128 853.126L738.46 846.557ZM1157.17 845.133L1197.81 859.287L1193.48 871.668C1182.99 870.767 1172.54 869.227 1161.99 869.227C1170.96 874.464 1179.81 879.92 1188.51 885.59L1184.42 898.029C1170.82 893.639 1157.33 888.939 1143.95 883.933L1146.91 875.708L1173.99 885.125C1166.06 879.167 1157.46 874.168 1149.15 868.791L1152.63 860.217L1182.41 864.228C1173.64 859.723 1164.14 856.875 1154.84 853.736L1157.17 845.133ZM598.049 851.44L613.417 848.621C616.294 857.224 606.154 856.497 600.838 858.299L598.049 851.44ZM618.792 849.028C625.53 848.355 632.302 848.102 639.071 848.272L637.734 854.899C630.907 854.346 621.756 857.311 618.792 849.028ZM724.689 849.842C728.466 846.964 732.562 851.091 731.284 855.102C726.2 857.137 719.866 861.438 715.363 855.945C716.235 851.644 721.319 851.266 724.689 849.842ZM763.532 847.342L778.32 849.842L777.768 856.642C771.87 854.957 760.54 857.137 763.532 847.342ZM576.201 855.422L591.948 852.196L593.575 859.258L578.961 861.554L576.201 855.422ZM644.707 856.497L647.641 850.19L662.429 855.8C658.972 864.693 650.75 858.822 644.707 856.497ZM783.782 851.324C789.796 853.3 802.376 850.655 799.587 860.944C793.166 859.287 782.329 861.264 783.782 851.324ZM551.07 857.369L568.793 855.654L569.664 862.659C563.215 861.903 551.506 867.774 551.07 857.369ZM807.954 855.015L825.734 857.224C826.693 868.152 813.793 861.467 807.663 861.961L807.954 855.015ZM525.127 856.933L543.546 857.224C544.592 859.491 543.488 861.932 543.313 864.286C537.038 862.339 524.226 867.483 525.127 856.933ZM833.607 857.224C839.621 858.735 849.15 854.521 852.579 860.857C848.25 867.454 838.866 863.879 832.329 863.995L833.607 857.224ZM616.526 862.978C621.872 861.99 627.334 862.077 632.737 862.688L631.488 869.895L619.054 869.692L616.526 862.978ZM744.212 861.031L758.042 860.45L758.361 867.919L744.038 868.384L744.212 861.031ZM594.737 865.245L609.553 862.891L611.5 869.983L596.509 872.86L594.737 865.245ZM642.151 863.821L658.74 870.477L653.597 876.638L639.332 870.593L642.151 863.821ZM716.758 868.675C722.684 866.088 728.785 863.85 735.061 862.194C739.099 871.087 728.815 871.755 723.353 874.865L716.758 868.675ZM764.898 869.343L767.629 861.554L781.051 864.257L780.673 871.232L764.898 869.343ZM569.432 869.343L587.415 867.047L589.478 873.906L570.071 876.812L569.432 869.343Z" fill="#004F9F"/>
<path d="M788.081 866.204L806.879 869.111L805.891 876.26L787.036 873.586L788.081 866.204ZM543.516 871.959L562.604 870.244L563.447 877.481L544.475 879.05L543.516 871.959ZM814.171 869.75L831.457 871.814L831.748 878.876L812.457 877.365L814.171 869.75ZM514.987 872.22L536.747 872.25L536.776 879.399L515.016 879.98L514.987 872.22ZM838.255 878.149C840.812 869.285 851.3 876.057 857.604 875.243L857.837 882.335C851.474 881.114 842.7 883.846 838.255 878.149ZM1131.89 920.64C1129.94 909.509 1137.47 899.889 1141.48 890.124L1179.91 907.329C1176.25 915.845 1173.58 925.145 1167.63 932.411C1161.61 938.311 1153.16 933.777 1149.5 927.673C1142.84 929.824 1134.27 928.051 1131.89 920.64ZM1144.91 901.662C1141.68 908.027 1136.63 917.559 1146.36 920.669C1149.24 915.949 1151.97 911.142 1154.55 906.254L1144.91 901.662ZM1160.71 909.712C1159.46 914.915 1154.09 921.745 1159.75 926.104C1165.01 923.401 1166.7 917.327 1169.34 912.502L1160.71 909.712ZM1125.99 922.965C1137.09 933.283 1146.21 945.431 1156.5 956.504L1151.18 965.979L1106.32 958.277C1108.88 954.935 1110.39 949.006 1115.91 950.43C1123.2 951.622 1124.37 942.351 1127.88 938.02L1121.98 931.801L1125.99 922.965ZM1128.61 952.784L1144.12 955.749L1134.07 944.414L1128.61 952.784ZM1095.89 973.623L1102.61 966.124C1113.59 978.128 1130.41 975.25 1144.96 976.82L1139.18 986.323L1120.18 983.882C1123.44 989.288 1126.81 994.665 1130.29 999.983C1128.08 1002.51 1126.95 1006.46 1123.52 1007.63C1118.24 999.664 1115.1 990.451 1109.2 982.923C1105.1 979.348 1100.37 976.645 1095.89 973.623ZM265.657 1139.98C385.296 1084.65 516.091 1054.04 647.757 1049.27C804.177 1043.52 961.468 1075.55 1103.85 1140.3C1098.13 1154.43 1091.42 1168.09 1085.06 1181.92C1111.93 1192.82 1137.15 1207.32 1161.55 1222.9C1136.34 1269.46 1112.6 1316.86 1085.96 1362.64H1084.59C1077.24 1357.46 1068.96 1353.92 1060.77 1350.43C1017.66 1331.57 973.408 1314.86 927.621 1303.75C923.99 1302.42 919.486 1302.3 916.697 1299.45C920.474 1278.27 926.895 1257.66 931.747 1236.7C770.911 1194.71 599.995 1196.63 438.665 1234.96L454.615 1300.01C406.165 1311.8 358.894 1328 313.391 1348.4C304.181 1352.67 294.012 1355.69 286.401 1362.64H282.682L282.537 1360.72C258.83 1314.3 233.554 1268.65 208.83 1222.75C232.74 1206.39 258.568 1192.99 285.093 1181.43L265.657 1139.98ZM298.632 1151.37C310.921 1181.02 325.854 1209.5 339.567 1238.51C454.557 1200.17 575.939 1179.97 697.263 1182.09C810.917 1182.04 924.193 1203.57 1031.02 1242.02L1072.01 1152.1C1008.04 1126.21 942.264 1104.12 874.281 1091.45C680.724 1053.39 480.207 1074.26 298.632 1151.37ZM283.873 1208.25L336.342 1312.73L345.436 1308.81C330.096 1272.98 313.478 1237.69 296.395 1202.64L283.873 1208.25ZM1025.03 1309.45L1034.42 1313.58L1086.92 1208.98L1074.25 1203.17L1025.03 1309.45ZM261.561 1219.38C278.731 1253.79 296.889 1287.74 315.134 1321.6L325.564 1316.51L273.472 1213.25L261.561 1219.38ZM1092.41 1223.31C1076.69 1254.84 1060.01 1285.97 1045.31 1318.02L1056.24 1321.98L1109.64 1220.4C1105.74 1218.39 1101.94 1216.3 1097.93 1214.62C1095.31 1216.91 1094.06 1220.31 1092.41 1223.31ZM241.311 1231.53L294.187 1330.84L303.629 1325.76L251.276 1225.43C247.848 1227.23 244.1 1228.71 241.311 1231.53ZM1069.05 1324.85L1075.5 1330.52L1127.94 1231.88L1120.39 1226.79C1102.92 1259.29 1085.26 1291.75 1069.05 1324.85ZM339.48 1267.05C344.535 1280.01 350.636 1292.54 356.505 1305.18L366.237 1301.02C362.257 1290.7 358.015 1280.47 353.687 1270.3L339.48 1267.05ZM1017.1 1270.56C1012.66 1280.91 1008.13 1291.23 1004.41 1301.87L1014.2 1305.67C1020.18 1293.03 1026.31 1280.42 1031.54 1267.42L1017.1 1270.56ZM367.951 1273.38C370.188 1281.61 373.5 1289.48 376.871 1297.33L387.01 1294.57C385.441 1288.23 383.146 1282.1 380.473 1276.17L367.951 1273.38ZM989.939 1277.57C986.685 1282.94 985.32 1289.19 983.577 1295.18L993.542 1298.03C996.941 1290.09 1000.28 1282.13 1003.25 1274.02C998.858 1275.24 993.861 1275.07 989.939 1277.57ZM394.767 1279.34C395.769 1283.09 396.834 1286.82 397.963 1290.53C404.228 1288.86 410.457 1287.04 416.644 1285.1C409.845 1281.58 402.117 1280.88 394.767 1279.34ZM952.752 1285.53L972.42 1291L976.546 1280.27C968.44 1281.23 960.509 1283.06 952.752 1285.53Z" fill="#004F9F"/>
<path d="M831.37 1088.92C843.833 1091.27 845.112 1105.16 847.901 1115.22C882.27 1121.15 916.174 1129.52 949.817 1138.67L951.154 1148.03L941.479 1145.13C937.441 1157.25 934.216 1169.63 931.195 1182.04C936.482 1189.07 940.027 1197.29 941.218 1206.04C936.569 1199.88 933.955 1191.92 926.895 1187.97C922.479 1186.02 923.147 1180.58 926.401 1177.91L923.525 1173.67L926.633 1162.91L914.664 1160.15L909.347 1165.03C904.495 1165.7 903.217 1159.16 901.329 1155.85C899.033 1152.19 904.263 1150.04 905.716 1147.19C906.985 1143.72 907.956 1140.15 908.621 1136.52L893.688 1133.5C890.841 1146.11 887.616 1158.64 884.623 1171.23C880.411 1167.42 876.14 1163.29 877.651 1157.04C872.537 1156.43 866.698 1156.98 862.66 1153.23C857.11 1148.88 857.633 1140.97 855.89 1134.81C860.858 1133.33 867.366 1133.65 869.777 1128.07C862.558 1126.51 855.303 1125.12 848.017 1123.91L842.061 1162.71C838.139 1158.9 832.706 1155.47 834.072 1149.14C826.663 1149.89 819.691 1147.77 814.694 1142.16C809.842 1152.36 793.427 1149.63 788.662 1140.51C784.537 1135.77 788.43 1130.22 790.028 1125.36C788.459 1120.71 784.072 1115.39 788.43 1110.92C794.705 1106.06 806.443 1109.96 806.21 1118.77C806.239 1122.78 801.475 1123.44 799.005 1125.6C803.712 1125.62 806.559 1128.12 807.605 1133.04C802.23 1133.44 795.286 1130.22 791.771 1136.06C796.361 1144.6 806.53 1139.75 813.038 1136.73L811.12 1127.95C816.117 1126.73 821.405 1125.65 824.92 1121.5C820.097 1120.25 815.188 1119.35 810.307 1118.5L806.414 1109.67L843.746 1114.35C842.265 1107.61 839.04 1101.59 832.881 1098.13L831.37 1088.92ZM796.449 1113.62C792.352 1114.17 791.19 1120.83 795.838 1121.58C801.794 1123.07 802.898 1111.96 796.449 1113.62ZM829.046 1121.15C832.125 1130.51 823.206 1133.41 817.454 1138.3C823.351 1140.07 830.15 1141.67 835.641 1137.77C837.326 1132.77 838.023 1127.54 839.011 1122.43L829.046 1121.15ZM875.21 1128.85C876.343 1137.98 869.487 1141.49 861.817 1143.15C865.797 1146.93 871.55 1149.57 876.953 1147.1C883.781 1145.39 882.503 1136.55 885.146 1131.5L875.21 1128.85ZM915.303 1152.1L929.393 1154.4L932.357 1142.66L917.656 1138.62C916.814 1143.09 916 1147.57 915.303 1152.1ZM595.056 1108.59C647.205 1104.5 699.616 1104.03 751.882 1105.4L755.891 1114.14L746.013 1114.06C745.81 1126.55 745.2 1139.02 744.619 1151.49C750.604 1157.36 756.414 1163.73 759.494 1171.66C752.434 1166.81 747.844 1157.77 738.227 1157.8L734.596 1150.97L739.825 1150.76C735.177 1146.78 735.758 1140.65 735.438 1135.19L724.485 1135.16L719.633 1142.05C715.973 1138.53 710.918 1135.48 709.726 1130.25C714.23 1125.45 714.288 1119.03 714.375 1112.87L705.223 1112.63L705.165 1151.43L695.578 1145.68L696.014 1134.58L684.044 1134.14L679.802 1142.05C675.762 1138.43 672.03 1134.48 668.646 1130.25C674.195 1126.18 673.382 1119.41 673.556 1113.36L660.976 1113.45C660.831 1121.18 662.545 1130.3 655.049 1135.3C653.684 1140.59 669.983 1147.39 659.959 1151.96C652.667 1143.3 641.831 1135.54 640.93 1123.39L651.244 1124.35L651.825 1114.14L636.398 1113.91C636.136 1127.11 637.473 1140.24 637.821 1153.44C631.197 1151.11 627.159 1146.52 627.449 1139.4C621.174 1141.14 614.056 1141.81 608.798 1137.16C603.946 1131.7 605.108 1123.79 603.917 1117.14C598.542 1117.4 597.089 1112.43 595.056 1108.59ZM613.33 1116.15C614.637 1122.17 612.662 1129.98 616.555 1134.9C620.157 1133.44 623.44 1131.23 626.81 1129.26L626.636 1114.52L613.33 1116.15ZM682.62 1112.58L682.969 1126.15L695.81 1125.71L696.043 1112.95L682.62 1112.58ZM723.526 1113.24L723.41 1126.61L736.571 1126.44V1113.51L723.526 1113.24ZM415.133 1148.35C463.128 1128.07 514.609 1117.75 566.177 1111.91L570.768 1119.32L561.326 1121.09L566.294 1158.12C573.876 1162.39 581.575 1167.85 584.771 1176.34C578.409 1171.63 572.366 1165.79 564.057 1165.24C560.047 1165.09 559.902 1160.38 559.408 1157.45C555.893 1153.7 555.37 1148.5 554.266 1143.73L542.935 1145.36L540.117 1153.38C535.17 1150.59 530.722 1147 526.956 1142.74C533.057 1138.41 530.268 1131.5 529.484 1125.45L519.722 1127.19C521.814 1140.07 524.371 1152.86 526.666 1165.7L516.12 1160.73L513.273 1144.72C505.806 1145.21 499.502 1148.03 498.746 1156.34C493.604 1153.99 483.406 1148.53 488.839 1142.16C496.248 1139.37 504.15 1138.18 511.849 1136.47L509.873 1128.53L477.451 1136.09L487.735 1173.87L476.841 1170.41L468.27 1138.5L461.094 1141.17L472.773 1178.03L462.343 1175.29C459.932 1168.67 457.753 1161.98 455.632 1155.3C453.715 1157.07 445.377 1157.97 449.589 1162.04C454.005 1166.2 453.017 1171.46 451.623 1176.72C453.831 1179.65 458.799 1181.4 456.94 1186.19C450.257 1182.76 443.14 1180.38 435.818 1178.67L434.453 1170.79L445.057 1169.34C443.314 1161.61 435.818 1161.17 429.194 1161.61C431.548 1150.47 448.253 1153.44 454.383 1144.43C443.256 1145.36 433.087 1150.27 423.035 1154.78L415.133 1148.35ZM538.548 1124.49L540.669 1137.13L554.004 1134.9L551.709 1121.9L538.548 1124.49Z" fill="#004F9F"/>
<path d="M640.088 43.7962C677.973 42.8953 716.322 40.5411 753.887 46.6154L776.636 142.06C816.234 148.861 854.99 159.701 892.904 172.925C917.25 150.168 939.795 125.464 964.78 103.434C1000.25 117.559 1033.78 137.003 1065.07 158.917L1037.91 252.966C1069.57 278.106 1099.06 305.948 1125.5 336.523C1156.09 326.177 1185.93 313.447 1216.23 302.17C1239.44 332.135 1259.72 364.308 1277.85 397.585L1209.84 467.628C1223.9 502.65 1238.6 537.584 1246.24 574.727L1344.21 587.922C1350.67 624.776 1354.22 662.084 1354.81 699.496L1261.9 730.274C1258.01 768.173 1254.32 806.363 1244.62 843.302C1270.97 864.112 1299.9 881.433 1325.76 902.882C1314.95 940.2 1299.23 975.89 1281.25 1010.27L1185.44 989.549C1170.85 1013.93 1155.42 1037.85 1138.22 1060.52C1106.24 1036.72 1075.44 1011.38 1045.29 985.306C1115.39 895.5 1151.5 779.014 1140.43 665.318C1132.7 574.204 1095.55 485.996 1036.6 416.186C971.114 338.151 878.668 282.843 778.495 263.719C720.099 252.675 659.437 251.716 601.187 264.33C512.547 282.174 430.183 328.385 367.458 393.371C295.902 466.756 250.55 565.398 242.387 667.672C231.23 783.025 273.386 898.871 342.967 989.811C339.481 993.444 335.849 996.961 331.898 1000.1C304.617 1021.26 278.499 1043.87 251.364 1065.23C231.608 1043.17 215.774 1018.06 199.883 993.211C166.937 996.263 133.991 1005.19 100.842 1009.37C97.0073 1008.67 96.2519 1003.88 94.1892 1001.17C78.2393 968.972 65.398 935.317 54.7648 901.022C81.9871 882.974 110.662 867.221 137.884 849.202C142.271 846.906 138.669 841.529 138.465 837.954C129.546 801.741 123.736 764.656 123.358 727.281C91.2549 717.022 58.745 707.983 26.3513 698.683C25.2182 660.406 28.7045 621.868 37.7399 584.638C71.4247 580.824 105.061 576.591 138.64 571.937C148.024 534.213 160.139 496.924 177.164 461.932C154.619 436.792 129.75 413.89 106.856 389.07C125.508 353.583 147.704 319.841 174.171 289.644L263.014 331.495C290.759 301.85 320.829 274.385 352.67 249.187C343.432 218.119 332.479 187.573 322.601 156.737C324.257 152.581 329.167 151.098 332.479 148.483C362.142 130.347 392.037 112.095 424.111 98.4355C428.207 95.5582 431.054 101.08 433.873 103.144L494.534 171.094C532.651 156.94 572.425 147.989 612.546 141.885C622.308 109.363 630.472 76.3764 640.088 43.7962ZM708.246 177.808L706.59 220.328L716.177 220.095C716.438 205.854 717.542 191.671 717.426 177.43L708.246 177.808ZM649.298 179.232L650.954 214.98C649.879 221.083 655.602 221.897 660.28 221.577C659.815 211.667 659.437 201.785 658.391 191.933C664.289 200.128 669.228 208.964 674.951 217.276C677.13 220.88 682.185 219.165 685.614 220.182C685.759 205.999 684.422 191.874 684.016 177.691L675.329 177.721C675.532 186.643 676.084 195.565 676.346 204.488C670.099 196.147 664.609 187.282 659.176 178.389L649.298 179.232ZM726.374 177.953C725.27 191.933 723.062 205.854 722.801 219.892L730.994 221.868L733.754 193.647C739.07 202.86 742.615 212.974 747.612 222.362C750.711 223.164 753.919 223.458 757.112 223.234C758.158 209.196 759.727 195.188 760.773 181.121L751.97 180.947C751.302 190.247 750.43 199.547 748.716 208.731C744.794 198.792 741.395 188.503 735.526 179.522L726.374 177.953ZM617.166 183.214L608.275 226.983L617.369 225.414C618.182 222.362 619.315 219.456 620.797 216.695C625.475 215.735 630.239 215.445 635.004 214.98L638.606 222.827L648.775 221.461C641.454 208.266 634.975 194.635 628.235 181.15L617.166 183.214ZM588.403 187.776C590.757 201.465 593.807 215.009 595.87 228.756L605.574 228.291L597.613 186.178L588.403 187.776ZM766.961 197.048C767.426 207.83 781.11 209.08 788.198 214.457C790.29 225.472 772.626 220.618 771.638 212.393L762.748 210.94C762.138 225.791 780.151 233.319 792.062 227.128C798.803 223.728 801.156 212.422 794.561 207.83C788.373 203.587 781.342 200.768 774.979 196.873L781.865 191.729C789.622 193.095 792.179 203.18 801.156 201.959C799.558 197.542 799.616 192.02 795.781 188.707C787.065 180.54 767.222 182.603 766.961 197.048ZM805.921 197.891L817.367 200.361C814.985 211.492 811.993 222.507 808.942 233.464L817.919 236.719C821.154 225.63 824.013 214.434 826.49 203.151L839.389 205.999L840.697 197.92L806.937 189.607L805.921 197.891ZM546.364 197.716L556.998 238.986C566.992 235.789 580.269 236.022 586.108 225.791C589.74 214.573 586.747 198.617 575.097 193.269C565.278 191.555 555.777 195.624 546.364 197.716ZM845.432 199.925L832.765 240.352L841.83 243.259L854.497 202.512L845.432 199.925ZM528.09 203.384L536.864 229.25C528.689 222.743 520.78 215.907 513.157 208.76L503.541 212.713C508.683 225.85 513.07 239.248 517.689 252.588L526.086 249.158L516.905 222.74C525.272 229.483 533.32 236.574 541.28 243.753L550.403 241.05C546.19 227.622 541.106 214.486 537.009 201.029L528.09 203.384ZM859.116 203.849L856.472 211.405L868.122 216.201C864.462 226.925 859.261 237.242 857.024 248.432L864.113 251.338C870.446 241.66 872.451 229.773 877.216 219.252L888.924 223.641L891.684 215.735L859.116 203.849ZM420.712 223.612C417.719 230.761 425.505 235.208 429.66 239.568C400.723 255.698 373.414 275.054 348.923 297.346C348.748 305.28 356.999 300.455 359.788 296.793L366.18 304.67L364.495 313.563L381.2 313.534L378.469 304.757L386.197 298.363C390.875 304.379 395.203 310.686 400.665 316.033C404.413 313.36 408.016 310.075 413.042 310.715C411.444 319.87 402.99 322.747 394.739 323.038L394.942 327.862C405.895 331.379 420.712 322.602 419.521 310.308C417.022 302.461 407.987 302.315 401.508 304.553L381.2 278.716L404.994 261.539L414.349 276.449L401.159 277.234L409.033 270.578C404.384 264.242 397.731 270.375 394.739 275.112C390.032 281.884 395.32 292.87 403.571 293.19C410.747 294.701 415.627 288.685 420.508 284.587L424.895 292.725L431.955 287.784C425.099 277.699 418.678 267.323 411.793 257.267C419.317 252.675 426.697 247.676 434.86 244.276C438.289 253.024 419.782 251.367 422.745 261.162C428.875 270.026 441.281 268.34 448.748 262.121L447.585 271.944L433.727 273.368L433.814 280.954C443.402 280.256 452.989 280.198 462.518 281.826L464.668 274.938L454.093 275.17C456.04 268.137 458.219 257.907 449.939 254.128C443.547 254.622 438.753 260.057 432.565 261.685C433.146 254.506 440.99 252.879 445.929 249.391L440.729 240.498L447.498 236.632L444.564 230.471L435.325 236.196C432.362 233.813 429.369 231.43 426.871 228.552C428.207 224.222 431.723 220.996 433.931 217.131C429.486 218.671 422.745 218.38 420.712 223.612ZM487.126 218.002C491.542 231.866 497.846 244.973 503.192 258.459L512.024 254.826C506.62 242.241 502.03 229.308 496.103 216.956L487.126 218.002ZM897.291 218.177C893.253 227.826 887.936 236.981 884.74 246.979C879.162 262.905 906.937 275.664 915.246 261.103C920.504 252.123 923.932 242.241 928.842 233.115C925.879 232.389 922.393 227.506 919.633 230.209C914.519 239.364 910.917 249.275 905.92 258.517C901.204 257.932 896.761 255.983 893.137 252.908C896.42 242.329 901.184 232.331 906.152 222.478L897.291 218.177ZM930.092 242.648L941.131 248.81C935.844 258.807 929.656 268.311 924.92 278.6C927.448 280.344 930.033 282.058 932.677 283.686L949.528 253.605L961.352 259.592L963.938 252.181C954.496 246.049 944.211 241.369 934.653 235.47L930.092 242.648ZM946.826 290.516C954.118 297.142 962.689 302.345 971.288 307.082C974.687 310.192 980.585 301.444 975.123 300.281C969.748 296.328 964.054 292.841 958.534 289.15C960.422 286.621 962.253 284.005 964.403 281.651C970.446 284.703 975.937 288.714 981.689 292.289L985.64 285.168L968.906 274.792L973.002 267.759C979.132 271.624 985.233 275.577 991.276 279.646L996.186 273.049L969.777 255.465C962.166 267.149 953.944 278.483 946.826 290.516ZM361.59 269.067L366.906 275.49L374.373 270.026L369.114 262.876L361.59 269.067ZM1009.14 296.735C1001.5 301.473 994.792 309.901 995.692 319.376C995.605 333.297 1013.07 343.498 1025.12 336.407C1033 331.466 1039.62 323.154 1039.42 313.447C1038.86 299.438 1021.37 289.004 1009.14 296.735ZM1022.91 349.195L1029.25 356.257L1042.41 343.644L1055.02 356.286L1060.51 349.892C1056.7 345.678 1050.63 342.452 1048.89 336.93L1053.3 331.263L1067.77 345.765L1074.8 340.592L1053.16 318.794C1042.29 328.153 1033.29 339.342 1022.91 349.195ZM303.049 337.802C288.987 354.194 273.299 369.743 262.317 388.314C264.815 393.284 268.737 388.576 271.962 387.093C275.623 390.145 279.603 392.935 282.857 396.452C286.401 403.689 282.305 410.896 276.93 415.692C276.059 409.821 277.395 402.671 272.601 398.167C269.144 394.301 263.508 394.272 258.772 395.028C252.817 396.975 251.393 403.456 249.33 408.542C253.223 416.36 261.213 416.593 267.692 411.303L257.349 406.188C257.349 398.748 265.919 401.015 267.575 406.246C270.074 409.443 267.372 413.221 266.849 416.622L257.087 422.696C258.482 424.847 259.905 426.998 261.358 429.119C265.222 422.028 273.182 423.771 279.487 421.505C286.837 417.93 289.946 409.792 291.398 402.265L301.044 408.949L304.879 401.858C294.914 394.882 285.356 387.326 275.681 379.944L281.492 373.405L310.37 396.684L314.815 389.913L286.256 366.546L308.104 341.842C310.081 343.989 311.99 346.199 313.827 348.468C310.108 355.414 301.77 359.919 300.027 367.708C303.107 373.376 311.416 369.714 316.674 370.527C315.359 367.035 313.984 363.567 312.549 360.123C314.881 358.024 317.294 356.017 319.783 354.106C325.419 358.059 329.922 363.349 334.774 368.202L340.033 361.401C331.578 353.293 322.862 345.387 314.699 336.988L317.226 330.158C310.864 326.293 307.087 334.314 303.049 337.802ZM1087.64 354.571L1081.22 359.803L1089.15 369.481L1062.8 391.569L1069.08 398.719C1077.97 391.802 1086.05 383.896 1095.31 377.473C1098.19 380.06 1100.46 383.228 1102.87 386.28L1110.1 381.339C1102.43 372.562 1095.11 363.494 1087.64 354.571ZM1078.75 411.042L1098.02 437.722L1104.2 431.473C1099.73 425.777 1095.43 419.993 1091.13 414.21L1098.95 407.932C1103.02 413.369 1106.99 418.892 1110.83 424.498L1117.63 419.47C1114.92 413.338 1102.05 405.665 1110.07 399.475C1117.05 401.48 1119.4 411.013 1124.74 415.895L1132.09 412.35L1113.7 386.193C1101.73 394.011 1090.23 402.526 1078.75 411.042ZM239.191 422.057C226.466 442.924 214.758 464.548 205.78 487.304L210.603 491.315L218.128 474.458L229.574 479.719C224.926 482.422 218.767 484.398 219.638 491.082C230.795 489.775 242.125 488.757 252.904 485.328L253.223 477.655L236.838 481.956C234.223 474.807 227.715 470.796 222.311 466.001C223.764 462.542 225.478 459.258 227.163 455.945C230.243 459.2 241.137 460.944 234.02 467.163L238.523 472.191L242.59 464.925C248.488 467.396 253.892 471.029 260.051 472.86L264.234 466.844C253.281 460.798 242.27 454.898 231.027 449.435C234.862 443.157 237.215 435.281 243.026 430.572C246.138 432.566 249.083 434.811 251.829 437.286C246.716 438.972 241.137 440.686 242.067 447.313C253.223 446.732 264.554 446.761 275.536 444.494L276.233 437.257L259.789 439.35C258.104 432.462 252.671 427.811 247.529 423.423L247.79 413.367C244.159 415.43 241.166 418.366 239.191 422.057ZM1105.6 449.9C1107.25 462.281 1120.73 468.965 1132.15 464.954L1127.27 456.206C1122.54 456.817 1115.71 455.828 1115.04 450.016C1112.51 440.018 1124.34 434.06 1132.59 433.304C1140.61 434.758 1141.91 444.058 1138.37 450.248L1142.84 458.066C1150.31 451.353 1152.11 439.902 1145.55 431.88C1133.4 414.82 1101.65 429.788 1105.6 449.9ZM207.233 446.092L215.077 450.277L219.58 442.517L212.143 437.722L207.233 446.092ZM1124.6 473.761C1118.5 475.301 1123.61 480.852 1124.42 484.456L1141.71 475.853L1148.51 489.949L1131.43 498.523L1136.25 506.457C1148.92 500.325 1161.73 494.483 1174.13 487.798L1169.8 479.428L1155.83 486.171L1149.06 472.714L1163.06 465.158L1159.11 456.991C1147.49 462.368 1136.07 468.122 1124.6 473.761ZM1138.22 512.56C1139.68 515.379 1141.25 518.14 1142.76 520.931C1151.01 517.179 1159.43 513.824 1168 510.875C1161.52 519.32 1154.81 527.587 1147.87 535.666L1150.72 544.908C1164.31 540.025 1177.74 534.736 1191.13 529.301L1187.38 521.686C1178.64 524.186 1170.36 527.993 1161.9 531.248C1167.95 522.5 1175.76 514.973 1181.19 505.847L1178.06 496.953C1164.87 502.417 1151.5 507.416 1138.22 512.56ZM186.693 532.672C174.549 531.364 160.139 538.02 160.458 551.912C160.923 561.212 171.731 561.416 178.703 561.59C174.69 574.43 171.382 587.479 168.796 600.681C156.798 609.545 139.715 621.228 144.712 638.608C146.193 646.659 155.723 646.601 162.027 646.485C164.351 661.016 148.895 665.492 139.744 672.729L143.898 679.82C149.302 674.618 154.793 669.532 160.516 664.707C159.558 685.168 160.545 705.687 161.388 726.147L142.126 738.499L145.903 745.794C151.365 740.534 157.001 735.361 163.538 731.466C160.226 738.122 155.054 743.498 150.784 749.485C155.636 758.553 159.499 746.724 162.259 742.917C165.63 753.264 165.194 764.395 168.361 774.771L172.66 776.166L174.578 769.568C182.771 767.359 193.404 766.197 194.566 755.676C198.11 759.599 201.829 763.378 205.722 766.982C211.591 757.187 197.442 752.711 192.503 746.23C197.994 744.37 211.213 746.957 206.158 736.552C193.694 736.901 181.434 739.662 169 740.592L168.39 732.018C180.367 730.667 192.368 729.534 204.386 728.618L204.705 720.189C192.155 721.555 179.604 723.212 166.966 723.125L166.908 700.397L170.51 699.903C170.917 704.582 170.162 709.581 172.021 714.057C176.408 718.358 181.638 713.534 186.054 712.023C190.208 711.703 195.467 713.447 198.169 709.174C204.037 700.775 199.534 690.341 195.031 682.465L203.485 682.552L203.078 674.327C190.76 675.199 178.413 675.577 166.065 675.315L167.14 664.94L204.182 666.829L203.979 658.807C191.864 658.401 179.807 657.441 167.692 656.976L167.721 646.281C179.982 647.386 192.184 649.507 204.531 649.594L206.129 642.212L169.058 638.318L170.656 626.344L181.144 627.884C180.475 641.108 196.687 629.918 194.217 622.391C186.925 620.328 179.372 619.368 171.934 618.119L173.881 608.179C186.17 610.475 198.343 613.294 210.632 615.474L211.794 607.54C199.639 605.263 187.54 602.695 175.508 599.838C177.777 591.632 179.86 583.376 181.754 575.076C188.262 576.587 195.06 577.43 201.103 580.365C202.352 583.737 203.137 590.857 197.646 590.537C190.499 591.264 191.08 583.097 189.976 578.505L184.688 580.162C180.272 589.956 189.685 601.088 199.999 597.513C207.407 596.176 208.889 588.154 208.918 581.877L218.186 584.085L219.319 576.645C211.794 572.954 195.554 574.349 198.546 561.678C205.693 558.364 210.196 567.141 215.106 570.832C224.054 563.915 210.806 552.871 202.875 553.162C193.927 552.319 190.963 562.172 190.876 569.321L184.165 567.025L190.47 543.019C202.585 546.681 214.409 551.186 226.437 555.109L227.977 547.553C217.576 542.903 206.536 539.938 195.844 535.985C194.653 533.079 193.288 530.26 191.748 527.557L186.693 532.672ZM1171.34 544.007C1159.03 546.913 1152.4 561.648 1158.5 572.809C1167.22 593.531 1204.87 583.039 1201.21 560.544C1200.66 545.925 1183.87 538.165 1171.34 544.007ZM1165.13 593.357L1171.17 623.495L1178.46 621.49C1178.4 614.776 1176.34 608.295 1174.92 601.814C1185.7 598.617 1196.74 596.495 1207.89 594.984L1207.14 584.986L1165.13 593.357ZM1186.45 622.711C1171.46 626.227 1168.44 647.327 1178.75 657.209C1189.82 666.364 1209.75 663.109 1216.14 649.885C1218.5 642.328 1217.97 632.767 1211.96 627.012C1205.51 620.153 1194.85 620.531 1186.45 622.711ZM1186.39 669.358C1175.82 674.269 1173.17 689.673 1180.7 698.305L1177.39 707.227L1201.44 706.326L1200.54 688.365H1192.64L1193.48 698.188C1186.6 696.503 1181.83 689.353 1185.58 682.581C1191.86 673.514 1209.37 674.153 1213.24 685.371C1212.74 692.957 1204.67 697.869 1206.12 706.036C1221.37 705.483 1225.24 684.877 1216.93 674.618C1209.84 665.55 1196.24 664.969 1186.39 669.358ZM1177.59 721.759L1177.18 730.827C1182.73 731.408 1188.34 731.611 1193.83 732.803C1202.43 736.93 1210.16 742.685 1218.85 746.724L1219.4 736.349C1213.74 733.51 1208.12 730.584 1202.55 727.572L1220.27 720.131L1220.09 709.087C1206.59 715.365 1193.51 726.235 1177.59 721.759ZM1172.04 792.092C1174.51 800.724 1186.1 802.323 1192.52 797.062C1197.58 801.422 1206.09 804.357 1210.62 797.643C1215.1 789.302 1214.49 779.217 1216.7 770.15C1202.92 767.156 1188.89 765.703 1175.06 763.029C1173.03 772.533 1170.5 782.327 1172.04 792.092ZM1174.92 806.13C1163.91 809.879 1158.97 824.149 1163.79 834.409C1171.87 851.149 1203.24 851.411 1206.21 830.747C1211.5 812.96 1189.97 801.131 1174.92 806.13ZM186.025 830.805L179.575 824.76L178.326 829.991C181.347 844.755 186.112 859.171 190.673 873.528C184.921 878.236 178.122 883.468 177.483 891.518C176.612 898.668 180.563 908.433 188.901 908.666C193.782 907.997 197.326 904.219 201.306 901.72C213.363 928.778 225.943 955.807 242.358 980.511L247.732 982.632L246.628 973.099L257.145 967.461L261.358 974.872C256.012 978.156 251.277 982.283 247.442 987.253C248.894 993.909 254.908 1003.76 262.665 997.6C269.638 993.008 259.731 989.026 255.286 991.787C257.901 985.19 265.513 979.145 271.701 985.945C276.523 982.719 275.39 975.192 276.117 970.077C271.265 967.432 264.321 971.297 261.649 964.206L277.076 954.818L272.95 947.524L241.457 966.88L236.983 959.352C247.326 953.249 258.133 947.96 268.098 941.304L265.571 933.66L232.857 952.203L222.689 932.556C226.787 930.996 230.979 929.695 235.24 928.661L232.16 941.042L238.203 944.152C244.42 933.806 249.882 923.023 254.414 911.863L247.355 908.927L240.876 925.523C234.63 917.646 226.088 921.57 218.622 925.232C214.554 915.089 209.79 905.265 206.071 895.006C218.564 892.652 214.206 914.653 226.814 913.665C238.029 914.013 240.934 900.47 245.03 892.419L239.046 889.542C235.763 896.488 232.974 905.091 224.636 907.358L217.808 891.838L240.498 882.625L237.39 875.127L203.282 888.874L199.447 879.457C210.777 874.894 222.747 871.901 233.874 866.844L232.451 859.316L196.977 871.726C195.583 865.913 188.058 856.352 196.89 853.184C202.091 850.103 204.124 858.008 207.001 860.769C210.719 857.863 215.368 855.363 217.024 850.626C219.697 844.319 215.949 837.867 214.06 831.938C221.324 832.229 223.735 828.247 221.411 821.592L186.025 830.805ZM1157.17 845.133L1154.84 853.736C1164.14 856.875 1173.64 859.723 1182.41 864.228L1152.63 860.217L1149.15 868.791C1157.46 874.167 1166.06 879.166 1173.99 885.124L1146.91 875.708L1143.95 883.933C1157.33 888.939 1170.82 893.639 1184.42 898.029L1188.51 885.589C1179.81 879.92 1170.96 874.464 1161.99 869.227C1172.54 869.227 1182.99 870.767 1193.48 871.668L1197.81 859.287C1184.34 854.352 1170.79 849.634 1157.17 845.133ZM1131.89 920.64C1134.27 928.051 1142.84 929.824 1149.5 927.673C1153.16 933.777 1161.61 938.31 1167.63 932.411C1173.58 925.145 1176.25 915.844 1179.92 907.329C1166.96 901.865 1154.26 895.878 1141.48 890.123C1137.47 899.889 1129.94 909.509 1131.89 920.64ZM1125.99 922.965L1121.98 931.8L1127.88 938.02C1124.37 942.35 1123.2 951.622 1115.91 950.43C1110.39 949.006 1108.88 954.935 1106.32 958.277L1151.18 965.979L1156.5 956.504C1146.21 945.431 1137.09 933.283 1125.99 922.965ZM1095.89 973.623C1100.37 976.645 1105.1 979.348 1109.2 982.923C1115.1 990.45 1118.24 999.663 1123.52 1007.63C1126.95 1006.46 1128.09 1002.51 1130.29 999.983C1126.81 994.664 1123.44 989.288 1120.18 983.882C1126.52 984.609 1132.85 985.451 1139.18 986.323L1144.96 976.82C1130.41 975.25 1113.59 978.127 1102.61 966.124L1095.89 973.623ZM621.436 208.441L624.138 193.589L630.82 207.365L621.436 208.441ZM557.55 202.773C563.07 202.076 570.217 198.327 574.255 204.168C578.09 210.213 580.85 219.979 574.691 225.414C571.35 227.041 567.747 228.087 564.261 229.25L557.55 202.773ZM402.06 282C405.517 279.878 409.003 279.762 412.548 281.709C414.64 287.58 399.707 287.987 402.06 282Z" fill="white"/>
<path d="M365.454 290.864L374.722 284.5C377.278 287.144 379.573 290.051 381.956 292.899L373.589 300.513L365.454 290.864ZM1012.05 306.21C1017.54 300.891 1027.68 302.548 1029.86 310.337C1031.6 318.969 1024.43 326.729 1016.93 329.751C1013.87 330.068 1010.8 329.157 1008.41 327.217C1006.02 325.277 1004.5 322.468 1004.18 319.405C1005.22 314.319 1007.95 309.465 1012.05 306.21ZM692.586 359.977C709.234 375.061 717.31 396.772 723.934 417.639C736.427 456.352 736.194 499.482 721.174 537.439C716.7 549.18 708.885 560.341 697.206 565.717C688.635 568.449 681.082 561.823 674.922 556.824C661.994 543.687 656.125 525.319 652.784 507.619C645.114 465.39 655.544 421.737 675.039 384.1C679.629 375.206 685.73 367.214 692.586 359.977ZM612.605 366.517C631.692 370.818 648.63 386.803 652.29 406.13C644.621 427.695 639.333 450.103 637.532 472.947C635.905 504.713 643.691 537.729 664.376 562.549C633.842 559.672 612.517 533.05 604.092 505.411C594.185 478.498 600.809 449.667 605.167 422.347C608.712 403.892 610.687 385.204 612.605 366.517ZM731.808 401.683C743.08 388.343 757.287 374.305 775.793 373.405C761.499 417.436 778.96 463.734 769.779 508.375C765.973 531.655 752.9 554.499 731.314 565.398C727.217 568.769 722.627 566.095 718.501 564.467C733.464 544.879 742.092 520.93 744.3 496.459C748.542 464.402 741.627 432.113 731.808 401.683ZM549.677 400.695C567.864 398.37 580.937 413.657 590.496 426.881C585.789 459.955 582.128 495.587 597.73 526.511C606.62 546.187 624.487 559.091 641.89 570.658C621.378 571.966 600.373 564.526 586.167 549.5C571.698 533.98 561.327 514.478 557.346 493.553C551.187 462.92 554.877 431.444 549.677 400.695ZM784.596 429.555C791.743 416.418 807.257 409.327 821.58 406.769C822.423 419.47 819.169 431.88 817.978 444.465C813.881 476.58 812.022 510.555 794.707 538.95C784.422 557.114 765.683 570.222 744.678 572.053C754.817 562.055 766.148 552.755 772.22 539.502C789.709 505.556 786.456 466.349 784.596 429.555ZM497.44 431.473C515.482 429.875 534.279 440.425 541.861 456.904C541.861 491.751 551.362 528.167 575.853 553.976C584.859 564.09 596.597 571.007 607.549 578.767C578.555 579.9 551.797 561.823 537.533 537.322C524.43 512.938 518.59 485.531 510.688 459.2C507.579 449.376 501.536 440.861 497.44 431.473ZM829.744 452.108C841.133 443.912 855.165 438.972 869.314 440.657C863.59 452.166 857.053 463.414 853.741 475.94C847.292 498.813 842.411 523.081 827.391 542.205C815.508 559.149 798.687 575.279 776.723 575.948C796.215 560.231 810.538 539.018 817.832 515.06C823.614 494.454 825.473 472.976 829.744 452.108ZM462.78 478.556C477.742 471.552 497.818 474.981 508.102 488.263C515.656 509.886 519.433 533.718 534.221 552.028C542.181 562.724 553.047 570.6 563.506 578.65C545.319 579.842 525.65 575.541 512.751 561.823C495.174 543.251 491.106 516.658 477.19 495.762C472.832 489.658 467.516 484.369 462.78 478.556ZM865.188 495.907C875.444 486.752 889.505 480.561 903.421 483.497C897.931 492.012 891.568 499.947 886.542 508.724C876.606 525.784 869.662 544.85 856.269 559.701C849.143 567.733 840.245 573.994 830.281 577.989C820.317 581.984 809.559 583.604 798.861 582.719C819.082 569.786 835.322 551.331 847.146 530.55C853.683 519.245 854.874 504.829 865.188 495.907ZM165.775 550.924C167.751 542.031 176.35 538.746 184.717 540.548L180.882 554.121C175.653 554.063 170.453 553.423 165.775 550.924ZM1177.18 552.232C1182.62 550.633 1189.53 551.912 1192 557.667C1198.48 572.896 1168.5 582.283 1165.13 566.328C1162.98 558.771 1170.71 553.394 1177.18 552.232ZM675.3 579.668C692.935 576.384 712.429 577.575 727.624 587.951C741.802 597.338 753.917 612.626 754.381 630.238C754.294 650.844 730.791 664.707 711.965 660.319C704.614 659.796 698.688 654.419 691.773 653.111C680.559 657.122 668.734 662.15 656.561 659.331C637.735 656.337 622.918 634.539 631.198 616.317C639.304 598.326 655.196 582.748 675.3 579.668ZM549.328 594.926C576.696 585.945 606.01 589.898 634.278 589.52C626.259 599.954 620.652 611.899 614.871 623.612C609.845 635.266 596.364 638.899 585.557 643.084C559.061 650.873 529.659 653.314 503.134 644.421C523.006 632.214 526.231 603.383 549.328 594.926ZM752.638 590.915C770.07 592.775 787.472 595.1 805.02 595.623C812.487 595.972 820.389 597.803 825.996 603.064C837.966 613.788 845.287 628.436 855.63 640.556C861.499 647.327 869.372 651.832 875.85 657.935C844.27 675.577 804.875 667.41 774.253 651.6C768.792 648.345 770.128 641.108 768.995 635.818C768.007 619.514 759.698 605.185 752.638 590.915ZM150.261 633.493C149.477 623.234 159.674 617.072 166.385 611.085L162.289 639.626C157.989 638.841 150.232 639.945 150.261 633.493ZM1189.36 631.807C1197.52 628.669 1209.69 631.401 1209.69 642.038C1207.17 652.966 1191.8 656.017 1183.63 649.565C1178.03 643.607 1181.4 633.377 1189.36 631.807ZM609.467 667.236C610.426 658.517 604.877 645.438 616.091 641.834C616.585 650.844 620.1 662.963 609.467 667.236ZM593.052 651.571L601.826 648.141L602.262 671.566L593.11 674.792L593.052 651.571ZM578.381 653.838L586.457 653.431V673.979C587.503 678.919 581.17 678.745 578.322 680.402L578.381 653.838ZM511.095 658.255L523.035 659.592L522.687 669.561C518.242 666.422 513.855 663.022 511.095 658.255ZM561.53 657.354L570.188 656.25C571.146 664.039 571.408 671.886 571.466 679.733L562.111 682C560.978 673.833 560.92 665.579 561.53 657.354ZM529.863 659.854L539.276 659.825L539.305 677.205L529.717 673.397L529.863 659.854ZM546.19 659.476L554.906 658.866V680.402L546.19 679.559V659.476ZM634.162 663.516L641.861 666.131L642.035 680.053L634.539 672.758L634.162 663.516ZM741.889 666.044L749.907 662.353C750.169 667.439 750.721 672.583 750.111 677.67C747.845 680.692 744.794 682.988 742.063 685.546L741.889 666.044ZM769.14 666.335C771.871 661.481 776.171 667.439 779.599 668.224L779.018 685.11L769.983 679.268C768.181 675.286 768.966 670.549 769.14 666.335ZM650.896 668.34L659.35 669.154L659.176 691.533L650.431 686.156L650.896 668.34ZM686.776 671.741L691.802 667.236L698.077 670.52L698.019 699.002L685.788 698.595L686.776 671.741ZM706.299 671.421L716.032 669.503C717.63 678.425 717.397 687.551 717.252 696.59L705.951 698.305L706.299 671.421ZM724.486 668.718L734.626 667.846L734.684 691.562L724.457 694.497L724.486 668.718Z" fill="white"/>
<path d="M667.397 670.694L678.757 671.624L678.641 697.055L667.775 694.526L667.397 670.694ZM786.397 671.653L796.769 674.676L796.856 690.022L787.094 687.551C786.107 682.291 786.513 676.943 786.397 671.653ZM847.989 682.523C848.599 673.688 858.128 674.385 864.607 673.019C860.307 677.989 855.165 683.075 847.989 682.523ZM803.887 677.175L813.213 677.408L812.98 692.986L803.771 690.399L803.887 677.175ZM820.389 678.774L828.785 678.977L828.756 691.01L820.592 692.521L820.389 678.774ZM836.048 678.135L842.004 677.234L842.672 687.842L835.67 689.731L836.048 678.135ZM165.862 683.337C172.951 683.366 180.156 682.552 187.157 683.918C191.399 689.353 198.575 698.595 191.196 704.553C185.792 702.693 187.186 696.503 186.17 692.143C178.5 694.352 181.812 702.664 181.027 708.477C173.677 706.733 177.57 697.404 176.234 691.998L167.634 692.201L165.862 683.337ZM685.933 709.349L698.832 709.988C693.981 726.7 688.432 743.556 688.286 761.14C687.473 777.183 690.552 793.022 693.341 808.717C687.357 807.757 678.234 806.13 677.246 798.806C671.465 769.045 673.005 737.075 685.933 709.349ZM170.772 749.195C175.594 747.887 180.621 747.567 185.589 747.015C186.46 750.415 188.232 753.787 187.797 757.42C182.945 760.122 177.192 760.268 171.847 761.343C171.411 757.303 170.685 753.264 170.772 749.195ZM1180.73 773.375L1191.62 775.148L1187.93 790.813C1176.92 791.744 1180.06 780.467 1180.73 773.375ZM1198.51 776.514L1207.54 777.27L1204 792.761C1194.99 791.715 1198.13 782.995 1198.51 776.514ZM694.707 816.622C722.394 798.486 759.059 796.132 789.448 808.629C809.174 816.215 830.325 820.109 851.475 818.046C868.471 847.516 888.197 875.562 902.985 906.195C857.925 908.026 814.694 891.228 769.808 890.734C754.323 890.559 738.518 890.617 723.614 895.238C712.109 898.406 702.144 905.207 691.279 909.886C690.93 878.73 695.317 847.778 694.707 816.622ZM709.204 823.306L713.33 829.032C718.225 827.044 723.145 825.116 728.088 823.248L725.125 817.436L709.204 823.306ZM731.604 816.825C732.795 823.946 740.029 822.958 745.52 823.801L746.188 817.029C741.307 816.854 736.456 816.738 731.604 816.825ZM753.626 817.232L752.812 823.568C758.129 824.614 763.416 825.748 768.733 826.881L769.401 820.226L753.626 817.232ZM774.108 822.812L774.282 828.945L786.339 830.02L785.903 823.655L774.108 822.812ZM794.416 825.486L793.776 831.735L807.722 833.74C808.274 832.403 809.436 829.758 810.017 828.422C804.875 827.027 799.645 826.126 794.416 825.486ZM816.815 835.135L830.267 834.961C830.528 826.009 814.52 825.573 816.815 835.135ZM711.877 838.012L716.235 843.418C723.324 840.744 730.732 839.117 738.228 838.042L738.925 832.055C729.596 832.163 720.389 834.191 711.877 838.012ZM747.263 831.589L747.321 838.361L760.918 840.105L762.022 833.682L747.263 831.589ZM770.244 834.903L767.774 840.919L782.94 844.145L783.869 837.664L770.244 834.903ZM789.971 844.842L807.112 847.197L807.838 840.512L792.149 838.594L789.971 844.842ZM818.384 841.791C817.541 843.273 815.915 846.267 815.101 847.778C823.003 849.028 831.022 849.638 839.04 849.87L838.024 843.825C831.458 843.128 824.95 841.965 818.384 841.791ZM738.46 846.557L739.128 853.125L756.182 853.155L756.734 846.644C750.633 846.325 744.532 846.325 738.46 846.557ZM724.689 849.841C721.319 851.265 716.235 851.643 715.363 855.945C719.866 861.438 726.2 857.136 731.284 855.102C732.563 851.091 728.466 846.964 724.689 849.841ZM763.533 847.342C760.54 857.136 771.871 854.956 777.768 856.642L778.32 849.841L763.533 847.342ZM783.782 851.324C782.33 861.263 793.166 859.287 799.587 860.944C802.376 850.655 789.796 853.3 783.782 851.324ZM807.954 855.015L807.664 861.961C813.794 861.467 826.693 868.151 825.734 857.223L807.954 855.015ZM833.608 857.223L832.329 863.995C838.866 863.879 848.25 867.454 852.579 860.856C849.151 854.521 839.621 858.735 833.608 857.223ZM744.213 861.031L744.038 868.384L758.361 867.919L758.042 860.449L744.213 861.031ZM716.758 868.674L723.353 874.865C728.815 871.755 739.099 871.087 735.061 862.193C728.786 863.85 722.685 866.088 716.758 868.674ZM764.898 869.343L780.674 871.232L781.051 864.257L767.629 861.554L764.898 869.343ZM788.082 866.204L787.036 873.586L805.891 876.26L806.879 869.11L788.082 866.204ZM814.171 869.75L812.457 877.364C818.873 878.043 825.305 878.546 831.748 878.876L831.458 871.813C825.685 871.215 819.922 870.527 814.171 869.75ZM838.256 878.149C842.701 883.846 851.475 881.114 857.837 882.334L857.605 875.243C851.301 876.057 840.813 869.285 838.256 878.149ZM613.04 807.757C637.096 802.061 664.347 802.439 685.381 816.941L681.197 908.578C655.689 892.681 625.01 887.246 595.318 890.559C550.083 892.768 506.097 907.794 460.572 905.818C464.523 899.162 469.2 893.03 474.081 887.072L532.564 813.686C559.496 815.14 586.747 814.18 613.04 807.757ZM632.331 818.627C631.314 826.678 640.64 823.684 645.521 824.963C648.31 816.215 637.677 816.767 632.331 818.627ZM609.496 828.131C615.685 827.248 621.809 825.957 627.828 824.266L624.225 819.238C618.415 820.284 607.985 819.208 609.496 828.131ZM650.866 824.963C656.968 827.579 665.509 834.147 670.128 825.893C664.55 824.469 651.854 814.471 650.866 824.963ZM590.873 827.753C593.313 832.839 599.85 829.729 604.237 830.369L603.395 823.074C599.211 824.411 593.517 823.568 590.873 827.753ZM550.025 826.416L549.56 832.955L560.077 832.868L559.845 826.416H550.025ZM569.752 826.213L569.49 833.217C574.603 832.52 580.53 834.089 585.062 831.095C584.481 823.132 574.923 827.462 569.752 826.213ZM616.265 834.583L617.253 841.239C621.872 839.64 631.517 842.227 631.808 835.31C627.508 831.822 621.291 834.786 616.265 834.583ZM639.187 833.246L639.158 839.611C646.944 840.628 654.44 843.041 662.052 844.988L666.758 840.221C658.101 836.065 648.746 833.798 639.187 833.246ZM594.127 838.361L594.737 844.726C600.315 844.029 605.864 843.099 611.384 841.849C608.595 833.653 600.373 837.751 594.127 838.361ZM538.549 840.774L537.387 847.4C545.87 847.807 554.383 848.417 562.866 847.371L561.559 841.82C553.86 841.674 546.19 841.209 538.549 840.774ZM570.739 840.715L570.885 847.429L588.287 845.714C588.055 835.513 577.131 841.239 570.739 840.715ZM598.049 851.44L600.838 858.299C606.154 856.497 616.294 857.223 613.418 848.621L598.049 851.44ZM618.792 849.028C621.756 857.311 630.907 854.346 637.735 854.898L639.071 848.272C632.302 848.102 625.53 848.355 618.792 849.028ZM576.201 855.422L578.961 861.554L593.575 859.258L591.948 852.195L576.201 855.422ZM644.707 856.497C650.75 858.822 658.972 864.693 662.429 855.799C657.549 853.823 652.61 851.934 647.642 850.19L644.707 856.497ZM551.071 857.369C551.506 867.773 563.215 861.903 569.664 862.658L568.793 855.654L551.071 857.369ZM525.127 856.933C524.226 867.483 537.038 862.339 543.314 864.286C543.488 861.932 544.592 859.49 543.546 857.223C537.416 856.729 531.257 856.875 525.127 856.933ZM616.526 862.978L619.054 869.692C623.179 869.692 627.334 869.779 631.488 869.895L632.738 862.687C627.334 862.077 621.872 861.99 616.526 862.978ZM594.737 865.245L596.509 872.86L611.5 869.982L609.554 862.891L594.737 865.245ZM642.151 863.821L639.333 870.593L653.597 876.638L658.74 870.476C653.3 868.041 647.766 865.821 642.151 863.821ZM569.432 869.343L570.071 876.812C576.579 876.057 583.029 875.068 589.478 873.906L587.416 867.047L569.432 869.343ZM543.517 871.959L544.476 879.05L563.447 877.481L562.605 870.244L543.517 871.959ZM514.987 872.22L515.016 879.98C522.275 880.179 529.539 879.985 536.777 879.399L536.748 872.249L514.987 872.22ZM1174.57 816.506C1183.63 810.809 1202.46 817.784 1197.84 830.543C1194.09 840.018 1181.14 838.158 1174.37 833.188C1168.41 829.497 1169.11 820.284 1174.57 816.506ZM187.274 838.943L206.129 833.856C209.673 838.681 214.322 844.261 209.789 850.19C204.531 842.75 195.989 844.319 189.075 848.243L187.274 838.943ZM193.055 880.794L198.343 894.802C194.217 896.75 189.075 904.19 184.891 898.552C179.052 891.664 188.668 885.211 193.055 880.794ZM496.946 912.095C535.731 907.852 573.877 896.837 613.156 897.593C631.75 897.68 650.867 900.673 667.31 909.77C670.855 911.281 673.469 914.072 674.399 917.879C665.306 914.827 656.822 910.09 647.525 907.561C627.741 902.01 606.881 902.272 586.602 904.306C550.838 908.898 515.249 915.234 479.253 917.617C471.234 917.617 462.228 919.245 455.691 913.461C469.433 912.967 483.233 913.577 496.946 912.095ZM700.024 914.885C720.941 899.918 747.844 896.633 772.917 897.912C817.658 900.848 861.179 915.67 906.297 913.984L900.603 917.327C856.414 920 813.968 902.156 769.808 902.998C746.769 902.126 723.76 909.044 704.817 922.122C702.871 919.913 701.273 917.501 700.024 914.885ZM1144.91 901.661L1154.55 906.253L1146.36 920.669C1136.63 917.559 1141.68 908.026 1144.91 901.661ZM499.328 921.686C544.853 917.937 590.117 903.638 636.05 910.526C647.409 912.851 660.134 915.234 668.066 924.505C655.486 921.25 643.342 915.815 630.268 914.769C583.493 908.753 537.59 923.226 491.193 926.307C481.984 926.453 472.658 926.918 463.564 925.057C475.36 922.849 487.416 923.023 499.328 921.686ZM733.812 913.897C752.957 907.387 773.469 909.16 793.312 909.654C829.308 913.461 864.52 924.941 901.039 922.965C892.275 925.533 883.071 926.236 874.02 925.028C831.719 921.919 789.418 906.312 746.885 916.28C732.882 918.547 720.912 926.714 707.316 930.202C712.836 920.698 724.166 917.501 733.812 913.897ZM1160.71 909.712L1169.34 912.502C1166.7 917.327 1165.01 923.401 1159.75 926.104C1154.09 921.744 1159.46 914.914 1160.71 909.712ZM467.457 931.946C513.593 934.387 558.305 919.768 604.208 918.257C624.487 917.966 644.998 921.454 663.475 929.998L660.425 936.567C639.391 930.231 617.834 924.534 595.725 924.796C569.2 925.958 543.691 934.736 517.137 935.549C500.577 936.247 483.465 936.712 467.457 931.946ZM686.369 916.949C697.38 927.179 706.822 940.665 708.972 955.778C707.461 966.415 694.155 967.229 685.672 967.199C677.595 968.013 666.904 965.223 665.248 956.068C665.538 940.49 677.13 928.4 686.369 916.949ZM744.968 922.587C797.379 909.944 849.122 934.474 901.794 930.725C899.412 933.66 896.042 935.753 892.091 935.346C875.211 936.712 858.593 933.253 842.091 930.202C810.336 925.726 777.681 922.006 745.956 928.807C734.887 930.928 724.486 935.259 713.765 938.514C720.68 928.254 733.928 925.987 744.968 922.587ZM540.379 938.921C562.634 935.462 584.859 929.184 607.607 930.957C624.138 932.556 640.698 935.753 656.357 941.449L657.665 947.204C630.675 940.81 602.901 935.491 575.068 938.921C541.396 943.135 507.085 948.977 473.268 942.815L469.752 939.444C493.198 942.089 517.021 942.728 540.379 938.921ZM738.199 936.305C779.192 924.447 822.19 932.672 863.299 939.386C875.037 941.74 887.035 941.013 898.918 941.507C895.577 944.966 890.435 944.675 886.048 944.995C851.01 945.78 816.583 936.072 781.458 937.903C758.942 936.683 737.472 944.21 715.509 947.436C720.883 940.258 730.296 939.066 738.199 936.305ZM569.2 945.14C590.64 943.397 612.517 943.106 633.696 947.524C641.57 949.209 650.111 949.907 656.735 955.022C638.316 952.261 619.867 955.371 601.39 954.731C557.898 954.382 514.406 955.167 470.914 954.702L470.973 948.512C503.628 953.714 536.748 949.936 569.2 945.14ZM734.683 949.442C773.701 940.054 814.317 943.28 853.625 948.977C869.633 951.389 885.844 950.139 901.968 950.139L899.441 954.47C840.522 954.847 781.574 954.877 722.626 954.441C726.403 952.232 730.355 950.284 734.683 949.442ZM1128.61 952.784L1134.07 944.414L1144.12 955.748L1128.61 952.784ZM298.632 1151.37C480.208 1074.26 680.725 1053.39 874.281 1091.45C942.264 1104.12 1008.04 1126.21 1072.01 1152.1C1059.35 1182.5 1044.47 1211.94 1031.02 1242.02C924.194 1203.57 810.917 1182.04 697.264 1182.09C575.94 1179.97 454.558 1200.17 339.568 1238.51C325.855 1209.5 310.922 1181.02 298.632 1151.37ZM831.371 1088.92L832.881 1098.13C839.04 1101.59 842.265 1107.6 843.747 1114.35C831.312 1112.55 818.878 1111.01 806.414 1109.67L810.307 1118.5C815.188 1119.35 820.098 1120.25 824.921 1121.5C821.405 1125.65 816.118 1126.73 811.121 1127.95L813.038 1136.73C806.531 1139.75 796.362 1144.6 791.772 1136.06C795.287 1130.22 802.231 1133.44 807.605 1133.04C806.56 1128.12 803.712 1125.62 799.006 1125.6C801.475 1123.44 806.24 1122.78 806.211 1118.77C806.443 1109.96 794.706 1106.06 788.431 1110.92C784.073 1115.39 788.46 1120.71 790.029 1125.36C788.431 1130.22 784.538 1135.77 788.663 1140.5C793.428 1149.63 809.843 1152.36 814.694 1142.16C819.691 1147.77 826.664 1149.89 834.072 1149.14C832.707 1155.47 838.14 1158.9 842.062 1162.71L848.018 1123.91C855.303 1125.12 862.559 1126.51 869.778 1128.07C867.367 1133.65 860.859 1133.33 855.891 1134.81C857.634 1140.97 857.111 1148.87 862.66 1153.23C866.699 1156.98 872.538 1156.43 877.651 1157.04C876.141 1163.29 880.411 1167.42 884.624 1171.22L893.688 1133.5L908.621 1136.52C907.957 1140.15 906.985 1143.72 905.716 1147.19C904.264 1150.04 899.034 1152.19 901.329 1155.85C903.218 1159.16 904.496 1165.7 909.348 1165.03L914.664 1160.15L926.634 1162.91L923.525 1173.67L926.402 1177.91C923.148 1180.58 922.48 1186.02 926.896 1187.97C933.955 1191.92 936.57 1199.88 941.219 1206.04C940.027 1197.29 936.483 1189.07 931.195 1182.04C934.217 1169.63 937.442 1157.25 941.48 1145.13L951.155 1148.03L949.818 1138.67C916.175 1129.52 882.271 1121.15 847.901 1115.22C845.112 1105.16 843.834 1091.27 831.371 1088.92ZM595.056 1108.59C597.09 1112.43 598.543 1117.4 603.917 1117.14C605.109 1123.79 603.947 1131.7 608.798 1137.16C614.057 1141.81 621.175 1141.14 627.45 1139.4C627.16 1146.52 631.198 1151.11 637.822 1153.44C637.473 1140.24 636.137 1127.11 636.398 1113.91L651.825 1114.14L651.244 1124.35L640.931 1123.39C641.831 1135.53 652.668 1143.29 659.96 1151.96C669.983 1147.39 653.685 1140.59 655.05 1135.3C662.546 1130.3 660.832 1121.18 660.977 1113.45L673.557 1113.36C673.382 1119.4 674.196 1126.18 668.647 1130.25C672.03 1134.48 675.762 1138.43 679.803 1142.05L684.045 1134.14L696.014 1134.58L695.579 1145.68L705.166 1151.43L705.224 1112.63L714.376 1112.87C714.288 1119.03 714.23 1125.45 709.727 1130.25C710.918 1135.48 715.973 1138.53 719.634 1142.05L724.486 1135.16L735.439 1135.19C735.758 1140.65 735.177 1146.78 739.826 1150.76L734.596 1150.97L738.228 1157.8C747.844 1157.77 752.435 1166.81 759.494 1171.66C756.415 1163.73 750.604 1157.36 744.619 1151.49L746.014 1114.06L755.892 1114.14L751.882 1105.4C699.617 1104.03 647.206 1104.5 595.056 1108.59ZM415.133 1148.35L423.036 1154.77C433.088 1150.27 443.256 1145.36 454.384 1144.43C448.253 1153.44 431.548 1150.47 429.195 1161.6C435.819 1161.17 443.314 1161.6 445.058 1169.34L434.453 1170.79L435.819 1178.67C443.14 1180.38 450.258 1182.76 456.94 1186.19C458.8 1181.4 453.832 1179.65 451.624 1176.72C453.018 1171.46 454.006 1166.2 449.59 1162.04C445.377 1157.97 453.715 1157.07 455.633 1155.3L462.344 1175.29L472.774 1178.03L461.095 1141.17L468.271 1138.5L476.841 1170.41L487.736 1173.87C484.075 1161.34 480.763 1148.7 477.451 1136.09L509.874 1128.53L511.85 1136.46C504.151 1138.18 496.248 1139.37 488.84 1142.16C483.407 1148.53 493.605 1153.99 498.747 1156.34C499.502 1148.03 505.807 1145.21 513.273 1144.72L516.12 1160.73L526.666 1165.7L519.723 1127.19L529.485 1125.45C530.269 1131.5 533.058 1138.41 526.957 1142.74C530.723 1146.99 535.171 1150.59 540.118 1153.38L542.936 1145.36L554.266 1143.73C555.37 1148.5 555.893 1153.7 559.409 1157.45C559.903 1160.38 560.048 1165.09 564.057 1165.24C572.366 1165.79 578.409 1171.63 584.772 1176.34C581.576 1167.85 573.877 1162.39 566.294 1158.12C564.377 1145.82 562.982 1133.41 561.326 1121.09L570.768 1119.32L566.178 1111.91C514.61 1117.75 463.128 1128.07 415.133 1148.35ZM613.331 1116.15L626.637 1114.52L626.811 1129.26C623.441 1131.23 620.158 1133.44 616.555 1134.9C612.662 1129.98 614.638 1122.17 613.331 1116.15ZM682.621 1112.57L696.043 1112.95L695.811 1125.71L682.97 1126.15L682.621 1112.57ZM723.527 1113.24L736.572 1113.5V1126.44L723.411 1126.61L723.527 1113.24ZM796.449 1113.62C802.899 1111.96 801.795 1123.07 795.839 1121.58C791.191 1120.83 792.353 1114.17 796.449 1113.62ZM538.549 1124.49L551.71 1121.9L554.005 1134.9L540.67 1137.13L538.549 1124.49ZM829.046 1121.15L839.011 1122.43C838.024 1127.54 837.326 1132.77 835.641 1137.77C830.15 1141.67 823.352 1140.07 817.454 1138.3C823.207 1133.41 832.126 1130.51 829.046 1121.15ZM875.211 1128.85L885.147 1131.5C882.503 1136.55 883.781 1145.39 876.954 1147.1C871.55 1149.57 865.798 1146.93 861.818 1143.15C869.488 1141.49 876.344 1137.98 875.211 1128.85ZM915.304 1152.1L917.657 1138.62L932.358 1142.66L929.394 1154.4L915.304 1152.1ZM283.874 1208.25L296.395 1202.64C313.478 1237.69 330.096 1272.98 345.436 1308.81L336.343 1312.73L283.874 1208.25ZM1025.04 1309.45L1074.25 1203.17L1086.92 1208.98L1034.42 1313.58L1025.04 1309.45ZM261.561 1219.38L273.473 1213.25L325.564 1316.51L315.134 1321.6C296.889 1287.74 278.731 1253.79 261.561 1219.38ZM1092.41 1223.31C1094.06 1220.31 1095.31 1216.91 1097.93 1214.62C1101.94 1216.3 1105.74 1218.39 1109.64 1220.4L1056.24 1321.98L1045.31 1318.02C1060.01 1285.97 1076.69 1254.84 1092.41 1223.31ZM241.311 1231.53C244.101 1228.71 247.848 1227.23 251.277 1225.43L303.629 1325.75L294.187 1330.84L241.311 1231.53ZM1069.05 1324.85C1085.26 1291.75 1102.93 1259.29 1120.39 1226.79L1127.94 1231.88C1111.18 1265.13 1092.99 1297.65 1075.5 1330.52L1069.05 1324.85ZM339.48 1267.05L353.687 1270.3L366.238 1301.02L356.505 1305.18C350.637 1292.54 344.536 1280.01 339.48 1267.05ZM1017.1 1270.56L1031.54 1267.42C1026.31 1280.42 1020.18 1293.03 1014.2 1305.67L1004.41 1301.86C1008.13 1291.23 1012.66 1280.91 1017.1 1270.56ZM367.952 1273.38L380.474 1276.17C383.146 1282.1 385.442 1288.23 387.01 1294.57L376.871 1297.33C373.501 1289.48 370.189 1281.61 367.952 1273.38ZM989.94 1277.57C993.862 1275.07 998.859 1275.24 1003.25 1274.02L993.542 1298.03L983.577 1295.18C985.32 1289.19 986.686 1282.94 989.94 1277.57ZM394.768 1279.34C402.118 1280.88 409.846 1281.58 416.644 1285.1L397.963 1290.53L394.768 1279.34ZM952.752 1285.53C960.509 1283.06 968.441 1281.23 976.547 1280.27L972.421 1291L952.752 1285.53Z" fill="white"/>
</svg>
